<?xml version="1.0" encoding="UTF-8"?><svg id="Layer_1" xmlns="http://www.w3.org/2000/svg" width="103.63" height="30.13" viewBox="0 0 103.63 30.13"><defs><style>.cls-1{fill:#000850;stroke-width:0px;}</style></defs><path id="Path_4060" class="cls-1" d="m28.03,16.22c-.64-.64-.64-1.67,0-2.31l1.41-1.17c.28-.23.4-.6.32-.96C27.95,3.66,19.89-1.45,11.78.37,3.66,2.18-1.45,10.23.37,18.35c1.82,8.12,9.87,13.23,17.98,11.41,5.69-1.27,10.14-5.72,11.41-11.41.08-.35-.04-.72-.32-.95l-1.41-1.18Zm-12.82,10.27c-6.3,0-11.41-5.11-11.41-11.42,0-6.3,5.11-11.41,11.42-11.41,4.51,0,8.6,2.66,10.43,6.78.12.26.05.57-.17.75l-1.47,1.23c-.12.1-.29.1-.4,0l-3.55-2.93c-3.08-2.75-7.8-2.49-10.55.59-2.75,3.08-2.49,7.8.59,10.55,1.37,1.23,3.14,1.9,4.98,1.9,2.09,0,3.86-.92,5.34-2.26l2.41-2.04c.13-.11.15-.31.03-.45-.01-.01-.02-.03-.04-.04l-2.34-1.95c-.12-.1-.29-.1-.4,0l-3.03,2.51h0c-.75.46-1.63.65-2.5.54-2.1-.28-3.57-2.2-3.29-4.29s2.2-3.57,4.29-3.29h0c.51.07,1,.24,1.44.5h0c.06.04.25.19.31.23h0l8.23,6.79c.22.18.29.47.19.73-1.79,4.22-5.93,6.96-10.51,6.96Z"/><path class="cls-1" d="m58.64,21.25l-4.65-10.66h-2.7l5.98,13.51-.42.91c-.62,1.47-1.33,2.04-2.5,2.04-.89,0-1.73-.35-2.36-.97l-.07-.07-1.12,1.96.04.04c.82.79,2.13,1.27,3.51,1.27,2.3,0,3.76-1.13,4.87-3.78l6.57-14.91h-2.55l-4.6,10.66Z"/><path class="cls-1" d="m43.84,8.48c2,0,3.62.68,4.95,2.08l.05.05,1.76-1.7-.05-.05c-1.62-1.83-3.98-2.79-6.81-2.79-2.64,0-5.05.92-6.79,2.6-1.74,1.68-2.71,4.01-2.71,6.57s.96,4.89,2.7,6.57c1.74,1.67,4.14,2.6,6.77,2.6,2.79,0,5.22-1,6.84-2.82l.05-.05-1.76-1.7-.05.05c-1.33,1.4-2.99,2.11-4.95,2.11-4,0-6.91-2.84-6.91-6.76s2.91-6.76,6.91-6.76Z"/><path class="cls-1" d="m96.57,10.47c-4.1,0-7.08,2.92-7.08,6.93s2.98,6.96,7.08,6.96h0c4.09,0,7.06-2.93,7.06-6.96s-2.97-6.93-7.06-6.93Zm-4.47,6.93c0-2.74,1.84-4.65,4.47-4.65s4.45,1.91,4.45,4.65-1.83,4.68-4.45,4.68h0c-2.63,0-4.47-1.92-4.47-4.68Z"/><rect class="cls-1" x="83.64" y="5.21" width="2.59" height="19"/><path class="cls-1" d="m73.35,10.47c-4.11,0-7.08,2.92-7.08,6.93s2.98,6.96,7.08,6.96,7.06-2.93,7.06-6.96-2.97-6.93-7.06-6.93Zm4.45,6.93c0,2.75-1.83,4.68-4.45,4.68s-4.47-1.92-4.47-4.68,1.84-4.65,4.47-4.65,4.45,1.91,4.45,4.65Z"/></svg>