<svg id="bicycle" xmlns="http://www.w3.org/2000/svg" xmlns:xlink="http://www.w3.org/1999/xlink" viewBox="0 0 70 70" shape-rendering="geometricPrecision" text-rendering="geometricPrecision">
<style><![CDATA[
#bicycle-u-road_to {animation: bicycle-u-road_to__to 1000ms linear infinite normal forwards}@keyframes bicycle-u-road_to__to { 0% {transform: translate(73.5px,37.615px)} 100% {transform: translate(-5.5px,37.615px)}} #bicycle-u-wheel-left_tr {animation: bicycle-u-wheel-left_tr__tr 1000ms linear infinite normal forwards}@keyframes bicycle-u-wheel-left_tr__tr { 0% {transform: translate(14.26px,22.97px) rotate(0deg)} 50% {transform: translate(14.26px,22.97px) rotate(360deg)} 100% {transform: translate(14.26px,22.97px) rotate(720deg)}} #bicycle-u-wheel-right_tr {animation: bicycle-u-wheel-right_tr__tr 1000ms linear infinite normal forwards}@keyframes bicycle-u-wheel-right_tr__tr { 0% {transform: translate(53.740002px,22.97px) rotate(0deg)} 50% {transform: translate(53.740002px,22.97px) rotate(360deg)} 100% {transform: translate(53.740002px,22.97px) rotate(720deg)}}
]]></style>
<g id="bicycle-u-bicycle" transform="translate(1 16.385)"><g id="bicycle-u-mask-group" transform="translate(0 0.499998)" mask="url(#bicycle-u-masks)"><g id="bicycle-u-road_to" transform="translate(73.5,37.615)"><g id="bicycle-u-road" transform="translate(-76,-1.5)"><line id="bicycle-s-line1" x1="150.5" y1="1.5" x2="118.5" y2="1.5" fill="none" stroke="#000850" stroke-width="3" stroke-linecap="round" stroke-linejoin="round"/><line id="bicycle-s-line2" x1="112.5" y1="1.5" x2="80.5" y2="1.5" fill="none" stroke="#000850" stroke-width="3" stroke-linecap="round" stroke-linejoin="round"/><line id="bicycle-s-line3" x1="71.5" y1="1.5" x2="39.5" y2="1.5" fill="none" stroke="#000850" stroke-width="3" stroke-linecap="round" stroke-linejoin="round"/><line id="bicycle-s-line4" x1="33.5" y1="1.5" x2="1.5" y2="1.5" fill="none" stroke="#000850" stroke-width="3" stroke-linecap="round" stroke-linejoin="round"/><circle id="bicycle-s-circle1" r="1.5" transform="translate(76 1.5)" fill="#000850" stroke-width="0"/></g></g><mask id="bicycle-u-masks" mask-type="alpha" x="-150%" y="-150%" height="400%" width="400%"><rect id="bicycle-s-rect1" width="70" height="3" rx="1.5" ry="1.5" transform="translate(-1 36.115)" fill="#d2dbed" stroke-width="0"/></mask></g><g id="bicycle-u-wheel-left_tr" transform="translate(14.26,22.97) rotate(0)"><g id="bicycle-u-wheel-left" transform="translate(-14.26,-22.97)"><circle id="bicycle-s-circle2" r="12.76" transform="translate(14.26 22.97)" fill="none" stroke="#000850" stroke-width="3" stroke-linecap="round" stroke-linejoin="round"/><path id="bicycle-s-path1" d="M15.34,31c-5.03,0-9.11-4.08-9.11-9.11" fill="none" stroke="#000850" stroke-width="3" stroke-linecap="round" stroke-linejoin="round"/></g></g><g id="bicycle-u-wheel-right_tr" transform="translate(53.740002,22.97) rotate(0)"><g id="bicycle-u-wheel-right" transform="translate(-53.740002,-22.97)"><circle id="bicycle-s-circle3" r="12.76" transform="translate(53.74 22.97)" fill="none" stroke="#000850" stroke-width="3" stroke-linecap="round" stroke-linejoin="round"/><path id="bicycle-s-path2" d="M54.82,31c-5.03,0-9.11-4.08-9.11-9.11" fill="none" stroke="#000850" stroke-width="3" stroke-linecap="round" stroke-linejoin="round"/></g></g><line id="bicycle-s-line5" x1="41.35" y1="1.5" x2="53.74" y2="22.97" fill="none" stroke="#000850" stroke-width="3" stroke-linecap="round" stroke-linejoin="round"/><line id="bicycle-s-line6" x1="21.33" y1="1.56" x2="32.62" y2="21.12" fill="none" stroke="#000850" stroke-width="3" stroke-linecap="round" stroke-linejoin="round"/><polygon id="bicycle-s-polygon1" points="44.45,7.02 25.31,7.02 14.26,22.97 33.4,22.97 44.45,7.02" fill="none" stroke="#000850" stroke-width="3" stroke-linecap="round" stroke-linejoin="round"/><path id="bicycle-s-path3" d="M41.58,1.5h9.08c0,0,.51.74.51,1.72c0,.86-.28,1.72-1.88,1.73" fill="none" stroke="#000850" stroke-width="3" stroke-linecap="round" stroke-linejoin="round"/><line id="bicycle-s-line7" x1="18.09" y1="1.5" x2="25.09" y2="1.5" fill="none" stroke="#000850" stroke-width="3" stroke-linecap="round" stroke-linejoin="round"/></g></svg>
