<svg id="eGn5MZApXy31" xmlns="http://www.w3.org/2000/svg" xmlns:xlink="http://www.w3.org/1999/xlink" viewBox="0 0 70 70" shape-rendering="geometricPrecision" text-rendering="geometricPrecision" project-id="797ab1bedd42428aa3051fc2c9476257" export-id="46c96400834c489ba7d266cb65e9b852" cached="false">
<style><![CDATA[
#eGn5MZApXy32_ts {animation: eGn5MZApXy32_ts__ts 5000ms linear infinite normal forwards}@keyframes eGn5MZApXy32_ts__ts { 0% {transform: translate(37.566408px,34.109271px) scale(1,1)} 20% {transform: translate(37.566408px,34.109271px) scale(1,1)} 30% {transform: translate(37.566408px,34.109271px) scale(1.1,1.1)} 40% {transform: translate(37.566408px,34.109271px) scale(1,1)} 50% {transform: translate(37.566408px,34.109271px) scale(1.1,1.1)} 60% {transform: translate(37.566408px,34.109271px) scale(1,1)} 70% {transform: translate(37.566408px,34.109271px) scale(1.1,1.1)} 80% {transform: translate(37.566408px,34.109271px) scale(1,1)} 100% {transform: translate(37.566408px,34.109271px) scale(1,1)}} #eGn5MZApXy310 {animation: eGn5MZApXy310_s_do 5000ms linear infinite normal forwards}@keyframes eGn5MZApXy310_s_do { 0% {stroke-dashoffset: 19} 20% {stroke-dashoffset: 19} 80% {stroke-dashoffset: 133} 100% {stroke-dashoffset: 133}} #eGn5MZApXy311 {animation: eGn5MZApXy311_s_do 5000ms linear infinite normal forwards}@keyframes eGn5MZApXy311_s_do { 0% {stroke-dashoffset: 19} 20% {stroke-dashoffset: 19} 80% {stroke-dashoffset: 133} 100% {stroke-dashoffset: 133}} #eGn5MZApXy312 {animation: eGn5MZApXy312_s_do 5000ms linear infinite normal forwards}@keyframes eGn5MZApXy312_s_do { 0% {stroke-dashoffset: 133} 20% {stroke-dashoffset: 133} 80% {stroke-dashoffset: 19} 100% {stroke-dashoffset: 19}} #eGn5MZApXy313 {animation: eGn5MZApXy313_s_do 5000ms linear infinite normal forwards}@keyframes eGn5MZApXy313_s_do { 0% {stroke-dashoffset: 12} 20% {stroke-dashoffset: 12} 30% {stroke-dashoffset: 16.3} 70% {stroke-dashoffset: 16.3} 100% {stroke-dashoffset: 12}}
]]></style>
<g id="eGn5MZApXy32_ts" transform="translate(37.566408,34.109271) scale(1,1)"><g transform="translate(-37.566408,-34.10927)"><path d="M40.2,27.42c0,0,9.9-1.41,9.6,7.65c0,0,2.96,5.21-3.56,5.34c0,0-3.23,4.65-8.34.62" fill="none" stroke="#000850" stroke-width="3" stroke-linecap="round" stroke-linejoin="round"/><path d="M28.52,29.58c-.2-.98.04-3.28,5.94-3.96.55-.06,6.44-.83,5.87,4.3" fill="none" stroke="#000850" stroke-width="3" stroke-linecap="round" stroke-linejoin="round"/><path d="M30.91,35.41c0,0-.77,3.26,1.24,5.1" fill="none" stroke="#000850" stroke-width="3" stroke-linecap="round" stroke-linejoin="round"/><path d="M35.25,34.6c0,0,3.24.79,5.59-1.07" fill="none" stroke="#000850" stroke-width="3" stroke-linecap="round" stroke-linejoin="round"/><path d="M45.66,33.92c0,0,2.26-.85,4.34,1.86" fill="none" stroke="#000850" stroke-width="3" stroke-linecap="round" stroke-linejoin="round"/><path d="M34.61,30.78c0,0-3.65-1.34-5.88-.86l-.78.2c0,0-9.13,7.42,3.04,9.13c0,0,3.57,5.25,7.88.39c0,0,2.4-1.81,3.51-1.85" fill="none" stroke="#000850" stroke-width="3" stroke-linecap="round" stroke-linejoin="round"/></g></g><path d="M50.34,66.37c-.39-2.26-.95-5.94-.73-9.53c0,0,1.31-5.88,3.92-9.64c0,0,8.33-14.21-4.08-23.36c0,0-10.99-8.14-24.27-.61c0,0-7.41,3.21-5.84,13.47c0,0,.32,2.87-.59,4.21l-4.91,5.77c0,0-.65,1.71,1.31,1.88l2.99.62c0,0,1.25,2.44,1.38,4.32s-.31,4.19-.31,4.19-1.06,2.82.61,4.05c.33.08,1.55,1.47,10.29-.41c0,0,.84.4,1.38,4.97" fill="none" stroke="#000850" stroke-width="3" stroke-linecap="round" stroke-linejoin="round"/><polyline id="eGn5MZApXy310" points="28.13,16.23 24.29,9.97 22.92,13.59 18.79,7.52" fill="none" stroke="#000850" stroke-width="3" stroke-linecap="round" stroke-linejoin="round" stroke-dashoffset="19" stroke-dasharray="19"/><polyline id="eGn5MZApXy311" points="38.01,14.81 38.01,7.47 34.82,9.71 34.82,2.37" fill="none" stroke="#000850" stroke-width="3" stroke-linecap="round" stroke-linejoin="round" stroke-dashoffset="19" stroke-dasharray="19"/><polyline id="eGn5MZApXy312" points="54.04,7.52 50.2,13.78 48.83,10.16 44.7,16.23" fill="none" stroke="#000850" stroke-width="3" stroke-linecap="round" stroke-linejoin="round" stroke-dashoffset="133" stroke-dasharray="19"/><path id="eGn5MZApXy313" d="M27.57,55.43c-1.09-1.09-2.5-1.67-3.93-1.74l-3.75-.06" fill="none" stroke="#000850" stroke-width="3" stroke-linecap="round" stroke-linejoin="round" stroke-dashoffset="12" stroke-dasharray="8.15"/></svg>
