<svg id="hourglass" xmlns="http://www.w3.org/2000/svg" xmlns:xlink="http://www.w3.org/1999/xlink" viewBox="0 0 70 70" shape-rendering="geometricPrecision" text-rendering="geometricPrecision">
<style><![CDATA[
#hourglass-u-hourglass_tr {animation: hourglass-u-hourglass_tr__tr 4000ms linear infinite normal forwards}@keyframes hourglass-u-hourglass_tr__tr { 0% {transform: translate(34.999999px,35px) rotate(0deg)} 87.5% {transform: translate(34.999999px,35px) rotate(0deg);animation-timing-function: cubic-bezier(0,0,0.58,1)} 100% {transform: translate(34.999999px,35px) rotate(180deg)}} #hourglass-u-sand-bottom_to {animation: hourglass-u-sand-bottom_to__to 4000ms linear infinite normal forwards}@keyframes hourglass-u-sand-bottom_to__to { 0% {transform: translate(18.805px,55.91px)} 17.5% {transform: translate(18.805px,55.91px);animation-timing-function: cubic-bezier(0.42,0,1,1)} 57.5% {transform: translate(18.805px,42.91px)} 100% {transform: translate(18.805px,42.91px)}} #hourglass-u-sand-top_ts {animation: hourglass-u-sand-top_ts__ts 4000ms linear infinite normal forwards}@keyframes hourglass-u-sand-top_ts__ts { 0% {transform: translate(18.815px,20.71px) scale(1,1)} 17.5% {transform: translate(18.815px,20.71px) scale(1,1)} 45% {transform: translate(18.815px,20.71px) scale(1,0)} 100% {transform: translate(18.815px,20.71px) scale(1,0)}} #hourglass-u-sand-top {animation: hourglass-u-sand-top_c_o 4000ms linear infinite normal forwards}@keyframes hourglass-u-sand-top_c_o { 0% {opacity: 1} 40% {opacity: 1;animation-timing-function: step-start} 45% {opacity: 0} 100% {opacity: 0}} #hourglass-s-line3 {animation: hourglass-s-line3_s_do 4000ms linear infinite normal forwards}@keyframes hourglass-s-line3_s_do { 0% {stroke-dashoffset: 24;animation-timing-function: cubic-bezier(0.42,0,1,1)} 17.5% {stroke-dashoffset: 0;animation-timing-function: step-end} 40% {stroke-dashoffset: 47.5} 62.5% {stroke-dashoffset: 24} 100% {stroke-dashoffset: 24}}
]]></style>
<g id="hourglass-u-hourglass_tr" transform="translate(34.999999,35) rotate(0)"><g id="hourglass-u-hourglass" transform="translate(-18.809999,-25.91)"><path id="hourglass-s-path1" d="M18.81,25.92l-7.52,5.43c-3.7,2.67-5.9,6.96-5.9,11.52v4.72c0,0,26.83,0,26.83,0v-4.72c0-4.56-2.19-8.85-5.9-11.52L18.8,25.92h.01Z" fill="none" stroke="#000850" stroke-width="3" stroke-linecap="round" stroke-miterlimit="10"/><path id="hourglass-s-path2" d="M18.81,25.92l7.52-5.43c3.7-2.67,5.9-6.96,5.9-11.52v-4.72c0,0-26.83,0-26.83,0v4.72c0,4.56,2.19,8.85,5.9,11.52l7.52,5.43h-.01Z" fill="none" stroke="#000850" stroke-width="3" stroke-linecap="round" stroke-miterlimit="10"/><line id="hourglass-s-line1" x1="1.5" y1="1.5" x2="36.12" y2="1.5" fill="none" stroke="#000850" stroke-width="3" stroke-linecap="round" stroke-miterlimit="10"/><line id="hourglass-s-line2" x1="1.5" y1="50.32" x2="36.12" y2="50.32" fill="none" stroke="#000850" stroke-width="3" stroke-linecap="round" stroke-miterlimit="10"/><g id="hourglass-u-mask-group" mask="url(#hourglass-u-masks)"><g id="hourglass-u-sand-bottom_to" transform="translate(18.805,55.91)"><rect id="hourglass-u-sand-bottom" width="19" height="13" rx="0" ry="0" transform="translate(-9.5,-12)" fill="#000850" stroke-width="0"/></g><g id="hourglass-u-sand-top_ts" transform="translate(18.815,20.71) scale(1,1)"><rect id="hourglass-u-sand-top" width="19" height="12" rx="0" ry="0" transform="translate(-9.51,-12)" fill="#000850" stroke-width="0"/></g><mask id="hourglass-u-masks" mask-type="alpha" x="-150%" y="-150%" height="400%" width="400%"><path id="hourglass-u-hourglass-mask" d="M0,0v.6C0,3.7,1.5,6.5,4,8.3l5,3.6l5-3.6c2.5-1.8,4-4.7,4-7.7v-.6C18,0,0,0,0,0ZM0,34.4v-.6c0-3.1,1.5-5.9,4-7.7l5-3.6l5,3.6c2.5,1.8,4,4.7,4,7.7v.6h-18Z" transform="translate(9.81 8.71)" fill="#000850" stroke-width="0"/></mask></g><line id="hourglass-s-line3" x1="0" y1="-16.2525" x2="0" y2="7.7475" transform="translate(18.81 35.1625)" fill="none" stroke="#000850" stroke-width="2.5" stroke-dashoffset="24" stroke-dasharray="24"/></g></g></svg>
