<svg id="eC2F1qXiKkn1" xmlns="http://www.w3.org/2000/svg" xmlns:xlink="http://www.w3.org/1999/xlink" viewBox="0 0 70 70" shape-rendering="geometricPrecision" text-rendering="geometricPrecision" project-id="0a61e2cffe9340239fdb46abd5ae6412" export-id="41cc701d511e4a1b90bf88eb24ba3937" cached="false">
<style><![CDATA[
#eC2F1qXiKkn3 {animation: eC2F1qXiKkn3_c_o 3000ms linear infinite normal forwards}@keyframes eC2F1qXiKkn3_c_o { 0% {opacity: 1} 6.666667% {opacity: 1} 16.666667% {opacity: 0} 26.666667% {opacity: 1} 36.666667% {opacity: 0} 46.666667% {opacity: 1} 100% {opacity: 1}} #eC2F1qXiKkn9 {animation: eC2F1qXiKkn9_s_do 3000ms linear infinite normal forwards}@keyframes eC2F1qXiKkn9_s_do { 0% {stroke-dashoffset: 243} 20% {stroke-dashoffset: 243} 66.666667% {stroke-dashoffset: 128} 100% {stroke-dashoffset: 128}} #eC2F1qXiKkn11 {animation: eC2F1qXiKkn11_s_do 3000ms linear infinite normal forwards}@keyframes eC2F1qXiKkn11_s_do { 0% {stroke-dashoffset: 243} 20% {stroke-dashoffset: 243} 63.333333% {stroke-dashoffset: 128} 100% {stroke-dashoffset: 128}} #eC2F1qXiKkn13 {animation: eC2F1qXiKkn13_s_do 3000ms linear infinite normal forwards}@keyframes eC2F1qXiKkn13_s_do { 0% {stroke-dashoffset: 120} 20% {stroke-dashoffset: 120} 50% {stroke-dashoffset: 54} 100% {stroke-dashoffset: 54}} #eC2F1qXiKkn14 {animation: eC2F1qXiKkn14_s_do 3000ms linear infinite normal forwards}@keyframes eC2F1qXiKkn14_s_do { 0% {stroke-dashoffset: 108} 20% {stroke-dashoffset: 108} 50% {stroke-dashoffset: 36} 100% {stroke-dashoffset: 36}} #eC2F1qXiKkn15 {animation: eC2F1qXiKkn15_s_do 3000ms linear infinite normal forwards}@keyframes eC2F1qXiKkn15_s_do { 0% {stroke-dashoffset: 120} 20% {stroke-dashoffset: 120} 53.333333% {stroke-dashoffset: 54} 100% {stroke-dashoffset: 54}} #eC2F1qXiKkn20_to {animation: eC2F1qXiKkn20_to__to 3000ms linear infinite normal forwards}@keyframes eC2F1qXiKkn20_to__to { 0% {transform: translate(34.999999px,-18px)} 30% {transform: translate(34.999999px,40px)} 100% {transform: translate(34.999999px,40px)}}
]]></style>
<path d="M18.64,46.7h-4.72c-1.32,0-2.4-1.08-2.4-2.4v-19.53c0-1.32,1.08-2.4,2.4-2.4h42.17c1.32,0,2.4,1.08,2.4,2.4v19.53c0,1.32-1.08,2.4-2.4,2.4h-4.81" fill="none" stroke="#000850" stroke-width="3" stroke-linecap="round" stroke-linejoin="round"/><circle id="eC2F1qXiKkn3" r="2.12" transform="translate(18.82 29.23)" fill="#000850"/><line x1="52.07" y1="38.19" x2="17.93" y2="38.19" fill="none" stroke="#000850" stroke-width="3" stroke-linecap="round" stroke-linejoin="round"/><g mask="url(#eC2F1qXiKkn17)"><g transform="translate(-.000001-.22)"><path id="eC2F1qXiKkn9" d="M22.930654,38.41c-.006031.547535,0,5.54,0,17.22s-15.256177,12.343694-17.466413,2.37c-2.170636-9.795,3.339777-17,1.55155-25.553561-.773487-3.699793-5.662716-4.768604-9.040477-3.216439" transform="translate(.099346 0)" fill="none" stroke="#000850" stroke-width="3" stroke-linecap="round" stroke-miterlimit="1" stroke-dashoffset="243" stroke-dasharray="27,188"/><path id="eC2F1qXiKkn11" d="M22.930654,38.41c-.006031.547535,0,5.54,0,17.22s-15.256177,12.343694-17.466413,2.37c-2.170636-9.795,3.339777-17,1.55155-25.553561-.773487-3.699793-5.662716-4.768604-9.040477-3.216439" transform="matrix(-1 0 0 1 69.886446 0)" fill="none" stroke="#000850" stroke-width="3" stroke-linecap="round" stroke-miterlimit="1" stroke-dashoffset="243" stroke-dasharray="27,188"/><path id="eC2F1qXiKkn13" d="M29.01,38.41c0,5.923526,0,13.957711,0,19.59c0,8.431282-1.644544,13.04204-8.631409,14.391007" fill="none" stroke="#000850" stroke-width="3" stroke-linecap="round" stroke-linejoin="round" stroke-dashoffset="120" stroke-dasharray="27,65"/><line id="eC2F1qXiKkn14" x1="35" y1="38.41" x2="35" y2="74" fill="none" stroke="#000850" stroke-width="3" stroke-linecap="round" stroke-linejoin="round" stroke-dashoffset="108" stroke-dasharray="26,56"/><path id="eC2F1qXiKkn15" d="M29.01,38.41c0,5.923526,0,11.957711,0,17.59c0,8.431282-3.644544,15.04204-10.631409,16.391007" transform="matrix(-1 0 0 1 70 0)" fill="none" stroke="#000850" stroke-width="3" stroke-linecap="round" stroke-linejoin="round" stroke-dashoffset="120" stroke-dasharray="27,65"/></g><mask id="eC2F1qXiKkn17" mask-type="alpha" x="-150%" y="-150%" height="400%" width="400%"><path d="M70,37.51133L70,70h-70v-32.48867h.00001v-15.14131h11.51999v15.14131h46.96v-15.14131h11.51999v15.14131h.00001Z" fill="#000850" stroke-width="3" stroke-linecap="round" stroke-linejoin="round"/></mask></g><g mask="url(#eC2F1qXiKkn26)"><g id="eC2F1qXiKkn20_to" transform="translate(34.999999,-18)"><g transform="translate(-34.999999,15)"><line x1="31.93" y1="38.19" x2="17.93" y2="38.19" transform="translate(10.07-46)" fill="none" stroke="#000850" stroke-width="3" stroke-linecap="round" stroke-linejoin="round"/><line x1="31.93" y1="38.19" x2="17.93" y2="38.19" transform="translate(10.07-50)" fill="none" stroke="#000850" stroke-width="3" stroke-linecap="round" stroke-linejoin="round"/><line x1="31.93" y1="38.19" x2="17.93" y2="38.19" transform="translate(10.07-54)" fill="none" stroke="#000850" stroke-width="3" stroke-linecap="round" stroke-linejoin="round"/><line x1="17.93" y1="38.19" x2="23.93" y2="38.19" transform="translate(10.07-62)" fill="none" stroke="#000850" stroke-width="3" stroke-linecap="round" stroke-linejoin="round"/><rect width="24.38" height="30" rx="0" ry="0" transform="translate(22.81-30)" fill="none" stroke="#000850" stroke-width="3" stroke-linecap="round" stroke-linejoin="round"/></g></g><mask id="eC2F1qXiKkn26" mask-type="alpha" x="-150%" y="-150%" height="400%" width="400%"><rect width="34" height="17" rx="0" ry="0" transform="matrix(1 0 0-1.315881 18 22.369986)" fill="#000850" stroke-width="3" stroke-linecap="round" stroke-linejoin="round"/></mask></g></svg>
