<svg id="upload" xmlns="http://www.w3.org/2000/svg" xmlns:xlink="http://www.w3.org/1999/xlink" viewBox="0 0 70 70" shape-rendering="geometricPrecision" text-rendering="geometricPrecision">
<style><![CDATA[
#upload-u-cloud-right {animation: upload-u-cloud-right_s_do 5000ms linear infinite normal forwards}@keyframes upload-u-cloud-right_s_do { 0% {stroke-dashoffset: 169.38;animation-timing-function: cubic-bezier(0,0,0.58,1)} 8% {stroke-dashoffset: 155} 32% {stroke-dashoffset: 155;animation-timing-function: cubic-bezier(0,0,0.58,1)} 40% {stroke-dashoffset: 169.38} 100% {stroke-dashoffset: 169.38}} #upload-u-cloud-left {animation: upload-u-cloud-left_s_do 5000ms linear infinite normal forwards}@keyframes upload-u-cloud-left_s_do { 0% {stroke-dashoffset: 0;animation-timing-function: cubic-bezier(0,0,0.58,1)} 8% {stroke-dashoffset: 15} 32% {stroke-dashoffset: 15;animation-timing-function: cubic-bezier(0,0,0.58,1)} 40% {stroke-dashoffset: 0} 100% {stroke-dashoffset: 0}} #upload-u-check {animation: upload-u-check_s_do 5000ms linear infinite normal forwards}@keyframes upload-u-check_s_do { 0% {stroke-dashoffset: 24.36} 40% {stroke-dashoffset: 24.36} 50% {stroke-dashoffset: 48.72;animation-timing-function: step-start} 70% {stroke-dashoffset: 0} 80% {stroke-dashoffset: 24.36} 100% {stroke-dashoffset: 24.36}} #upload-u-arrows_to {animation: upload-u-arrows_to__to 5000ms linear infinite normal forwards}@keyframes upload-u-arrows_to__to { 0% {transform: translate(26.5px,179.335px)} 8% {transform: translate(26.5px,179.335px);animation-timing-function: cubic-bezier(0.42,0,0.58,1)} 32% {transform: translate(26.5px,-14.645px)} 100% {transform: translate(26.5px,-14.645px)}}
]]></style>
<g id="upload-u-upload" transform="translate(8.5-32.77)"><g id="upload-u-cloud"><path id="upload-u-cloud-right" d="M26.52,82.89l13.92.02c6.04,0,10.98-4.94,10.98-10.98v-.42c0-6.04-4.94-10.98-10.98-10.98h-2.79v-.86c0-6.18-5.01-11.19-11.19-11.19-5.17,0-9.53,3.51-10.81,8.28" fill="none" stroke="#000850" stroke-width="3" stroke-linecap="round" stroke-linejoin="round" stroke-dashoffset="169.38" stroke-dasharray="84.69"/><path id="upload-u-cloud-left" d="M20.1,63.95c-2.33-2.42-4.35-3.41-7.85-3.41l-.54.02C6.03,60.96,1.5,65.73,1.5,71.52v.42c0,5.72,4.49,10.94,10.03,10.94l14.84.02" fill="none" stroke="#000850" stroke-width="3" stroke-linecap="round" stroke-linejoin="round" stroke-dasharray="57.55"/></g><path id="upload-u-check" d="M17.26,1.5L6.36,13.8L1.5,7.54" transform="translate(17.12 63.12)" fill="none" stroke="#000850" stroke-width="3" stroke-linecap="round" stroke-linejoin="round" stroke-dashoffset="24.36" stroke-dasharray="24.36"/><g id="upload-u-mask-group" mask="url(#upload-u-masks)"><g id="upload-u-arrows_to" transform="translate(26.5,179.335)"><path id="upload-u-arrows" d="M9.27,21.14v-19.64M1.5,9.17L9.27,1.51m7.77,7.66L9.27,1.51m0,45.53v-19.64M1.5,35.06L9.27,27.4m7.77,7.66L9.27,27.4m0,45.54v-19.64M1.5,60.96L9.27,53.3m7.77,7.66L9.27,53.3m0,45.54v-19.64M1.5,86.86L9.27,79.2m7.77,7.66L9.27,79.2m0,45.53v-19.64M1.5,112.76l7.77-7.66m7.77,7.66L9.27,105.1m0,45.53v-19.64M1.5,138.65l7.77-7.66m7.77,7.66l-7.77-7.66" transform="translate(-9.27,-76.065)" fill="none" stroke="#000850" stroke-width="3" stroke-linecap="round"/></g><mask id="upload-u-masks" mask-type="alpha" x="-150%" y="-150%" height="400%" width="400%"><path id="upload-u-arrows-mask" d="M23.41,13.36c0-.43-.22-.76-.54-1.08L13.16,2.57c-.76-.76-2.05-.76-2.91,0L0.54,12.28c-.32.32-.54.76-.54,1.08v27.13h23.52v-27.13h-.11Z" transform="translate(14.74 62.28)" stroke-width="0"/></mask></g></g></svg>
