<svg width="950" viewBox="0 0 953 962" fill="none" xmlns="http://www.w3.org/2000/svg">
    <path d="M897.058 517.844c-20.479-20.436-20.479-53.228 0-73.663l44.767-37.545c9.049-7.604 12.859-19.485 10.478-30.891C894.2 116.737 636.549-46.2718 376.992 11.7081 117.436 69.6879-46.3938 326.795 11.7087 585.803 69.8112 844.812 327.462 1008.3 587.019 950.316c181.927-40.871 324.326-182.494 365.284-364.513 2.381-11.405-1.429-22.811-10.002-30.415l-45.243-37.544ZM487.006 845.762c-201.93 0-365.284-163.009-365.284-364.512 0-201.504 163.354-364.513 365.284-364.513 144.304 0 275.273 85.069 333.852 216.712 3.81 8.079 1.428 18.059-5.239 24.237l-47.149 39.445c-3.81 2.852-9.049 2.852-12.859 0l-113.823-93.623c-98.584-87.92-249.556-79.366-337.662 19.01-88.106 98.376-79.534 249.028 19.05 336.948 43.815 38.97 100.489 60.832 159.544 60.832 67.151 0 123.349-29.466 170.974-72.238l77.152-65.108c4.287-3.802 4.763-9.98.953-14.257-.476-.476-.953-.951-1.429-1.426l-74.771-62.257c-3.81-3.327-9.049-3.327-12.859 0l-96.679 80.316c-23.812 14.733-51.911 20.911-80.01 17.109-67.151-9.03-114.3-70.336-105.251-137.346 9.049-67.009 70.485-114.058 137.636-105.029 16.193 2.377 31.909 7.604 46.196 15.683 1.905 1.426 8.097 6.179 10.002 7.604L818 600.061c6.668 5.703 9.525 15.208 6.191 23.287-58.102 134.494-190.5 222.414-337.185 222.414Z" fill="#FEBE43"></path>
    <path d="M897.058 517.844c-20.479-20.436-20.479-53.228 0-73.663l44.767-37.545c9.049-7.604 12.859-19.485 10.478-30.891C894.2 116.737 636.549-46.2718 376.992 11.7081 117.436 69.6879-46.3938 326.795 11.7087 585.803 69.8112 844.812 327.462 1008.3 587.019 950.316c181.927-40.871 324.326-182.494 365.284-364.513 2.381-11.405-1.429-22.811-10.002-30.415l-45.243-37.544ZM487.006 845.762c-201.93 0-365.284-163.009-365.284-364.512 0-201.504 163.354-364.513 365.284-364.513 144.304 0 275.273 85.069 333.852 216.712 3.81 8.079 1.428 18.059-5.239 24.237l-47.149 39.445c-3.81 2.852-9.049 2.852-12.859 0l-113.823-93.623c-98.584-87.92-249.556-79.366-337.662 19.01-88.106 98.376-79.534 249.028 19.05 336.948 43.815 38.97 100.489 60.832 159.544 60.832 67.151 0 123.349-29.466 170.974-72.238l77.152-65.108c4.287-3.802 4.763-9.98.953-14.257-.476-.476-.953-.951-1.429-1.426l-74.771-62.257c-3.81-3.327-9.049-3.327-12.859 0l-96.679 80.316c-23.812 14.733-51.911 20.911-80.01 17.109-67.151-9.03-114.3-70.336-105.251-137.346 9.049-67.009 70.485-114.058 137.636-105.029 16.193 2.377 31.909 7.604 46.196 15.683 1.905 1.426 8.097 6.179 10.002 7.604L818 600.061c6.668 5.703 9.525 15.208 6.191 23.287-58.102 134.494-190.5 222.414-337.185 222.414Z" fill="url(#a)"></path>
    <defs>
    <linearGradient id="a" x1="495.5" y1=".0003213" x2=".0005755" y2="481" gradientUnits="userSpaceOnUse">
        <stop stop-color="#007E7F"></stop>
        <stop offset=".539931" stop-color="#FEBE43"></stop>
        <stop offset="1" stop-color="#A5CE39"></stop>
    </linearGradient>
    </defs>
</svg>