<svg xmlns="http://www.w3.org/2000/svg" width="158" height="158" viewBox="0 0 158 158"><defs><style>.a{fill:#bdc5d1;}</style></defs><circle class="a" cx="1.33" cy="1.33" r="1.33"/><circle class="a" cx="18.61" cy="1.33" r="1.33"/><circle class="a" cx="35.9" cy="1.33" r="1.33"/><circle class="a" cx="1.33" cy="18.61" r="1.33"/><circle class="a" cx="18.61" cy="18.61" r="1.33"/><circle class="a" cx="35.9" cy="18.61" r="1.33"/><circle class="a" cx="1.33" cy="35.9" r="1.33"/><circle class="a" cx="18.61" cy="35.9" r="1.33"/><circle class="a" cx="35.9" cy="35.9" r="1.33"/><circle class="a" cx="1.33" cy="53.11" r="1.33"/><circle class="a" cx="18.61" cy="53.11" r="1.33"/><circle class="a" cx="35.9" cy="53.11" r="1.33"/><circle class="a" cx="1.33" cy="70.39" r="1.33"/><circle class="a" cx="18.61" cy="70.39" r="1.33"/><circle class="a" cx="35.9" cy="70.39" r="1.33"/><circle class="a" cx="1.33" cy="87.68" r="1.33"/><circle class="a" cx="18.61" cy="87.68" r="1.33"/><circle class="a" cx="35.9" cy="87.68" r="1.33"/><circle class="a" cx="1.33" cy="104.89" r="1.33"/><circle class="a" cx="18.61" cy="104.89" r="1.33"/><circle class="a" cx="35.9" cy="104.89" r="1.33"/><circle class="a" cx="1.33" cy="122.17" r="1.33"/><circle class="a" cx="18.61" cy="122.17" r="1.33"/><circle class="a" cx="35.9" cy="122.17" r="1.33"/><circle class="a" cx="1.33" cy="139.46" r="1.33"/><circle class="a" cx="18.61" cy="139.46" r="1.33"/><circle class="a" cx="35.9" cy="139.46" r="1.33"/><circle class="a" cx="1.33" cy="156.67" r="1.33"/><circle class="a" cx="18.61" cy="156.67" r="1.33"/><circle class="a" cx="35.9" cy="156.67" r="1.33"/><circle class="a" cx="53.11" cy="1.33" r="1.33"/><circle class="a" cx="70.39" cy="1.33" r="1.33"/><circle class="a" cx="53.11" cy="18.61" r="1.33"/><circle class="a" cx="70.39" cy="18.61" r="1.33"/><circle class="a" cx="53.11" cy="35.9" r="1.33"/><circle class="a" cx="70.39" cy="35.9" r="1.33"/><circle class="a" cx="53.11" cy="53.11" r="1.33"/><circle class="a" cx="70.39" cy="53.11" r="1.33"/><circle class="a" cx="53.11" cy="70.39" r="1.33"/><circle class="a" cx="70.39" cy="70.39" r="1.33"/><circle class="a" cx="53.11" cy="87.68" r="1.33"/><circle class="a" cx="70.39" cy="87.68" r="1.33"/><circle class="a" cx="53.11" cy="104.89" r="1.33"/><circle class="a" cx="70.39" cy="104.89" r="1.33"/><circle class="a" cx="53.11" cy="122.17" r="1.33"/><circle class="a" cx="70.39" cy="122.17" r="1.33"/><circle class="a" cx="53.11" cy="139.46" r="1.33"/><circle class="a" cx="70.39" cy="139.46" r="1.33"/><circle class="a" cx="53.11" cy="156.67" r="1.33"/><circle class="a" cx="70.39" cy="156.67" r="1.33"/><circle class="a" cx="87.68" cy="1.33" r="1.33"/><circle class="a" cx="104.89" cy="1.33" r="1.33"/><circle class="a" cx="122.17" cy="1.33" r="1.33"/><circle class="a" cx="87.68" cy="18.61" r="1.33"/><circle class="a" cx="104.89" cy="18.61" r="1.33"/><circle class="a" cx="122.17" cy="18.61" r="1.33"/><circle class="a" cx="87.68" cy="35.9" r="1.33"/><circle class="a" cx="104.89" cy="35.9" r="1.33"/><circle class="a" cx="122.17" cy="35.9" r="1.33"/><circle class="a" cx="87.68" cy="53.11" r="1.33"/><circle class="a" cx="104.89" cy="53.11" r="1.33"/><circle class="a" cx="122.17" cy="53.11" r="1.33"/><circle class="a" cx="87.68" cy="70.39" r="1.33"/><circle class="a" cx="104.89" cy="70.39" r="1.33"/><circle class="a" cx="122.17" cy="70.39" r="1.33"/><circle class="a" cx="87.68" cy="87.68" r="1.33"/><circle class="a" cx="104.89" cy="87.68" r="1.33"/><circle class="a" cx="122.17" cy="87.68" r="1.33"/><circle class="a" cx="87.68" cy="104.89" r="1.33"/><circle class="a" cx="104.89" cy="104.89" r="1.33"/><circle class="a" cx="122.17" cy="104.89" r="1.33"/><circle class="a" cx="87.68" cy="122.17" r="1.33"/><circle class="a" cx="104.89" cy="122.17" r="1.33"/><circle class="a" cx="122.17" cy="122.17" r="1.33"/><circle class="a" cx="87.68" cy="139.46" r="1.33"/><circle class="a" cx="104.89" cy="139.46" r="1.33"/><circle class="a" cx="122.17" cy="139.46" r="1.33"/><circle class="a" cx="87.68" cy="156.67" r="1.33"/><circle class="a" cx="104.89" cy="156.67" r="1.33"/><circle class="a" cx="122.17" cy="156.67" r="1.33"/><circle class="a" cx="139.46" cy="1.33" r="1.33"/><circle class="a" cx="156.67" cy="1.33" r="1.33"/><circle class="a" cx="139.46" cy="18.61" r="1.33"/><circle class="a" cx="156.67" cy="18.61" r="1.33"/><circle class="a" cx="139.46" cy="35.9" r="1.33"/><circle class="a" cx="156.67" cy="35.9" r="1.33"/><circle class="a" cx="139.46" cy="53.11" r="1.33"/><circle class="a" cx="156.67" cy="53.11" r="1.33"/><circle class="a" cx="139.46" cy="70.39" r="1.33"/><circle class="a" cx="156.67" cy="70.39" r="1.33"/><circle class="a" cx="139.46" cy="87.68" r="1.33"/><circle class="a" cx="156.67" cy="87.68" r="1.33"/><circle class="a" cx="139.46" cy="104.89" r="1.33"/><circle class="a" cx="156.67" cy="104.89" r="1.33"/><circle class="a" cx="139.46" cy="122.17" r="1.33"/><circle class="a" cx="156.67" cy="122.17" r="1.33"/><circle class="a" cx="139.46" cy="139.46" r="1.33"/><circle class="a" cx="156.67" cy="139.46" r="1.33"/><circle class="a" cx="139.46" cy="156.67" r="1.33"/><circle class="a" cx="156.67" cy="156.67" r="1.33"/></svg>