<svg width="55" height="54" viewBox="0 0 55 54" fill="none" xmlns="http://www.w3.org/2000/svg">
<rect x="0.5" width="54" height="54" rx="27" fill="#E41C1C"/>
<path d="M27.5 12C24.5333 12 21.6332 12.8797 19.1665 14.528C16.6997 16.1762 14.7771 18.5189 13.6418 21.2597C12.5065 24.0006 12.2094 27.0166 12.7882 29.9264C13.367 32.8361 14.7956 35.5088 16.8934 37.6066C18.9912 39.7044 21.6639 41.133 24.5737 41.7118C27.4834 42.2906 30.4994 41.9935 33.2403 40.8582C35.9811 39.7229 38.3238 37.8003 39.972 35.3336C41.6203 32.8668 42.5 29.9667 42.5 27C42.5 25.0302 42.112 23.0796 41.3582 21.2597C40.6044 19.4399 39.4995 17.7863 38.1066 16.3934C36.7137 15.0005 35.0601 13.8956 33.2403 13.1418C31.4204 12.388 29.4698 12 27.5 12V12ZM27.5 34.5C27.2033 34.5 26.9133 34.412 26.6666 34.2472C26.42 34.0824 26.2277 33.8481 26.1142 33.574C26.0007 33.2999 25.9709 32.9983 26.0288 32.7074C26.0867 32.4164 26.2296 32.1491 26.4393 31.9393C26.6491 31.7296 26.9164 31.5867 27.2074 31.5288C27.4983 31.4709 27.7999 31.5006 28.074 31.6142C28.3481 31.7277 28.5824 31.92 28.7472 32.1666C28.912 32.4133 29 32.7033 29 33C29 33.3978 28.842 33.7794 28.5607 34.0607C28.2794 34.342 27.8978 34.5 27.5 34.5ZM29 28.5C29 28.8978 28.842 29.2794 28.5607 29.5607C28.2794 29.842 27.8978 30 27.5 30C27.1022 30 26.7206 29.842 26.4393 29.5607C26.158 29.2794 26 28.8978 26 28.5V21C26 20.6022 26.158 20.2206 26.4393 19.9393C26.7206 19.658 27.1022 19.5 27.5 19.5C27.8978 19.5 28.2794 19.658 28.5607 19.9393C28.842 20.2206 29 20.6022 29 21V28.5Z" fill="white"/>
</svg>
