<svg id="eGKA37ohxV21" xmlns="http://www.w3.org/2000/svg" xmlns:xlink="http://www.w3.org/1999/xlink" viewBox="0 0 70 70" shape-rendering="geometricPrecision" text-rendering="geometricPrecision" project-id="6eb601f74f3c49dda55c2dcc9fd1fa14" export-id="8ec292bd96e143e2b23ad03ac9843827" cached="false">
<style><![CDATA[
#eGKA37ohxV219 {animation: eGKA37ohxV219__m 900ms linear infinite normal forwards}@keyframes eGKA37ohxV219__m { 0% {d: path('M44.34,20.83C44.41,23.18,42.790326,23.935,41.13,22.83C39.469674,21.725,39.519326,19.577007,40.6495,13.51C41.779674,7.442993,31.92,3.48,31.92,3.48C31.92,3.48,34.19,9.65,30.41,13.51C27.11,16.88,21.24,21.41,21.24,27.52C21.24,29.03,20.79,36.26,32.06,39.97')} 33.333333% {d: path('M44.326159,22.83C41.456571,24.032795,39.989854,19.728414,42.974764,16.320779C45.959674,12.913144,42.891365,9.864207,39.932103,8.608762C36.972841,7.353317,36.730001,2.690238,36.730001,2.690238C36.730001,2.690238,26.7,5.82885,27.826031,15.872406C28.456542,21.496207,21.638483,20.266462,21.06563,28.593762C20.961999,30.100202,20.79,36.26,32.06,39.97')} 66.666667% {d: path('M43.801201,21.880605C41.918034,20.93121,41.904944,18.921343,42.974764,16.320779C44.044584,13.720215,39.752755,10.671279,38.407635,8.608762C37.062517,6.546245,36.521791,2.241865,36.521791,2.241865C36.521791,2.241865,30.695618,7.891366,27.434674,12.464771C24.149279,17.072468,21.140896,20.714835,21.155304,26.095311C21.159348,27.605307,21.638483,36.497566,32.06,39.97')} 100% {d: path('M44.34,20.83C44.41,23.18,42.790326,23.935,41.13,22.83C39.469674,21.725,39.519326,19.577007,40.6495,13.51C41.779674,7.442993,31.92,3.48,31.92,3.48C31.92,3.48,34.19,9.65,30.41,13.51C27.11,16.88,21.24,21.41,21.24,27.52C21.24,29.03,20.79,36.26,32.06,39.97')}} #eGKA37ohxV220 {animation: eGKA37ohxV220__m 900ms linear infinite normal forwards}@keyframes eGKA37ohxV220__m { 0% {d: path('M36.73,39.96C43.962306,37.923087,47.142057,34.282692,48.254967,30.465708C50.218126,23.732597,45.75,16.45,45.75,16.45')} 33.333333% {d: path('M36.73,39.96C47.016398,39.580287,44.107221,34.259652,47.016398,32.3C53.698111,27.799129,47.46,20.266462,47.46,20.266462')} 66.666667% {d: path('M36.73,39.96C44.595183,39.580287,47.755566,35,48.921336,32.282859C51.312757,26.709007,46.657699,18.652319,46.657699,18.652319')} 100% {d: path('M36.73,39.96C43.962306,37.923087,47.142057,34.282692,48.254967,30.465708C50.218126,23.732597,45.75,16.45,45.75,16.45')}} #eGKA37ohxV221 {animation: eGKA37ohxV221__m 900ms linear infinite normal forwards}@keyframes eGKA37ohxV221__m { 0% {d: path('M33.11,22.83C34.11,20.48,36.08,18.61,36.08,18.61C34.99,23.76,38.38,26.28,38.38,26.28C41.48,28.89,41.84,30.78,41.69,32.74C41.54,34.69,40.93,37.41,36.74,39.97')} 33.333333% {d: path('M33.11,22.83C34.461952,21.252882,35.720001,17.217525,35.720001,17.217525C36.37,22.960325,37.869588,24.391494,39.38,26.992057C40.890412,29.59262,40.7995,30.933143,40.6495,32.893143C40.4995,34.843143,38.856008,36.945939,36.74,39.97')} 66.666667% {d: path('M33.206508,23.853446C32.156509,21.289908,35.070001,15.334358,35.070001,15.334358C35.72,21.077158,36.807549,22.328978,38.317961,24.929541C39.828373,27.530104,39.992429,29.426113,39.842429,31.386113C39.692429,33.336113,38.317961,36.049193,36.74,39.97')} 100% {d: path('M33.11,22.83C34.11,20.48,36.08,18.61,36.08,18.61C34.99,23.76,38.38,26.28,38.38,26.28C41.48,28.89,41.84,30.78,41.69,32.74C41.54,34.69,40.93,37.41,36.74,39.97')}} #eGKA37ohxV222 {animation: eGKA37ohxV222__m 900ms linear infinite normal forwards}@keyframes eGKA37ohxV222__m { 0% {d: path('M33.88,32.3C34.13,27.62,29.42,23.81,29.42,23.81C29.42,23.81,31.3,26.76,28.87,29.62C28.87,29.62,26.75,32.25,28.05,35.14C28.05,35.14,29.26,38.28,32.06,39.96')} 33.333333% {d: path('M33.88,32.3C31.92,29.77197,30.964643,25.826287,30.964643,25.826287C30.964643,25.826287,27.826031,27.878698,27.826031,30.758391C27.826031,33.638084,28.421627,34.372278,28.991801,35.60082C29.561975,36.829362,30.41,38.291058,32.06,39.96')} 66.666667% {d: path('M34.282603,33.538304C35.070001,29.502946,31.50269,26.992057,31.50269,26.992057C31.50269,26.992057,28.902127,28.50642,28.902127,31.386113C28.902127,34.265806,29.587397,35.269024,30.157571,36.497566C30.727745,37.726108,31.50269,38.649757,32.06,39.96')} 100% {d: path('M33.88,32.3C34.13,27.62,29.42,23.81,29.42,23.81C29.42,23.81,31.3,26.76,28.87,29.62C28.87,29.62,26.75,32.25,28.05,35.14C28.05,35.14,29.26,38.28,32.06,39.96')}}
]]></style>
<g><path d="M26.29,53.49l-6.93-4.24c-1.68-1.03-2.22-3.25-1.19-4.93l1.03-1.67c1.03-1.68,3.25-2.22,4.93-1.19l10.8,6.61" fill="none" stroke="#000850" stroke-width="3" stroke-linecap="round" stroke-linejoin="round"/><path d="M43.82,53.5l6.82,4.18c1.68,1.03,2.22,3.25,1.19,4.93L50.8,64.29c-1.03,1.68-3.25,2.22-4.93,1.19l-10.8-6.61" fill="none" stroke="#000850" stroke-width="3" stroke-linecap="round" stroke-linejoin="round"/><line x1="26.7" y1="48.39" x2="18.97" y2="43.65" fill="none" stroke="#000850" stroke-width="3" stroke-linecap="round" stroke-linejoin="round"/><line x1="47.46" y1="61.09" x2="43.63" y2="58.74" fill="none" stroke="#000850" stroke-width="3" stroke-linecap="round" stroke-linejoin="round"/><path d="M19.46,48.89h31.08c1.98,0,3.59,1.61,3.59,3.59v1.97c0,1.98-1.61,3.59-3.59,3.59h-31.08c-1.98,0-3.59-1.61-3.59-3.59v-1.97c0-1.98,1.61-3.59,3.59-3.59Z" transform="matrix(.852914-.522052 0.522052 0.852914-22.77 26.14)" fill="none" stroke="#000850" stroke-width="3" stroke-linecap="round" stroke-linejoin="round"/><line x1="47.46" y1="45.84" x2="39.38" y2="50.79" fill="none" stroke="#000850" stroke-width="3" stroke-linecap="round" stroke-linejoin="round"/><line x1="35.72" y1="53.02" x2="18.97" y2="63.27" fill="none" stroke="#000850" stroke-width="3" stroke-linecap="round" stroke-linejoin="round"/></g><path id="eGKA37ohxV219" d="M44.34,20.83c.07,2.35-1.549674,3.105-3.21,2s-1.610674-3.252993-.4805-9.32-8.7295-10.03-8.7295-10.03s2.27,6.17-1.51,10.03c-3.3,3.37-9.17,7.9-9.17,14.01c0,1.51-.45,8.74,10.82,12.45" transform="translate(-.089674 0)" fill="none" stroke="#000850" stroke-width="3" stroke-linecap="round" stroke-linejoin="round"/><path id="eGKA37ohxV220" d="M36.73,39.96c7.232306-2.036913,10.412057-5.677308,11.524967-9.494292C50.218126,23.732597,45.75,16.45,45.75,16.45" fill="none" stroke="#000850" stroke-width="3" stroke-linecap="round" stroke-linejoin="round"/><path id="eGKA37ohxV221" d="M33.11,22.83c1-2.35,2.97-4.22,2.97-4.22-1.09,5.15,2.3,7.67,2.3,7.67c3.1,2.61,3.46,4.5,3.31,6.46-.15,1.95-.76,4.67-4.95,7.23" fill="none" stroke="#000850" stroke-width="3" stroke-linecap="round" stroke-linejoin="round"/><path id="eGKA37ohxV222" d="M33.88,32.3c.25-4.68-4.46-8.49-4.46-8.49s1.88,2.95-.55,5.81c0,0-2.12,2.63-.82,5.52c0,0,1.21,3.14,4.01,4.82" fill="none" stroke="#000850" stroke-width="3" stroke-linecap="round" stroke-linejoin="round"/></svg>
