<svg id="eEd0oGpWVf91" xmlns="http://www.w3.org/2000/svg" xmlns:xlink="http://www.w3.org/1999/xlink" viewBox="0 0 70 70" shape-rendering="geometricPrecision" text-rendering="geometricPrecision" project-id="de9fab1d75f54d94a8f2fbd817739474" export-id="db437a1932f44d328ff8243ec78b08e5" cached="false">
<style><![CDATA[
#eEd0oGpWVf911 {animation-name: eEd0oGpWVf911_c_o, eEd0oGpWVf911_s_do;animation-duration: 6000ms;animation-fill-mode: forwards;animation-timing-function: linear;animation-direction: normal;animation-iteration-count: infinite;}@keyframes eEd0oGpWVf911_c_o { 0% {opacity: 1} 66.666667% {opacity: 1} 76.666667% {opacity: 0} 100% {opacity: 0}}@keyframes eEd0oGpWVf911_s_do { 0% {stroke-dashoffset: 137.28} 7% {stroke-dashoffset: 137.28;animation-timing-function: cubic-bezier(0.39,0.575,0.565,1)} 11% {stroke-dashoffset: 141.386667} 44.5% {stroke-dashoffset: 270.643137;animation-timing-function: cubic-bezier(0.47,0,0.745,0.715)} 44.833333% {stroke-dashoffset: 274.56} 100% {stroke-dashoffset: 274.56}} #eEd0oGpWVf912_to {animation: eEd0oGpWVf912_to__to 6000ms linear infinite normal forwards}@keyframes eEd0oGpWVf912_to__to { 0% {offset-distance: 0%;animation-timing-function: cubic-bezier(0.39,0.575,0.565,1)} 11% {offset-distance: 21.657854%} 14.666667% {offset-distance: 27.907234%} 19% {offset-distance: 35.298832%} 23.333333% {offset-distance: 42.353454%} 27.333333% {offset-distance: 49.180508%} 29.5% {offset-distance: 52.672809%} 31.333333% {offset-distance: 55.823757%} 33.5% {offset-distance: 59.543626%} 37.666667% {offset-distance: 66.510722%} 44.5% {offset-distance: 77.902273%} 44.833333% {offset-distance: 79.619271%;animation-timing-function: cubic-bezier(0.39,0.575,0.565,1)} 50% {offset-distance: 100%} 100% {offset-distance: 100%}} #eEd0oGpWVf912_tr {animation: eEd0oGpWVf912_tr__tr 6000ms linear infinite normal forwards}@keyframes eEd0oGpWVf912_tr__tr { 0% {transform: rotate(0deg)} 23.333333% {transform: rotate(0deg)} 26.666667% {transform: rotate(89.999999deg)} 100% {transform: rotate(89.999999deg)}} #eEd0oGpWVf915_ts {animation: eEd0oGpWVf915_ts__ts 6000ms linear infinite normal forwards}@keyframes eEd0oGpWVf915_ts__ts { 0% {transform: translate(53.970001px,15.77px) scale(0,0)} 48.333333% {transform: translate(53.970001px,15.77px) scale(0,0);animation-timing-function: cubic-bezier(0.215,0.61,0.33,1.42)} 53.333333% {transform: translate(53.970001px,15.77px) scale(1.1,1.1)} 58.333333% {transform: translate(53.970001px,15.77px) scale(1,1)} 66.666667% {transform: translate(53.970001px,15.77px) scale(1,1)} 71.666667% {transform: translate(53.970001px,15.77px) scale(1.1,1.1)} 76.666667% {transform: translate(53.970001px,15.77px) scale(0,0)} 100% {transform: translate(53.970001px,15.77px) scale(0,0)}} #eEd0oGpWVf917 {animation: eEd0oGpWVf917_s_do 6000ms linear infinite normal forwards}@keyframes eEd0oGpWVf917_s_do { 0% {stroke-dashoffset: 14.03} 51.666667% {stroke-dashoffset: 14.03} 55% {stroke-dashoffset: 0} 100% {stroke-dashoffset: 0}}
]]></style>
<g><path d="M23.49,60h-8.44C12.27,60,10,57.73,10,54.95v-39.9C10,12.27,12.27,10,15.05,10h20.37" fill="none" stroke="#000850" stroke-width="3" stroke-linecap="round" stroke-linejoin="round"/><path d="M46.39,10h8.56C57.73,10,60,12.27,60,15.05v39.9C60,57.73,57.73,60,54.95,60h-20.54" fill="none" stroke="#000850" stroke-width="3" stroke-linecap="round" stroke-linejoin="round"/><line x1="43.44" y1="26.71" x2="50.38" y2="26.71" fill="none" stroke="#000850" stroke-width="3" stroke-linecap="round" stroke-linejoin="round"/><polyline points="59.64,34.99 43.28,34.99 43.28,51.48" fill="none" stroke="#000850" stroke-width="3" stroke-linecap="round" stroke-linejoin="round"/><polyline points="18.38,25.39 18.38,18.43 51.66,18.43 51.66,10.55" fill="none" stroke="#000850" stroke-width="3" stroke-linecap="round" stroke-linejoin="round"/><polyline points="34.98,18.52 34.98,43.3 19.64,43.3" fill="none" stroke="#000850" stroke-width="3" stroke-linecap="round" stroke-linejoin="round"/><polyline points="10.44,34.95 26.67,34.95 26.67,27.97" fill="none" stroke="#000850" stroke-width="3" stroke-linecap="round" stroke-linejoin="round"/><polyline points="19.64,51.55 51.62,51.55 51.62,44.44" fill="none" stroke="#000850" stroke-width="3" stroke-linecap="round" stroke-linejoin="round"/></g><polyline id="eEd0oGpWVf911" points="40.44,10.55 40.44,14.29 14.41,14.29 14.41,30.21 22.91,30.21 22.91,23.01 30.89,23.01 30.89,38.61 14.77,38.61 14.77,55.5 29.05,55.5 29.05,60.52" fill="none" stroke="#000850" stroke-width="3" stroke-linecap="round" stroke-linejoin="round" stroke-dashoffset="137.28" stroke-dasharray="137.28"/><g id="eEd0oGpWVf912_to" style="offset-path:path('M49.05,97.52C36.823892,91.950235,25.687492,71.849354,29.05,55.5L14.77,55.5L14.77,38.61L30.89,38.61L30.89,23.01L22.91,23.01L22.91,30.21L14.41,30.21L14.41,14.29L40.44,14.29L40.44,10.366615C28.987242,3.357041,17.083086,-15.076663,20.44,-29');offset-rotate:0deg"><g id="eEd0oGpWVf912_tr" transform="rotate(0)"><g transform="translate(-29.97,-60)"><path d="M36.91,57.87L29.97,60l2.21-6.87l16.3-16.37c1.01-1.02,2.66-1.02,3.68,0l1.06,1.06c1.01,1.02,1.01,2.67,0,3.69L36.92,57.88l-.01-.01Z" fill="#fff" stroke="#000850" stroke-width="3" stroke-linecap="round" stroke-linejoin="round"/><line x1="50.8" y1="43.93" x2="46.07" y2="39.18" fill="none" stroke="#000850" stroke-width="3" stroke-linecap="round" stroke-linejoin="round"/></g></g></g><g id="eEd0oGpWVf915_ts" transform="translate(53.970001,15.77) scale(0,0)"><g transform="translate(-53.970001,-15.77)"><path d="M64.97,15.77c0,6.08-4.93,11-11,11s-11-4.92-11-11s4.93-11,11-11s11,4.92,11,11Z" fill="#fff" stroke="#000850" stroke-width="3" stroke-linecap="round" stroke-linejoin="round"/><polyline id="eEd0oGpWVf917" points="49.41,15.68 53.02,19.12 59.07,12.41" fill="none" stroke="#000850" stroke-width="3" stroke-linecap="round" stroke-linejoin="round" stroke-dashoffset="14.03" stroke-dasharray="14.03"/></g></g></svg>
