<?xml version="1.0" encoding="UTF-8"?><svg id="Layer_1" xmlns="http://www.w3.org/2000/svg" width="19.5" height="16.51" viewBox="0 0 19.5 16.51"><defs><style>.cls-1,.cls-2{fill:none;stroke:#0d6efd;stroke-linecap:round;stroke-linejoin:round;stroke-width:1.5px;}.cls-2{fill-rule:evenodd;}</style></defs><path class="cls-2" d="M6.86,3.55C8.21.99,11.39,0,13.95,1.36c2.07,1.09,3.16,3.41,2.69,5.7,2.18,1.46,2.76,4.41,1.3,6.59-.88,1.32-2.36,2.11-3.95,2.11H4.5c-2.07,0-3.75-1.68-3.75-3.75,0-1.28.65-2.47,1.73-3.16-.74-2.08.35-4.37,2.43-5.11.62-.22,1.29-.29,1.95-.18"/><line class="cls-1" x1="9.75" y1="5.73" x2="9.75" y2="12.73"/><line class="cls-1" x1="6.92" y1="9.9" x2="9.75" y2="12.73"/><line class="cls-1" x1="12.58" y1="9.9" x2="9.75" y2="12.73"/></svg>