<?xml version="1.0" encoding="UTF-8"?><svg id="Layer_1" xmlns="http://www.w3.org/2000/svg" width="6370" height="70" xmlns:xlink="http://www.w3.org/1999/xlink" viewBox="0 0 6370 70"><defs><style>.cls-1{stroke-dasharray:0 0 0 0 0 0 22.94 .26;}.cls-1,.cls-2,.cls-3,.cls-4,.cls-5,.cls-6,.cls-7,.cls-8,.cls-9,.cls-10,.cls-11,.cls-12,.cls-13,.cls-14,.cls-15,.cls-16,.cls-17,.cls-18,.cls-19,.cls-20,.cls-21,.cls-22,.cls-23,.cls-24{fill:none;}.cls-1,.cls-2,.cls-3,.cls-4,.cls-5,.cls-6,.cls-8,.cls-9,.cls-10,.cls-11,.cls-12,.cls-13,.cls-14,.cls-15,.cls-16,.cls-17,.cls-18,.cls-19,.cls-20,.cls-21,.cls-22,.cls-23,.cls-24{stroke:#ffffff;stroke-miterlimit:10;}.cls-1,.cls-2,.cls-3,.cls-4,.cls-5,.cls-6,.cls-8,.cls-9,.cls-10,.cls-12,.cls-13,.cls-14,.cls-15,.cls-16,.cls-17,.cls-18,.cls-19,.cls-20,.cls-21,.cls-22,.cls-23,.cls-24{stroke-width:2px;}.cls-1,.cls-2,.cls-3,.cls-4,.cls-5,.cls-6,.cls-8,.cls-9,.cls-10,.cls-12,.cls-13,.cls-14,.cls-15,.cls-16,.cls-17,.cls-18,.cls-19,.cls-20,.cls-21,.cls-22,.cls-24{stroke-dashoffset:23.2px;}.cls-2{stroke-dasharray:0 0 0 0 0 0 17.32 5.88;}.cls-3{stroke-dasharray:0 0 0 0 0 0 19.82 3.38;}.cls-4{stroke-dasharray:0 0 0 0 0 0 1.38 21.82;}.cls-5{stroke-dasharray:0 0 0 0 0 0 13.38 9.82;}.cls-6{stroke-dasharray:0 0 0 0 0 0 23.09 .11;}.cls-25{clip-path:url(#clippath);}.cls-7,.cls-26{stroke-width:0px;}.cls-8{stroke-dasharray:0 0 0 0 0 0 21.95 1.25;}.cls-9{stroke-dasharray:0 0 0 0 0 0 23.18 .02;}.cls-10{stroke-dasharray:0 0 0 0 0 0 18.71 4.49;}.cls-11{stroke-linecap:round;stroke-width:3px;}.cls-12{stroke-dasharray:0 0 0 0 0 0 20.7 2.5;}.cls-13{stroke-dasharray:0 0 0 0 0 0 15.57 7.63;}.cls-14{stroke-dasharray:0 0 0 0 0 0 2.78 20.42;}.cls-15{stroke-dasharray:0 0 0 0 0 0 .12 23.08;}.cls-16{stroke-dasharray:0 0 0 0 0 0 22.38 .82;}.cls-27{clip-path:url(#clippath-1);}.cls-28{clip-path:url(#clippath-4);}.cls-29{clip-path:url(#clippath-3);}.cls-30{clip-path:url(#clippath-2);}.cls-31{clip-path:url(#clippath-7);}.cls-32{clip-path:url(#clippath-8);}.cls-33{clip-path:url(#clippath-6);}.cls-34{clip-path:url(#clippath-5);}.cls-35{clip-path:url(#clippath-9);}.cls-36{clip-path:url(#clippath-20);}.cls-37{clip-path:url(#clippath-21);}.cls-38{clip-path:url(#clippath-24);}.cls-39{clip-path:url(#clippath-23);}.cls-40{clip-path:url(#clippath-22);}.cls-41{clip-path:url(#clippath-25);}.cls-42{clip-path:url(#clippath-44);}.cls-43{clip-path:url(#clippath-45);}.cls-44{clip-path:url(#clippath-40);}.cls-45{clip-path:url(#clippath-42);}.cls-46{clip-path:url(#clippath-41);}.cls-47{clip-path:url(#clippath-47);}.cls-48{clip-path:url(#clippath-43);}.cls-49{clip-path:url(#clippath-46);}.cls-50{clip-path:url(#clippath-49);}.cls-51{clip-path:url(#clippath-84);}.cls-52{clip-path:url(#clippath-88);}.cls-53{clip-path:url(#clippath-86);}.cls-54{clip-path:url(#clippath-81);}.cls-55{clip-path:url(#clippath-83);}.cls-56{clip-path:url(#clippath-85);}.cls-57{clip-path:url(#clippath-80);}.cls-58{clip-path:url(#clippath-87);}.cls-59{clip-path:url(#clippath-82);}.cls-60{clip-path:url(#clippath-98);}.cls-61{clip-path:url(#clippath-89);}.cls-62{clip-path:url(#clippath-27);}.cls-63{clip-path:url(#clippath-28);}.cls-64{clip-path:url(#clippath-26);}.cls-65{clip-path:url(#clippath-29);}.cls-66{clip-path:url(#clippath-34);}.cls-67{clip-path:url(#clippath-35);}.cls-68{clip-path:url(#clippath-36);}.cls-69{clip-path:url(#clippath-37);}.cls-70{clip-path:url(#clippath-39);}.cls-71{clip-path:url(#clippath-33);}.cls-72{clip-path:url(#clippath-32);}.cls-73{clip-path:url(#clippath-30);}.cls-74{clip-path:url(#clippath-38);}.cls-75{clip-path:url(#clippath-31);}.cls-76{clip-path:url(#clippath-95);}.cls-77{clip-path:url(#clippath-99);}.cls-78{clip-path:url(#clippath-93);}.cls-79{clip-path:url(#clippath-94);}.cls-80{clip-path:url(#clippath-91);}.cls-81{clip-path:url(#clippath-96);}.cls-82{clip-path:url(#clippath-90);}.cls-83{clip-path:url(#clippath-92);}.cls-84{clip-path:url(#clippath-97);}.cls-85{clip-path:url(#clippath-53);}.cls-86{clip-path:url(#clippath-51);}.cls-87{clip-path:url(#clippath-55);}.cls-88{clip-path:url(#clippath-57);}.cls-89{clip-path:url(#clippath-79);}.cls-90{clip-path:url(#clippath-61);}.cls-91{clip-path:url(#clippath-64);}.cls-92{clip-path:url(#clippath-68);}.cls-93{clip-path:url(#clippath-67);}.cls-94{clip-path:url(#clippath-73);}.cls-95{clip-path:url(#clippath-59);}.cls-96{clip-path:url(#clippath-65);}.cls-97{clip-path:url(#clippath-63);}.cls-98{clip-path:url(#clippath-66);}.cls-99{clip-path:url(#clippath-70);}.cls-100{clip-path:url(#clippath-75);}.cls-101{clip-path:url(#clippath-72);}.cls-102{clip-path:url(#clippath-78);}.cls-103{clip-path:url(#clippath-71);}.cls-104{clip-path:url(#clippath-77);}.cls-105{clip-path:url(#clippath-74);}.cls-106{clip-path:url(#clippath-76);}.cls-107{clip-path:url(#clippath-14);}.cls-108{clip-path:url(#clippath-13);}.cls-109{clip-path:url(#clippath-12);}.cls-110{clip-path:url(#clippath-10);}.cls-111{clip-path:url(#clippath-15);}.cls-112{clip-path:url(#clippath-17);}.cls-113{clip-path:url(#clippath-16);}.cls-114{clip-path:url(#clippath-19);}.cls-115{clip-path:url(#clippath-11);}.cls-116{clip-path:url(#clippath-18);}.cls-17{stroke-dasharray:0 0 0 0 0 0 0 23.2;}.cls-18{stroke-dasharray:0 0 0 0 0 0 4.9 18.3;}.cls-19{stroke-dasharray:0 0 0 0 0 0 21.4 1.8;}.cls-26{fill:#ffffff;}.cls-20{stroke-dasharray:0 0 0 0 0 0 22.7 .5;}.cls-21{stroke-dasharray:0 0 0 0 0 0 7.7 15.5;}.cls-22{stroke-dasharray:0 0 0 0 0 0 .54 22.66;}.cls-24{stroke-dasharray:0 0 0 0 0 0 10.7 12.5;}.cls-117{clip-path:url(#clippath-113);}.cls-118{clip-path:url(#clippath-112);}.cls-119{clip-path:url(#clippath-111);}.cls-120{clip-path:url(#clippath-110);}.cls-121{clip-path:url(#clippath-115);}.cls-122{clip-path:url(#clippath-114);}.cls-123{clip-path:url(#clippath-116);}.cls-124{clip-path:url(#clippath-117);}.cls-125{clip-path:url(#clippath-118);}.cls-126{clip-path:url(#clippath-119);}.cls-127{clip-path:url(#clippath-105);}.cls-128{clip-path:url(#clippath-100);}.cls-129{clip-path:url(#clippath-102);}.cls-130{clip-path:url(#clippath-103);}.cls-131{clip-path:url(#clippath-107);}.cls-132{clip-path:url(#clippath-109);}.cls-133{clip-path:url(#clippath-104);}.cls-134{clip-path:url(#clippath-101);}.cls-135{clip-path:url(#clippath-108);}.cls-136{clip-path:url(#clippath-106);}.cls-137{clip-path:url(#clippath-130);}.cls-138{clip-path:url(#clippath-129);}.cls-139{clip-path:url(#clippath-122);}.cls-140{clip-path:url(#clippath-126);}.cls-141{clip-path:url(#clippath-125);}.cls-142{clip-path:url(#clippath-120);}.cls-143{clip-path:url(#clippath-121);}.cls-144{clip-path:url(#clippath-123);}.cls-145{clip-path:url(#clippath-124);}.cls-146{clip-path:url(#clippath-127);}.cls-147{clip-path:url(#clippath-128);}</style><clipPath id="clippath"><path class="cls-7" d="M26,17.8v.6c0,3.1,1.5,5.9,4,7.7l5,3.6,5-3.6c2.5-1.8,4-4.7,4-7.7v-.6s-18,0-18,0ZM26,52.2v-.6c0-3.1,1.5-5.9,4-7.7l5-3.6,5,3.6c2.5,1.8,4,4.7,4,7.7v.6h-18Z"/></clipPath><clipPath id="clippath-1"><path class="cls-7" d="M96,17.8v.6c0,3.1,1.5,5.9,4,7.7l5,3.6,5-3.6c2.5-1.8,4-4.7,4-7.7v-.6s-18,0-18,0ZM96,52.2v-.6c0-3.1,1.5-5.9,4-7.7l5-3.6,5,3.6c2.5,1.8,4,4.7,4,7.7v.6h-18Z"/></clipPath><clipPath id="clippath-2"><path class="cls-7" d="M166,17.8v.6c0,3.1,1.5,5.9,4,7.7l5,3.6,5-3.6c2.5-1.8,4-4.7,4-7.7v-.6s-18,0-18,0ZM166,52.2v-.6c0-3.1,1.5-5.9,4-7.7l5-3.6,5,3.6c2.5,1.8,4,4.7,4,7.7v.6h-18Z"/></clipPath><clipPath id="clippath-3"><path class="cls-7" d="M236,17.8v.6c0,3.1,1.5,5.9,4,7.7l5,3.6,5-3.6c2.5-1.8,4-4.7,4-7.7v-.6s-18,0-18,0ZM236,52.2v-.6c0-3.1,1.5-5.9,4-7.7l5-3.6,5,3.6c2.5,1.8,4,4.7,4,7.7v.6h-18Z"/></clipPath><clipPath id="clippath-4"><path class="cls-7" d="M306,17.8v.6c0,3.1,1.5,5.9,4,7.7l5,3.6,5-3.6c2.5-1.8,4-4.7,4-7.7v-.6s-18,0-18,0ZM306,52.2v-.6c0-3.1,1.5-5.9,4-7.7l5-3.6,5,3.6c2.5,1.8,4,4.7,4,7.7v.6h-18Z"/></clipPath><clipPath id="clippath-5"><path class="cls-7" d="M376,17.8v.6c0,3.1,1.5,5.9,4,7.7l5,3.6,5-3.6c2.5-1.8,4-4.7,4-7.7v-.6s-18,0-18,0ZM376,52.2v-.6c0-3.1,1.5-5.9,4-7.7l5-3.6,5,3.6c2.5,1.8,4,4.7,4,7.7v.6h-18Z"/></clipPath><clipPath id="clippath-6"><path class="cls-7" d="M446,17.8v.6c0,3.1,1.5,5.9,4,7.7l5,3.6,5-3.6c2.5-1.8,4-4.7,4-7.7v-.6s-18,0-18,0ZM446,52.2v-.6c0-3.1,1.5-5.9,4-7.7l5-3.6,5,3.6c2.5,1.8,4,4.7,4,7.7v.6h-18Z"/></clipPath><clipPath id="clippath-7"><path class="cls-7" d="M516,17.8v.6c0,3.1,1.5,5.9,4,7.7l5,3.6,5-3.6c2.5-1.8,4-4.7,4-7.7v-.6s-18,0-18,0ZM516,52.2v-.6c0-3.1,1.5-5.9,4-7.7l5-3.6,5,3.6c2.5,1.8,4,4.7,4,7.7v.6h-18Z"/></clipPath><clipPath id="clippath-8"><path class="cls-7" d="M586,17.8v.6c0,3.1,1.5,5.9,4,7.7l5,3.6,5-3.6c2.5-1.8,4-4.7,4-7.7v-.6s-18,0-18,0ZM586,52.2v-.6c0-3.1,1.5-5.9,4-7.7l5-3.6,5,3.6c2.5,1.8,4,4.7,4,7.7v.6h-18Z"/></clipPath><clipPath id="clippath-9"><path class="cls-7" d="M656,17.8v.6c0,3.1,1.5,5.9,4,7.7l5,3.6,5-3.6c2.5-1.8,4-4.7,4-7.7v-.6s-18,0-18,0ZM656,52.2v-.6c0-3.1,1.5-5.9,4-7.7l5-3.6,5,3.6c2.5,1.8,4,4.7,4,7.7v.6h-18Z"/></clipPath><clipPath id="clippath-10"><path class="cls-7" d="M726,17.8v.6c0,3.1,1.5,5.9,4,7.7l5,3.6,5-3.6c2.5-1.8,4-4.7,4-7.7v-.6s-18,0-18,0ZM726,52.2v-.6c0-3.1,1.5-5.9,4-7.7l5-3.6,5,3.6c2.5,1.8,4,4.7,4,7.7v.6h-18Z"/></clipPath><clipPath id="clippath-11"><path class="cls-7" d="M796,17.8v.6c0,3.1,1.5,5.9,4,7.7l5,3.6,5-3.6c2.5-1.8,4-4.7,4-7.7v-.6s-18,0-18,0ZM796,52.2v-.6c0-3.1,1.5-5.9,4-7.7l5-3.6,5,3.6c2.5,1.8,4,4.7,4,7.7v.6h-18Z"/></clipPath><clipPath id="clippath-12"><path class="cls-7" d="M866,17.8v.6c0,3.1,1.5,5.9,4,7.7l5,3.6,5-3.6c2.5-1.8,4-4.7,4-7.7v-.6s-18,0-18,0ZM866,52.2v-.6c0-3.1,1.5-5.9,4-7.7l5-3.6,5,3.6c2.5,1.8,4,4.7,4,7.7v.6h-18Z"/></clipPath><clipPath id="clippath-13"><path class="cls-7" d="M936,17.8v.6c0,3.1,1.5,5.9,4,7.7l5,3.6,5-3.6c2.5-1.8,4-4.7,4-7.7v-.6s-18,0-18,0ZM936,52.2v-.6c0-3.1,1.5-5.9,4-7.7l5-3.6,5,3.6c2.5,1.8,4,4.7,4,7.7v.6h-18Z"/></clipPath><clipPath id="clippath-14"><path class="cls-7" d="M1006,17.8v.6c0,3.1,1.5,5.9,4,7.7l5,3.6,5-3.6c2.5-1.8,4-4.7,4-7.7v-.6s-18,0-18,0ZM1006,52.2v-.6c0-3.1,1.5-5.9,4-7.7l5-3.6,5,3.6c2.5,1.8,4,4.7,4,7.7v.6h-18Z"/></clipPath><clipPath id="clippath-15"><path class="cls-7" d="M1076,17.8v.6c0,3.1,1.5,5.9,4,7.7l5,3.6,5-3.6c2.5-1.8,4-4.7,4-7.7v-.6s-18,0-18,0ZM1076,52.2v-.6c0-3.1,1.5-5.9,4-7.7l5-3.6,5,3.6c2.5,1.8,4,4.7,4,7.7v.6h-18Z"/></clipPath><clipPath id="clippath-16"><path class="cls-7" d="M1146,17.8v.6c0,3.1,1.5,5.9,4,7.7l5,3.6,5-3.6c2.5-1.8,4-4.7,4-7.7v-.6s-18,0-18,0ZM1146,52.2v-.6c0-3.1,1.5-5.9,4-7.7l5-3.6,5,3.6c2.5,1.8,4,4.7,4,7.7v.6h-18Z"/></clipPath><clipPath id="clippath-17"><path class="cls-7" d="M1216,17.8v.6c0,3.1,1.5,5.9,4,7.7l5,3.6,5-3.6c2.5-1.8,4-4.7,4-7.7v-.6s-18,0-18,0ZM1216,52.2v-.6c0-3.1,1.5-5.9,4-7.7l5-3.6,5,3.6c2.5,1.8,4,4.7,4,7.7v.6h-18Z"/></clipPath><clipPath id="clippath-18"><path class="cls-7" d="M1286,17.8v.6c0,3.1,1.5,5.9,4,7.7l5,3.6,5-3.6c2.5-1.8,4-4.7,4-7.7v-.6s-18,0-18,0ZM1286,52.2v-.6c0-3.1,1.5-5.9,4-7.7l5-3.6,5,3.6c2.5,1.8,4,4.7,4,7.7v.6h-18Z"/></clipPath><clipPath id="clippath-19"><path class="cls-7" d="M1286,17.8v.6c0,3.1,1.5,5.9,4,7.7l5,3.6,5-3.6c2.5-1.8,4-4.7,4-7.7v-.6s-18,0-18,0ZM1286,52.2v-.6c0-3.1,1.5-5.9,4-7.7l5-3.6,5,3.6c2.5,1.8,4,4.7,4,7.7v.6h-18Z"/></clipPath><clipPath id="clippath-20"><path class="cls-7" d="M1356,17.8v.6c0,3.1,1.5,5.9,4,7.7l5,3.6,5-3.6c2.5-1.8,4-4.7,4-7.7v-.6s-18,0-18,0ZM1356,52.2v-.6c0-3.1,1.5-5.9,4-7.7l5-3.6,5,3.6c2.5,1.8,4,4.7,4,7.7v.6h-18Z"/></clipPath><clipPath id="clippath-21"><path class="cls-7" d="M1356,17.8v.6c0,3.1,1.5,5.9,4,7.7l5,3.6,5-3.6c2.5-1.8,4-4.7,4-7.7v-.6s-18,0-18,0ZM1356,52.2v-.6c0-3.1,1.5-5.9,4-7.7l5-3.6,5,3.6c2.5,1.8,4,4.7,4,7.7v.6h-18Z"/></clipPath><clipPath id="clippath-22"><path class="cls-7" d="M1426,17.8v.6c0,3.1,1.5,5.9,4,7.7l5,3.6,5-3.6c2.5-1.8,4-4.7,4-7.7v-.6s-18,0-18,0ZM1426,52.2v-.6c0-3.1,1.5-5.9,4-7.7l5-3.6,5,3.6c2.5,1.8,4,4.7,4,7.7v.6h-18Z"/></clipPath><clipPath id="clippath-23"><path class="cls-7" d="M1426,17.8v.6c0,3.1,1.5,5.9,4,7.7l5,3.6,5-3.6c2.5-1.8,4-4.7,4-7.7v-.6s-18,0-18,0ZM1426,52.2v-.6c0-3.1,1.5-5.9,4-7.7l5-3.6,5,3.6c2.5,1.8,4,4.7,4,7.7v.6h-18Z"/></clipPath><clipPath id="clippath-24"><path class="cls-7" d="M1496,17.8v.6c0,3.1,1.5,5.9,4,7.7l5,3.6,5-3.6c2.5-1.8,4-4.7,4-7.7v-.6s-18,0-18,0ZM1496,52.2v-.6c0-3.1,1.5-5.9,4-7.7l5-3.6,5,3.6c2.5,1.8,4,4.7,4,7.7v.6h-18Z"/></clipPath><clipPath id="clippath-25"><path class="cls-7" d="M1496,17.8v.6c0,3.1,1.5,5.9,4,7.7l5,3.6,5-3.6c2.5-1.8,4-4.7,4-7.7v-.6s-18,0-18,0ZM1496,52.2v-.6c0-3.1,1.5-5.9,4-7.7l5-3.6,5,3.6c2.5,1.8,4,4.7,4,7.7v.6h-18Z"/></clipPath><clipPath id="clippath-26"><path class="cls-7" d="M1566,17.8v.6c0,3.1,1.5,5.9,4,7.7l5,3.6,5-3.6c2.5-1.8,4-4.7,4-7.7v-.6s-18,0-18,0ZM1566,52.2v-.6c0-3.1,1.5-5.9,4-7.7l5-3.6,5,3.6c2.5,1.8,4,4.7,4,7.7v.6h-18Z"/></clipPath><clipPath id="clippath-27"><path class="cls-7" d="M1566,17.8v.6c0,3.1,1.5,5.9,4,7.7l5,3.6,5-3.6c2.5-1.8,4-4.7,4-7.7v-.6s-18,0-18,0ZM1566,52.2v-.6c0-3.1,1.5-5.9,4-7.7l5-3.6,5,3.6c2.5,1.8,4,4.7,4,7.7v.6h-18Z"/></clipPath><clipPath id="clippath-28"><path class="cls-7" d="M1636,17.8v.6c0,3.1,1.5,5.9,4,7.7l5,3.6,5-3.6c2.5-1.8,4-4.7,4-7.7v-.6s-18,0-18,0ZM1636,52.2v-.6c0-3.1,1.5-5.9,4-7.7l5-3.6,5,3.6c2.5,1.8,4,4.7,4,7.7v.6h-18Z"/></clipPath><clipPath id="clippath-29"><path class="cls-7" d="M1636,17.8v.6c0,3.1,1.5,5.9,4,7.7l5,3.6,5-3.6c2.5-1.8,4-4.7,4-7.7v-.6s-18,0-18,0ZM1636,52.2v-.6c0-3.1,1.5-5.9,4-7.7l5-3.6,5,3.6c2.5,1.8,4,4.7,4,7.7v.6h-18Z"/></clipPath><clipPath id="clippath-30"><path class="cls-7" d="M1706,17.8v.6c0,3.1,1.5,5.9,4,7.7l5,3.6,5-3.6c2.5-1.8,4-4.7,4-7.7v-.6s-18,0-18,0ZM1706,52.2v-.6c0-3.1,1.5-5.9,4-7.7l5-3.6,5,3.6c2.5,1.8,4,4.7,4,7.7v.6h-18Z"/></clipPath><clipPath id="clippath-31"><path class="cls-7" d="M1706,17.8v.6c0,3.1,1.5,5.9,4,7.7l5,3.6,5-3.6c2.5-1.8,4-4.7,4-7.7v-.6s-18,0-18,0ZM1706,52.2v-.6c0-3.1,1.5-5.9,4-7.7l5-3.6,5,3.6c2.5,1.8,4,4.7,4,7.7v.6h-18Z"/></clipPath><clipPath id="clippath-32"><path class="cls-7" d="M1776,17.8v.6c0,3.1,1.5,5.9,4,7.7l5,3.6,5-3.6c2.5-1.8,4-4.7,4-7.7v-.6s-18,0-18,0ZM1776,52.2v-.6c0-3.1,1.5-5.9,4-7.7l5-3.6,5,3.6c2.5,1.8,4,4.7,4,7.7v.6h-18Z"/></clipPath><clipPath id="clippath-33"><path class="cls-7" d="M1776,17.8v.6c0,3.1,1.5,5.9,4,7.7l5,3.6,5-3.6c2.5-1.8,4-4.7,4-7.7v-.6s-18,0-18,0ZM1776,52.2v-.6c0-3.1,1.5-5.9,4-7.7l5-3.6,5,3.6c2.5,1.8,4,4.7,4,7.7v.6h-18Z"/></clipPath><clipPath id="clippath-34"><path class="cls-7" d="M1846,17.8v.6c0,3.1,1.5,5.9,4,7.7l5,3.6,5-3.6c2.5-1.8,4-4.7,4-7.7v-.6s-18,0-18,0ZM1846,52.2v-.6c0-3.1,1.5-5.9,4-7.7l5-3.6,5,3.6c2.5,1.8,4,4.7,4,7.7v.6h-18Z"/></clipPath><clipPath id="clippath-35"><path class="cls-7" d="M1846,17.8v.6c0,3.1,1.5,5.9,4,7.7l5,3.6,5-3.6c2.5-1.8,4-4.7,4-7.7v-.6s-18,0-18,0ZM1846,52.2v-.6c0-3.1,1.5-5.9,4-7.7l5-3.6,5,3.6c2.5,1.8,4,4.7,4,7.7v.6h-18Z"/></clipPath><clipPath id="clippath-36"><path class="cls-7" d="M1916,17.8v.6c0,3.1,1.5,5.9,4,7.7l5,3.6,5-3.6c2.5-1.8,4-4.7,4-7.7v-.6s-18,0-18,0ZM1916,52.2v-.6c0-3.1,1.5-5.9,4-7.7l5-3.6,5,3.6c2.5,1.8,4,4.7,4,7.7v.6h-18Z"/></clipPath><clipPath id="clippath-37"><path class="cls-7" d="M1916,17.8v.6c0,3.1,1.5,5.9,4,7.7l5,3.6,5-3.6c2.5-1.8,4-4.7,4-7.7v-.6s-18,0-18,0ZM1916,52.2v-.6c0-3.1,1.5-5.9,4-7.7l5-3.6,5,3.6c2.5,1.8,4,4.7,4,7.7v.6h-18Z"/></clipPath><clipPath id="clippath-38"><path class="cls-7" d="M1986,17.8v.6c0,3.1,1.5,5.9,4,7.7l5,3.6,5-3.6c2.5-1.8,4-4.7,4-7.7v-.6s-18,0-18,0ZM1986,52.2v-.6c0-3.1,1.5-5.9,4-7.7l5-3.6,5,3.6c2.5,1.8,4,4.7,4,7.7v.6h-18Z"/></clipPath><clipPath id="clippath-39"><path class="cls-7" d="M1986,17.8v.6c0,3.1,1.5,5.9,4,7.7l5,3.6,5-3.6c2.5-1.8,4-4.7,4-7.7v-.6s-18,0-18,0ZM1986,52.2v-.6c0-3.1,1.5-5.9,4-7.7l5-3.6,5,3.6c2.5,1.8,4,4.7,4,7.7v.6h-18Z"/></clipPath><clipPath id="clippath-40"><path class="cls-7" d="M2056,17.8v.6c0,3.1,1.5,5.9,4,7.7l5,3.6,5-3.6c2.5-1.8,4-4.7,4-7.7v-.6s-18,0-18,0ZM2056,52.2v-.6c0-3.1,1.5-5.9,4-7.7l5-3.6,5,3.6c2.5,1.8,4,4.7,4,7.7v.6h-18Z"/></clipPath><clipPath id="clippath-41"><path class="cls-7" d="M2056,17.8v.6c0,3.1,1.5,5.9,4,7.7l5,3.6,5-3.6c2.5-1.8,4-4.7,4-7.7v-.6s-18,0-18,0ZM2056,52.2v-.6c0-3.1,1.5-5.9,4-7.7l5-3.6,5,3.6c2.5,1.8,4,4.7,4,7.7v.6h-18Z"/></clipPath><clipPath id="clippath-42"><path class="cls-7" d="M2126,17.8v.6c0,3.1,1.5,5.9,4,7.7l5,3.6,5-3.6c2.5-1.8,4-4.7,4-7.7v-.6s-18,0-18,0ZM2126,52.2v-.6c0-3.1,1.5-5.9,4-7.7l5-3.6,5,3.6c2.5,1.8,4,4.7,4,7.7v.6h-18Z"/></clipPath><clipPath id="clippath-43"><path class="cls-7" d="M2126,17.8v.6c0,3.1,1.5,5.9,4,7.7l5,3.6,5-3.6c2.5-1.8,4-4.7,4-7.7v-.6s-18,0-18,0ZM2126,52.2v-.6c0-3.1,1.5-5.9,4-7.7l5-3.6,5,3.6c2.5,1.8,4,4.7,4,7.7v.6h-18Z"/></clipPath><clipPath id="clippath-44"><path class="cls-7" d="M2196,17.8v.6c0,3.1,1.5,5.9,4,7.7l5,3.6,5-3.6c2.5-1.8,4-4.7,4-7.7v-.6s-18,0-18,0ZM2196,52.2v-.6c0-3.1,1.5-5.9,4-7.7l5-3.6,5,3.6c2.5,1.8,4,4.7,4,7.7v.6h-18Z"/></clipPath><clipPath id="clippath-45"><path class="cls-7" d="M2196,17.8v.6c0,3.1,1.5,5.9,4,7.7l5,3.6,5-3.6c2.5-1.8,4-4.7,4-7.7v-.6s-18,0-18,0ZM2196,52.2v-.6c0-3.1,1.5-5.9,4-7.7l5-3.6,5,3.6c2.5,1.8,4,4.7,4,7.7v.6h-18Z"/></clipPath><clipPath id="clippath-46"><path class="cls-7" d="M2266,17.8v.6c0,3.1,1.5,5.9,4,7.7l5,3.6,5-3.6c2.5-1.8,4-4.7,4-7.7v-.6s-18,0-18,0ZM2266,52.2v-.6c0-3.1,1.5-5.9,4-7.7l5-3.6,5,3.6c2.5,1.8,4,4.7,4,7.7v.6h-18Z"/></clipPath><clipPath id="clippath-47"><path class="cls-7" d="M2266,17.8v.6c0,3.1,1.5,5.9,4,7.7l5,3.6,5-3.6c2.5-1.8,4-4.7,4-7.7v-.6s-18,0-18,0ZM2266,52.2v-.6c0-3.1,1.5-5.9,4-7.7l5-3.6,5,3.6c2.5,1.8,4,4.7,4,7.7v.6h-18Z"/></clipPath><clipPath id="clippath-49"><path class="cls-7" d="M2336,17.8v.6c0,3.1,1.5,5.9,4,7.7l5,3.6,5-3.6c2.5-1.8,4-4.7,4-7.7v-.6s-18,0-18,0ZM2336,52.2v-.6c0-3.1,1.5-5.9,4-7.7l5-3.6,5,3.6c2.5,1.8,4,4.7,4,7.7v.6h-18Z"/></clipPath><clipPath id="clippath-51"><path class="cls-7" d="M2406,17.8v.6c0,3.1,1.5,5.9,4,7.7l5,3.6,5-3.6c2.5-1.8,4-4.7,4-7.7v-.6s-18,0-18,0ZM2406,52.2v-.6c0-3.1,1.5-5.9,4-7.7l5-3.6,5,3.6c2.5,1.8,4,4.7,4,7.7v.6h-18Z"/></clipPath><clipPath id="clippath-53"><path class="cls-7" d="M2476,17.8v.6c0,3.1,1.5,5.9,4,7.7l5,3.6,5-3.6c2.5-1.8,4-4.7,4-7.7v-.6s-18,0-18,0ZM2476,52.2v-.6c0-3.1,1.5-5.9,4-7.7l5-3.6,5,3.6c2.5,1.8,4,4.7,4,7.7v.6h-18Z"/></clipPath><clipPath id="clippath-55"><path class="cls-7" d="M2546,17.8v.6c0,3.1,1.5,5.9,4,7.7l5,3.6,5-3.6c2.5-1.8,4-4.7,4-7.7v-.6s-18,0-18,0ZM2546,52.2v-.6c0-3.1,1.5-5.9,4-7.7l5-3.6,5,3.6c2.5,1.8,4,4.7,4,7.7v.6h-18Z"/></clipPath><clipPath id="clippath-57"><path class="cls-7" d="M2616,17.8v.6c0,3.1,1.5,5.9,4,7.7l5,3.6,5-3.6c2.5-1.8,4-4.7,4-7.7v-.6s-18,0-18,0ZM2616,52.2v-.6c0-3.1,1.5-5.9,4-7.7l5-3.6,5,3.6c2.5,1.8,4,4.7,4,7.7v.6h-18Z"/></clipPath><clipPath id="clippath-59"><path class="cls-7" d="M2686,17.8v.6c0,3.1,1.5,5.9,4,7.7l5,3.6,5-3.6c2.5-1.8,4-4.7,4-7.7v-.6s-18,0-18,0ZM2686,52.2v-.6c0-3.1,1.5-5.9,4-7.7l5-3.6,5,3.6c2.5,1.8,4,4.7,4,7.7v.6h-18Z"/></clipPath><clipPath id="clippath-61"><path class="cls-7" d="M2756,17.8v.6c0,3.1,1.5,5.9,4,7.7l5,3.6,5-3.6c2.5-1.8,4-4.7,4-7.7v-.6s-18,0-18,0ZM2756,52.2v-.6c0-3.1,1.5-5.9,4-7.7l5-3.6,5,3.6c2.5,1.8,4,4.7,4,7.7v.6h-18Z"/></clipPath><clipPath id="clippath-63"><path class="cls-7" d="M2826,17.8v.6c0,3.1,1.5,5.9,4,7.7l5,3.6,5-3.6c2.5-1.8,4-4.7,4-7.7v-.6s-18,0-18,0ZM2826,52.2v-.6c0-3.1,1.5-5.9,4-7.7l5-3.6,5,3.6c2.5,1.8,4,4.7,4,7.7v.6h-18Z"/></clipPath><clipPath id="clippath-64"><path class="cls-7" d="M2896,17.8v.6c0,3.1,1.5,5.9,4,7.7l5,3.6,5-3.6c2.5-1.8,4-4.7,4-7.7v-.6s-18,0-18,0ZM2896,52.2v-.6c0-3.1,1.5-5.9,4-7.7l5-3.6,5,3.6c2.5,1.8,4,4.7,4,7.7v.6h-18Z"/></clipPath><clipPath id="clippath-65"><path class="cls-7" d="M2966,17.8v.6c0,3.1,1.5,5.9,4,7.7l5,3.6,5-3.6c2.5-1.8,4-4.7,4-7.7v-.6s-18,0-18,0ZM2966,52.2v-.6c0-3.1,1.5-5.9,4-7.7l5-3.6,5,3.6c2.5,1.8,4,4.7,4,7.7v.6h-18Z"/></clipPath><clipPath id="clippath-66"><path class="cls-7" d="M2966,17.8v.6c0,3.1,1.5,5.9,4,7.7l5,3.6,5-3.6c2.5-1.8,4-4.7,4-7.7v-.6s-18,0-18,0ZM2966,52.2v-.6c0-3.1,1.5-5.9,4-7.7l5-3.6,5,3.6c2.5,1.8,4,4.7,4,7.7v.6h-18Z"/></clipPath><clipPath id="clippath-67"><path class="cls-7" d="M3036,17.8v.6c0,3.1,1.5,5.9,4,7.7l5,3.6,5-3.6c2.5-1.8,4-4.7,4-7.7v-.6s-18,0-18,0ZM3036,52.2v-.6c0-3.1,1.5-5.9,4-7.7l5-3.6,5,3.6c2.5,1.8,4,4.7,4,7.7v.6h-18Z"/></clipPath><clipPath id="clippath-68"><path class="cls-7" d="M3036,17.8v.6c0,3.1,1.5,5.9,4,7.7l5,3.6,5-3.6c2.5-1.8,4-4.7,4-7.7v-.6s-18,0-18,0ZM3036,52.2v-.6c0-3.1,1.5-5.9,4-7.7l5-3.6,5,3.6c2.5,1.8,4,4.7,4,7.7v.6h-18Z"/></clipPath><clipPath id="clippath-70"><path class="cls-7" d="M3106,17.8v.6c0,3.1,1.5,5.9,4,7.7l5,3.6,5-3.6c2.5-1.8,4-4.7,4-7.7v-.6s-18,0-18,0ZM3106,52.2v-.6c0-3.1,1.5-5.9,4-7.7l5-3.6,5,3.6c2.5,1.8,4,4.7,4,7.7v.6h-18Z"/></clipPath><clipPath id="clippath-71"><path class="cls-7" d="M3176,17.8v.6c0,3.1,1.5,5.9,4,7.7l5,3.6,5-3.6c2.5-1.8,4-4.7,4-7.7v-.6s-18,0-18,0ZM3176,52.2v-.6c0-3.1,1.5-5.9,4-7.7l5-3.6,5,3.6c2.5,1.8,4,4.7,4,7.7v.6h-18Z"/></clipPath><clipPath id="clippath-72"><path class="cls-7" d="M3246,17.8v.6c0,3.1,1.5,5.9,4,7.7l5,3.6,5-3.6c2.5-1.8,4-4.7,4-7.7v-.6s-18,0-18,0ZM3246,52.2v-.6c0-3.1,1.5-5.9,4-7.7l5-3.6,5,3.6c2.5,1.8,4,4.7,4,7.7v.6h-18Z"/></clipPath><clipPath id="clippath-73"><path class="cls-7" d="M3316,17.8v.6c0,3.1,1.5,5.9,4,7.7l5,3.6,5-3.6c2.5-1.8,4-4.7,4-7.7v-.6s-18,0-18,0ZM3316,52.2v-.6c0-3.1,1.5-5.9,4-7.7l5-3.6,5,3.6c2.5,1.8,4,4.7,4,7.7v.6h-18Z"/></clipPath><clipPath id="clippath-74"><path class="cls-7" d="M3386,17.8v.6c0,3.1,1.5,5.9,4,7.7l5,3.6,5-3.6c2.5-1.8,4-4.7,4-7.7v-.6s-18,0-18,0ZM3386,52.2v-.6c0-3.1,1.5-5.9,4-7.7l5-3.6,5,3.6c2.5,1.8,4,4.7,4,7.7v.6h-18Z"/></clipPath><clipPath id="clippath-75"><path class="cls-7" d="M3456,17.8v.6c0,3.1,1.5,5.9,4,7.7l5,3.6,5-3.6c2.5-1.8,4-4.7,4-7.7v-.6s-18,0-18,0ZM3456,52.2v-.6c0-3.1,1.5-5.9,4-7.7l5-3.6,5,3.6c2.5,1.8,4,4.7,4,7.7v.6h-18Z"/></clipPath><clipPath id="clippath-76"><path class="cls-7" d="M3526,17.8v.6c0,3.1,1.5,5.9,4,7.7l5,3.6,5-3.6c2.5-1.8,4-4.7,4-7.7v-.6s-18,0-18,0ZM3526,52.2v-.6c0-3.1,1.5-5.9,4-7.7l5-3.6,5,3.6c2.5,1.8,4,4.7,4,7.7v.6h-18Z"/></clipPath><clipPath id="clippath-77"><path class="cls-7" d="M3596,17.8v.6c0,3.1,1.5,5.9,4,7.7l5,3.6,5-3.6c2.5-1.8,4-4.7,4-7.7v-.6s-18,0-18,0ZM3596,52.2v-.6c0-3.1,1.5-5.9,4-7.7l5-3.6,5,3.6c2.5,1.8,4,4.7,4,7.7v.6h-18Z"/></clipPath><clipPath id="clippath-78"><path class="cls-7" d="M3666,17.8v.6c0,3.1,1.5,5.9,4,7.7l5,3.6,5-3.6c2.5-1.8,4-4.7,4-7.7v-.6s-18,0-18,0ZM3666,52.2v-.6c0-3.1,1.5-5.9,4-7.7l5-3.6,5,3.6c2.5,1.8,4,4.7,4,7.7v.6h-18Z"/></clipPath><clipPath id="clippath-79"><path class="cls-7" d="M3736,17.8v.6c0,3.1,1.5,5.9,4,7.7l5,3.6,5-3.6c2.5-1.8,4-4.7,4-7.7v-.6s-18,0-18,0ZM3736,52.2v-.6c0-3.1,1.5-5.9,4-7.7l5-3.6,5,3.6c2.5,1.8,4,4.7,4,7.7v.6h-18Z"/></clipPath><clipPath id="clippath-80"><path class="cls-7" d="M3806,17.8v.6c0,3.1,1.5,5.9,4,7.7l5,3.6,5-3.6c2.5-1.8,4-4.7,4-7.7v-.6s-18,0-18,0ZM3806,52.2v-.6c0-3.1,1.5-5.9,4-7.7l5-3.6,5,3.6c2.5,1.8,4,4.7,4,7.7v.6h-18Z"/></clipPath><clipPath id="clippath-81"><path class="cls-7" d="M3876,17.8v.6c0,3.1,1.5,5.9,4,7.7l5,3.6,5-3.6c2.5-1.8,4-4.7,4-7.7v-.6s-18,0-18,0ZM3876,52.2v-.6c0-3.1,1.5-5.9,4-7.7l5-3.6,5,3.6c2.5,1.8,4,4.7,4,7.7v.6h-18Z"/></clipPath><clipPath id="clippath-82"><path class="cls-7" d="M3946,17.8v.6c0,3.1,1.5,5.9,4,7.7l5,3.6,5-3.6c2.5-1.8,4-4.7,4-7.7v-.6s-18,0-18,0ZM3946,52.2v-.6c0-3.1,1.5-5.9,4-7.7l5-3.6,5,3.6c2.5,1.8,4,4.7,4,7.7v.6h-18Z"/></clipPath><clipPath id="clippath-83"><path class="cls-7" d="M4016,17.8v.6c0,3.1,1.5,5.9,4,7.7l5,3.6,5-3.6c2.5-1.8,4-4.7,4-7.7v-.6s-18,0-18,0ZM4016,52.2v-.6c0-3.1,1.5-5.9,4-7.7l5-3.6,5,3.6c2.5,1.8,4,4.7,4,7.7v.6h-18Z"/></clipPath><clipPath id="clippath-84"><path class="cls-7" d="M4086,17.8v.6c0,3.1,1.5,5.9,4,7.7l5,3.6,5-3.6c2.5-1.8,4-4.7,4-7.7v-.6s-18,0-18,0ZM4086,52.2v-.6c0-3.1,1.5-5.9,4-7.7l5-3.6,5,3.6c2.5,1.8,4,4.7,4,7.7v.6h-18Z"/></clipPath><clipPath id="clippath-85"><path class="cls-7" d="M4156,17.8v.6c0,3.1,1.5,5.9,4,7.7l5,3.6,5-3.6c2.5-1.8,4-4.7,4-7.7v-.6s-18,0-18,0ZM4156,52.2v-.6c0-3.1,1.5-5.9,4-7.7l5-3.6,5,3.6c2.5,1.8,4,4.7,4,7.7v.6h-18Z"/></clipPath><clipPath id="clippath-86"><path class="cls-7" d="M4226,17.8v.6c0,3.1,1.5,5.9,4,7.7l5,3.6,5-3.6c2.5-1.8,4-4.7,4-7.7v-.6s-18,0-18,0ZM4226,52.2v-.6c0-3.1,1.5-5.9,4-7.7l5-3.6,5,3.6c2.5,1.8,4,4.7,4,7.7v.6h-18Z"/></clipPath><clipPath id="clippath-87"><path class="cls-7" d="M4296,17.8v.6c0,3.1,1.5,5.9,4,7.7l5,3.6,5-3.6c2.5-1.8,4-4.7,4-7.7v-.6s-18,0-18,0ZM4296,52.2v-.6c0-3.1,1.5-5.9,4-7.7l5-3.6,5,3.6c2.5,1.8,4,4.7,4,7.7v.6h-18Z"/></clipPath><clipPath id="clippath-88"><path class="cls-7" d="M4366,17.8v.6c0,3.1,1.5,5.9,4,7.7l5,3.6,5-3.6c2.5-1.8,4-4.7,4-7.7v-.6s-18,0-18,0ZM4366,52.2v-.6c0-3.1,1.5-5.9,4-7.7l5-3.6,5,3.6c2.5,1.8,4,4.7,4,7.7v.6h-18Z"/></clipPath><clipPath id="clippath-89"><path class="cls-7" d="M4436,17.8v.6c0,3.1,1.5,5.9,4,7.7l5,3.6,5-3.6c2.5-1.8,4-4.7,4-7.7v-.6s-18,0-18,0ZM4436,52.2v-.6c0-3.1,1.5-5.9,4-7.7l5-3.6,5,3.6c2.5,1.8,4,4.7,4,7.7v.6h-18Z"/></clipPath><clipPath id="clippath-90"><path class="cls-7" d="M4506,17.8v.6c0,3.1,1.5,5.9,4,7.7l5,3.6,5-3.6c2.5-1.8,4-4.7,4-7.7v-.6s-18,0-18,0ZM4506,52.2v-.6c0-3.1,1.5-5.9,4-7.7l5-3.6,5,3.6c2.5,1.8,4,4.7,4,7.7v.6h-18Z"/></clipPath><clipPath id="clippath-91"><path class="cls-7" d="M4576,17.8v.6c0,3.1,1.5,5.9,4,7.7l5,3.6,5-3.6c2.5-1.8,4-4.7,4-7.7v-.6s-18,0-18,0ZM4576,52.2v-.6c0-3.1,1.5-5.9,4-7.7l5-3.6,5,3.6c2.5,1.8,4,4.7,4,7.7v.6h-18Z"/></clipPath><clipPath id="clippath-92"><path class="cls-7" d="M4646,17.8v.6c0,3.1,1.5,5.9,4,7.7l5,3.6,5-3.6c2.5-1.8,4-4.7,4-7.7v-.6s-18,0-18,0ZM4646,52.2v-.6c0-3.1,1.5-5.9,4-7.7l5-3.6,5,3.6c2.5,1.8,4,4.7,4,7.7v.6h-18Z"/></clipPath><clipPath id="clippath-93"><path class="cls-7" d="M4716,17.8v.6c0,3.1,1.5,5.9,4,7.7l5,3.6,5-3.6c2.5-1.8,4-4.7,4-7.7v-.6s-18,0-18,0ZM4716,52.2v-.6c0-3.1,1.5-5.9,4-7.7l5-3.6,5,3.6c2.5,1.8,4,4.7,4,7.7v.6h-18Z"/></clipPath><clipPath id="clippath-94"><path class="cls-7" d="M4786,17.8v.6c0,3.1,1.5,5.9,4,7.7l5,3.6,5-3.6c2.5-1.8,4-4.7,4-7.7v-.6s-18,0-18,0ZM4786,52.2v-.6c0-3.1,1.5-5.9,4-7.7l5-3.6,5,3.6c2.5,1.8,4,4.7,4,7.7v.6h-18Z"/></clipPath><clipPath id="clippath-95"><path class="cls-7" d="M4856,17.8v.6c0,3.1,1.5,5.9,4,7.7l5,3.6,5-3.6c2.5-1.8,4-4.7,4-7.7v-.6s-18,0-18,0ZM4856,52.2v-.6c0-3.1,1.5-5.9,4-7.7l5-3.6,5,3.6c2.5,1.8,4,4.7,4,7.7v.6h-18Z"/></clipPath><clipPath id="clippath-96"><path class="cls-7" d="M4926,17.8v.6c0,3.1,1.5,5.9,4,7.7l5,3.6,5-3.6c2.5-1.8,4-4.7,4-7.7v-.6s-18,0-18,0ZM4926,52.2v-.6c0-3.1,1.5-5.9,4-7.7l5-3.6,5,3.6c2.5,1.8,4,4.7,4,7.7v.6h-18Z"/></clipPath><clipPath id="clippath-97"><path class="cls-7" d="M4996,17.8v.6c0,3.1,1.5,5.9,4,7.7l5,3.6,5-3.6c2.5-1.8,4-4.7,4-7.7v-.6s-18,0-18,0ZM4996,52.2v-.6c0-3.1,1.5-5.9,4-7.7l5-3.6,5,3.6c2.5,1.8,4,4.7,4,7.7v.6h-18Z"/></clipPath><clipPath id="clippath-98"><path class="cls-7" d="M5066,17.8v.6c0,3.1,1.5,5.9,4,7.7l5,3.6,5-3.6c2.5-1.8,4-4.7,4-7.7v-.6s-18,0-18,0ZM5066,52.2v-.6c0-3.1,1.5-5.9,4-7.7l5-3.6,5,3.6c2.5,1.8,4,4.7,4,7.7v.6h-18Z"/></clipPath><clipPath id="clippath-99"><path class="cls-7" d="M5136,17.8v.6c0,3.1,1.5,5.9,4,7.7l5,3.6,5-3.6c2.5-1.8,4-4.7,4-7.7v-.6s-18,0-18,0ZM5136,52.2v-.6c0-3.1,1.5-5.9,4-7.7l5-3.6,5,3.6c2.5,1.8,4,4.7,4,7.7v.6h-18Z"/></clipPath><clipPath id="clippath-100"><path class="cls-7" d="M5206,17.8v.6c0,3.1,1.5,5.9,4,7.7l5,3.6,5-3.6c2.5-1.8,4-4.7,4-7.7v-.6s-18,0-18,0ZM5206,52.2v-.6c0-3.1,1.5-5.9,4-7.7l5-3.6,5,3.6c2.5,1.8,4,4.7,4,7.7v.6h-18Z"/></clipPath><clipPath id="clippath-101"><path class="cls-7" d="M5276,17.8v.6c0,3.1,1.5,5.9,4,7.7l5,3.6,5-3.6c2.5-1.8,4-4.7,4-7.7v-.6s-18,0-18,0ZM5276,52.2v-.6c0-3.1,1.5-5.9,4-7.7l5-3.6,5,3.6c2.5,1.8,4,4.7,4,7.7v.6h-18Z"/></clipPath><clipPath id="clippath-102"><path class="cls-7" d="M5346.58,17.51l-.02.6c-.1,3.1,1.3,5.95,3.74,7.83l4.88,3.77,5.12-3.43c2.56-1.72,4.15-4.56,4.26-7.56l.02-.6-17.99-.6h0ZM5345.43,51.89l.02-.6c.1-3.1,1.7-5.85,4.26-7.56l5.12-3.43,4.88,3.77c2.44,1.88,3.84,4.83,3.74,7.83l-.02.6-17.99-.6h0Z"/></clipPath><clipPath id="clippath-103"><path class="cls-7" d="M5346.58,17.51l-.02.6c-.1,3.1,1.3,5.95,3.74,7.83l4.88,3.77,5.12-3.43c2.56-1.72,4.15-4.56,4.26-7.56l.02-.6-17.99-.6h0ZM5345.43,51.89l.02-.6c.1-3.1,1.7-5.85,4.26-7.56l5.12-3.43,4.88,3.77c2.44,1.88,3.84,4.83,3.74,7.83l-.02.6-17.99-.6h0Z"/></clipPath><clipPath id="clippath-104"><path class="cls-7" d="M5418.8,16.61l-.09.59c-.48,3.06.56,6.06,2.75,8.23l4.38,4.34,5.5-2.77c2.75-1.39,4.69-4.02,5.15-6.98l.09-.59-17.78-2.81h0ZM5413.42,50.58l.09-.59c.48-3.06,2.4-5.59,5.15-6.98l5.5-2.77,4.38,4.34c2.19,2.17,3.22,5.27,2.75,8.23l-.09.59-17.78-2.81h0Z"/></clipPath><clipPath id="clippath-105"><path class="cls-7" d="M5418.8,16.61l-.09.59c-.48,3.06.56,6.06,2.75,8.23l4.38,4.34,5.5-2.77c2.75-1.39,4.69-4.02,5.15-6.98l.09-.59-17.78-2.81h0ZM5413.42,50.58l.09-.59c.48-3.06,2.4-5.59,5.15-6.98l5.5-2.77,4.38,4.34c2.19,2.17,3.22,5.27,2.75,8.23l-.09.59-17.78-2.81h0Z"/></clipPath><clipPath id="clippath-106"><path class="cls-7" d="M5493.81,15.62l-.25.55c-1.27,2.83-1.04,6,.51,8.66l3.09,5.33,6.03-1.24c3.02-.62,5.57-2.66,6.8-5.39l.25-.55-16.43-7.35h0ZM5479.76,47.02l.25-.55c1.27-2.83,3.78-4.77,6.8-5.39l6.03-1.24,3.09,5.33c1.55,2.66,1.73,5.92.51,8.66l-.25.55-16.43-7.35h0Z"/></clipPath><clipPath id="clippath-107"><path class="cls-7" d="M5493.81,15.62l-.25.55c-1.27,2.83-1.04,6,.51,8.66l3.09,5.33,6.03-1.24c3.02-.62,5.57-2.66,6.8-5.39l.25-.55-16.43-7.35h0ZM5479.76,47.02l.25-.55c1.27-2.83,3.78-4.77,6.8-5.39l6.03-1.24,3.09,5.33c1.55,2.66,1.73,5.92.51,8.66l-.25.55-16.43-7.35h0Z"/></clipPath><clipPath id="clippath-108"><path class="cls-7" d="M5572.41,17.06l-.46.39c-2.38,1.99-3.56,4.94-3.33,8.01l.45,6.14,5.97,1.52c2.99.76,6.17.05,8.47-1.88l.46-.39-11.56-13.8h0ZM5546.04,39.15l.46-.39c2.38-1.99,5.49-2.64,8.47-1.88l5.97,1.52.45,6.14c.23,3.07-1.03,6.08-3.33,8.01l-.46.39-11.56-13.8h0Z"/></clipPath><clipPath id="clippath-109"><path class="cls-7" d="M5572.41,17.06l-.46.39c-2.38,1.99-3.56,4.94-3.33,8.01l.45,6.14,5.97,1.52c2.99.76,6.17.05,8.47-1.88l.46-.39-11.56-13.8h0ZM5546.04,39.15l.46-.39c2.38-1.99,5.49-2.64,8.47-1.88l5.97,1.52.45,6.14c.23,3.07-1.03,6.08-3.33,8.01l-.46.39-11.56-13.8h0Z"/></clipPath><clipPath id="clippath-110"><path class="cls-7" d="M5650.84,23.78l-.59.08c-3.07.42-5.65,2.28-7.1,4.99l-2.9,5.44,4.24,4.47c2.12,2.24,5.19,3.33,8.17,2.93l.59-.08-2.41-17.84h0ZM5616.75,28.38l.59-.08c3.07-.42,6.05.7,8.17,2.93l4.24,4.47-2.9,5.44c-1.45,2.72-4.12,4.59-7.1,4.99l-.59.08-2.41-17.84h0Z"/></clipPath><clipPath id="clippath-111"><path class="cls-7" d="M5650.84,23.78l-.59.08c-3.07.42-5.65,2.28-7.1,4.99l-2.9,5.44,4.24,4.47c2.12,2.24,5.19,3.33,8.17,2.93l.59-.08-2.41-17.84h0ZM5616.75,28.38l.59-.08c3.07-.42,6.05.7,8.17,2.93l4.24,4.47-2.9,5.44c-1.45,2.72-4.12,4.59-7.1,4.99l-.59.08-2.41-17.84h0Z"/></clipPath><clipPath id="clippath-112"><path class="cls-7" d="M5724.26,32.58l-.56-.21c-2.9-1.08-6.05-.66-8.61,1.06l-5.12,3.43,1.63,5.94c.81,2.97,3.01,5.39,5.82,6.44l.56.21,6.29-16.87h0ZM5692.03,20.56l.56.21c2.9,1.08,5,3.47,5.82,6.44l1.63,5.94-5.12,3.43c-2.56,1.71-5.8,2.11-8.61,1.06l-.56-.21,6.29-16.87h0Z"/></clipPath><clipPath id="clippath-113"><path class="cls-7" d="M5724.26,32.58l-.56-.21c-2.9-1.08-6.05-.66-8.61,1.06l-5.12,3.43,1.63,5.94c.81,2.97,3.01,5.39,5.82,6.44l.56.21,6.29-16.87h0ZM5692.03,20.56l.56.21c2.9,1.08,5,3.47,5.82,6.44l1.63,5.94-5.12,3.43c-2.56,1.71-5.8,2.11-8.61,1.06l-.56-.21,6.29-16.87h0Z"/></clipPath><clipPath id="clippath-114"><path class="cls-7" d="M5793.85,39.62l-.45-.4c-2.33-2.05-5.42-2.78-8.42-2.09l-6.01,1.37-.61,6.13c-.3,3.07.88,6.11,3.13,8.09l.45.4,11.9-13.5h0ZM5768.05,16.88l.45.4c2.33,2.05,3.43,5.03,3.13,8.09l-.61,6.13-6.01,1.37c-3,.69-6.17-.11-8.42-2.09l-.45-.4,11.9-13.5h0Z"/></clipPath><clipPath id="clippath-115"><path class="cls-7" d="M5793.85,39.62l-.45-.4c-2.33-2.05-5.42-2.78-8.42-2.09l-6.01,1.37-.61,6.13c-.3,3.07.88,6.11,3.13,8.09l.45.4,11.9-13.5h0ZM5768.05,16.88l.45.4c2.33,2.05,3.43,5.03,3.13,8.09l-.61,6.13-6.01,1.37c-3,.69-6.17-.11-8.42-2.09l-.45-.4,11.9-13.5h0Z"/></clipPath><clipPath id="clippath-116"><path class="cls-7" d="M5861.98,44.4l-.33-.5c-1.71-2.59-4.5-4.1-7.58-4.23l-6.16-.25-2.19,5.76c-1.1,2.88-.75,6.13.9,8.63l.33.5,15.03-9.91h0ZM5843.04,15.69l.33.5c1.71,2.59,2,5.75.9,8.63l-2.19,5.76-6.16-.25c-3.08-.13-5.93-1.72-7.58-4.23l-.33-.5,15.03-9.91h0Z"/></clipPath><clipPath id="clippath-117"><path class="cls-7" d="M5861.98,44.4l-.33-.5c-1.71-2.59-4.5-4.1-7.58-4.23l-6.16-.25-2.19,5.76c-1.1,2.88-.75,6.13.9,8.63l.33.5,15.03-9.91h0ZM5843.04,15.69l.33.5c1.71,2.59,2,5.75.9,8.63l-2.19,5.76-6.16-.25c-3.08-.13-5.93-1.72-7.58-4.23l-.33-.5,15.03-9.91h0Z"/></clipPath><clipPath id="clippath-118"><path class="cls-7" d="M5929.86,47.49l-.23-.56c-1.18-2.87-3.63-4.89-6.63-5.6l-5.99-1.43-3.26,5.23c-1.63,2.61-1.91,5.87-.78,8.64l.23.56,16.65-6.84h0ZM5916.79,15.67l.23.56c1.18,2.87.85,6.03-.78,8.64l-3.26,5.23-5.99-1.43c-3-.72-5.49-2.83-6.63-5.6l-.23-.56,16.65-6.84h0Z"/></clipPath><clipPath id="clippath-119"><path class="cls-7" d="M5929.86,47.49l-.23-.56c-1.18-2.87-3.63-4.89-6.63-5.6l-5.99-1.43-3.26,5.23c-1.63,2.61-1.91,5.87-.78,8.64l.23.56,16.65-6.84h0ZM5916.79,15.67l.23.56c1.18,2.87.85,6.03-.78,8.64l-3.26,5.23-5.99-1.43c-3-.72-5.49-2.83-6.63-5.6l-.23-.56,16.65-6.84h0Z"/></clipPath><clipPath id="clippath-120"><path class="cls-7" d="M5997.96,49.45l-.15-.58c-.76-3-2.91-5.35-5.77-6.48l-5.73-2.26-3.96,4.72c-1.98,2.36-2.72,5.54-1.98,8.45l.15.58,17.45-4.43h-.01ZM5989.49,16.11l.15.58c.76,3,0,6.09-1.98,8.45l-3.96,4.72-5.73-2.26c-2.87-1.13-5.03-3.57-5.77-6.48l-.15-.58,17.45-4.43h-.01Z"/></clipPath><clipPath id="clippath-121"><path class="cls-7" d="M5997.96,49.45l-.15-.58c-.76-3-2.91-5.35-5.77-6.48l-5.73-2.26-3.96,4.72c-1.98,2.36-2.72,5.54-1.98,8.45l.15.58,17.45-4.43h-.01ZM5989.49,16.11l.15.58c.76,3,0,6.09-1.98,8.45l-3.96,4.72-5.73-2.26c-2.87-1.13-5.03-3.57-5.77-6.48l-.15-.58,17.45-4.43h-.01Z"/></clipPath><clipPath id="clippath-122"><path class="cls-7" d="M6066.43,50.69l-.09-.59c-.46-3.07-2.35-5.61-5.09-7.03l-5.48-2.82-4.42,4.3c-2.21,2.15-3.26,5.24-2.82,8.21l.09.59,17.8-2.65h0ZM6061.37,16.66l.09.59c.46,3.07-.61,6.06-2.82,8.21l-4.42,4.3-5.48-2.82c-2.74-1.41-4.65-4.06-5.09-7.03l-.09-.59,17.8-2.65h0Z"/></clipPath><clipPath id="clippath-123"><path class="cls-7" d="M6066.43,50.69l-.09-.59c-.46-3.07-2.35-5.61-5.09-7.03l-5.48-2.82-4.42,4.3c-2.21,2.15-3.26,5.24-2.82,8.21l.09.59,17.8-2.65h0ZM6061.37,16.66l.09.59c.46,3.07-.61,6.06-2.82,8.21l-4.42,4.3-5.48-2.82c-2.74-1.41-4.65-4.06-5.09-7.03l-.09-.59,17.8-2.65h0Z"/></clipPath><clipPath id="clippath-124"><path class="cls-7" d="M6135.31,51.45l-.05-.6c-.24-3.09-1.95-5.77-4.59-7.37l-5.26-3.2-4.71,3.98c-2.35,1.99-3.62,5-3.39,7.99l.05.6,17.95-1.4h0ZM6132.64,17.15l.05.6c.24,3.09-1.04,6-3.39,7.99l-4.71,3.98-5.26-3.2c-2.63-1.6-4.35-4.38-4.59-7.37l-.05-.6,17.95-1.4h0Z"/></clipPath><clipPath id="clippath-125"><path class="cls-7" d="M6135.31,51.45l-.05-.6c-.24-3.09-1.95-5.77-4.59-7.37l-5.26-3.2-4.71,3.98c-2.35,1.99-3.62,5-3.39,7.99l.05.6,17.95-1.4h0ZM6132.64,17.15l.05.6c.24,3.09-1.04,6-3.39,7.99l-4.71,3.98-5.26-3.2c-2.63-1.6-4.35-4.38-4.59-7.37l-.05-.6,17.95-1.4h0Z"/></clipPath><clipPath id="clippath-126"><path class="cls-7" d="M6204.55,51.9l-.02-.6c-.1-3.1-1.69-5.85-4.25-7.57l-5.11-3.44-4.88,3.76c-2.44,1.88-3.85,4.83-3.75,7.83l.02.6,17.99-.58h0ZM6203.44,17.52l.02.6c.1,3.1-1.31,5.95-3.75,7.83l-4.88,3.76-5.11-3.44c-2.56-1.72-4.15-4.57-4.25-7.57l-.02-.6,17.99-.58h0Z"/></clipPath><clipPath id="clippath-127"><path class="cls-7" d="M6204.55,51.9l-.02-.6c-.1-3.1-1.69-5.85-4.25-7.57l-5.11-3.44-4.88,3.76c-2.44,1.88-3.85,4.83-3.75,7.83l.02.6,17.99-.58h0ZM6203.44,17.52l.02.6c.1,3.1-1.31,5.95-3.75,7.83l-4.88,3.76-5.11-3.44c-2.56-1.72-4.15-4.57-4.25-7.57l-.02-.6,17.99-.58h0Z"/></clipPath><clipPath id="clippath-128"><path class="cls-7" d="M6274.13,52.13v-.6c-.03-3.1-1.55-5.89-4.06-7.67l-5.03-3.56-4.97,3.64c-2.49,1.82-3.96,4.73-3.94,7.73v.6s18-.14,18-.14ZM6273.87,17.73v.6c.03,3.1-1.45,5.91-3.94,7.73l-4.97,3.64-5.03-3.56c-2.51-1.78-4.04-4.67-4.06-7.67v-.6l17.99-.14h0Z"/></clipPath><clipPath id="clippath-129"><path class="cls-7" d="M6274.13,52.13v-.6c-.03-3.1-1.55-5.89-4.06-7.67l-5.03-3.56-4.97,3.64c-2.49,1.82-3.96,4.73-3.94,7.73v.6s18-.14,18-.14ZM6273.87,17.73v.6c.03,3.1-1.45,5.91-3.94,7.73l-4.97,3.64-5.03-3.56c-2.51-1.78-4.04-4.67-4.06-7.67v-.6l17.99-.14h0Z"/></clipPath><clipPath id="clippath-130"><path class="cls-7" d="M6344,52.2v-.6c0-3.1-1.5-5.9-4-7.7l-5-3.6-5,3.6c-2.5,1.8-4,4.7-4,7.7v.6h18ZM6344,17.8v.6c0,3.1-1.5,5.9-4,7.7l-5,3.6-5-3.6c-2.5-1.8-4-4.7-4-7.7v-.6s18,0,18,0Z"/></clipPath></defs><path class="cls-11" d="M35,35l-7.5,5.4c-3.7,2.7-5.9,7-5.9,11.5v4.7h26.8v-4.7c0-4.6-2.2-8.9-5.9-11.5l-7.5-5.4ZM35,35l7.5-5.4c3.7-2.7,5.9-7,5.9-11.5v-4.7h-26.8v4.7c0,4.6,2.2,8.9,5.9,11.5l7.5,5.4ZM17.7,10.6h34.6M17.7,59.4h34.6"/><g class="cls-25"><path class="cls-26" d="M25.5,17.8h19v12h-19v-12Z"/></g><path class="cls-17" d="M35,29v23.2"/><path class="cls-11" d="M105,35l-7.5,5.4c-3.7,2.7-5.9,7-5.9,11.5v4.7h26.8v-4.7c0-4.6-2.2-8.9-5.9-11.5,0,0-7.5-5.4-7.5-5.4ZM105,35l7.5-5.4c3.7-2.7,5.9-7,5.9-11.5v-4.7h-26.8v4.7c0,4.6,2.2,8.9,5.9,11.5,0,0,7.5,5.4,7.5,5.4ZM87.7,10.6h34.6M87.7,59.4h34.6"/><g class="cls-27"><path class="cls-26" d="M95.5,17.8h19v12h-19v-12Z"/></g><path class="cls-15" d="M105,29v23.2"/><path class="cls-11" d="M175,35l-7.5,5.4c-3.7,2.7-5.9,7-5.9,11.5v4.7h26.8v-4.7c0-4.6-2.2-8.9-5.9-11.5l-7.5-5.4h0ZM175,35l7.5-5.4c3.7-2.7,5.9-7,5.9-11.5v-4.7h-26.8v4.7c0,4.6,2.2,8.9,5.9,11.5l7.5,5.4h0ZM157.7,10.6h34.6M157.7,59.4h34.6"/><g class="cls-30"><path class="cls-26" d="M165.5,17.8h19v12h-19v-12Z"/></g><path class="cls-22" d="M175,29v23.2"/><path class="cls-11" d="M245,35l-7.5,5.4c-3.7,2.7-5.9,7-5.9,11.5v4.7h26.8v-4.7c0-4.6-2.2-8.9-5.9-11.5l-7.5-5.4ZM245,35l7.5-5.4c3.7-2.7,5.9-7,5.9-11.5v-4.7h-26.8v4.7c0,4.6,2.2,8.9,5.9,11.5l7.5,5.4h0ZM227.7,10.6h34.6M227.7,59.4h34.6"/><g class="cls-29"><path class="cls-26" d="M235.5,17.8h19v12h-19v-12Z"/></g><path class="cls-4" d="M245,29v23.2"/><path class="cls-11" d="M315,35l-7.5,5.4c-3.7,2.7-5.9,7-5.9,11.5v4.7h26.8v-4.7c0-4.6-2.2-8.9-5.9-11.5l-7.5-5.4ZM315,35l7.5-5.4c3.7-2.7,5.9-7,5.9-11.5v-4.7h-26.8v4.7c0,4.6,2.2,8.9,5.9,11.5l7.5,5.4ZM297.7,10.6h34.6M297.7,59.4h34.6"/><g class="cls-28"><path class="cls-26" d="M305.5,17.8h19v12h-19v-12Z"/></g><path class="cls-14" d="M315,29v23.2"/><path class="cls-11" d="M385,35l-7.5,5.4c-3.7,2.7-5.9,7-5.9,11.5v4.7h26.8v-4.7c0-4.6-2.2-8.9-5.9-11.5l-7.5-5.4ZM385,35l7.5-5.4c3.7-2.7,5.9-7,5.9-11.5v-4.7h-26.8v4.7c0,4.6,2.2,8.9,5.9,11.5l7.5,5.4ZM367.7,10.6h34.6M367.7,59.4h34.6"/><g class="cls-34"><path class="cls-26" d="M375.5,17.8h19v12h-19v-12Z"/></g><path class="cls-18" d="M385,29v23.2"/><path class="cls-11" d="M455,35l-7.5,5.4c-3.7,2.7-5.9,7-5.9,11.5v4.7h26.8v-4.7c0-4.6-2.2-8.9-5.9-11.5l-7.5-5.4ZM455,35l7.5-5.4c3.7-2.7,5.9-7,5.9-11.5v-4.7h-26.8v4.7c0,4.6,2.2,8.9,5.9,11.5l7.5,5.4ZM437.7,10.6h34.6M437.7,59.4h34.6"/><g class="cls-33"><path class="cls-26" d="M445.5,17.8h19v12h-19v-12Z"/></g><path class="cls-21" d="M455,29v23.2"/><path class="cls-11" d="M525,35l-7.5,5.4c-3.7,2.7-5.9,7-5.9,11.5v4.7h26.8v-4.7c0-4.6-2.2-8.9-5.9-11.5l-7.5-5.4ZM525,35l7.5-5.4c3.7-2.7,5.9-7,5.9-11.5v-4.7h-26.8v4.7c0,4.6,2.2,8.9,5.9,11.5l7.5,5.4h0ZM507.7,10.6h34.6M507.7,59.4h34.6"/><g class="cls-31"><path class="cls-26" d="M515.5,17.8h19v12h-19v-12Z"/></g><path class="cls-24" d="M525,29v23.2"/><path class="cls-11" d="M595,35l-7.5,5.4c-3.7,2.7-5.9,7-5.9,11.5v4.7h26.8v-4.7c0-4.6-2.2-8.9-5.9-11.5l-7.5-5.4h0ZM595,35l7.5-5.4c3.7-2.7,5.9-7,5.9-11.5v-4.7h-26.8v4.7c0,4.6,2.2,8.9,5.9,11.5l7.5,5.4h0ZM577.7,10.6h34.6M577.7,59.4h34.6"/><g class="cls-32"><path class="cls-26" d="M585.5,17.8h19v12h-19v-12Z"/></g><path class="cls-5" d="M595,29v23.2"/><path class="cls-11" d="M665,35l-7.5,5.4c-3.7,2.7-5.9,7-5.9,11.5v4.7h26.8v-4.7c0-4.6-2.2-8.9-5.9-11.5l-7.5-5.4h0ZM665,35l7.5-5.4c3.7-2.7,5.9-7,5.9-11.5v-4.7h-26.8v4.7c0,4.6,2.2,8.9,5.9,11.5l7.5,5.4h0ZM647.7,10.6h34.6M647.7,59.4h34.6"/><g class="cls-35"><path class="cls-26" d="M655.5,17.8h19v12h-19v-12Z"/></g><path class="cls-13" d="M665,29v23.2"/><path class="cls-11" d="M735,35l-7.5,5.4c-3.7,2.7-5.9,7-5.9,11.5v4.7h26.8v-4.7c0-4.6-2.2-8.9-5.9-11.5l-7.5-5.4h0ZM735,35l7.5-5.4c3.7-2.7,5.9-7,5.9-11.5v-4.7h-26.8v4.7c0,4.6,2.2,8.9,5.9,11.5l7.5,5.4h0ZM717.7,10.6h34.6M717.7,59.4h34.6"/><g class="cls-110"><path class="cls-26" d="M725.5,17.81h19v11.99h-19v-11.99Z"/></g><path class="cls-2" d="M735,29v23.2"/><path class="cls-11" d="M805,35l-7.5,5.4c-3.7,2.7-5.9,7-5.9,11.5v4.7h26.8v-4.7c0-4.6-2.2-8.9-5.9-11.5l-7.5-5.4h0ZM805,35l7.5-5.4c3.7-2.7,5.9-7,5.9-11.5v-4.7h-26.8v4.7c0,4.6,2.2,8.9,5.9,11.5l7.5,5.4h0ZM787.7,10.6h34.6M787.7,59.4h34.6"/><g class="cls-115"><path class="cls-26" d="M795.5,17.86h19v11.94h-19v-11.94Z"/></g><path class="cls-10" d="M805,29v23.2"/><path class="cls-11" d="M875,35l-7.5,5.4c-3.7,2.7-5.9,7-5.9,11.5v4.7h26.8v-4.7c0-4.6-2.2-8.9-5.9-11.5l-7.5-5.4h0ZM875,35l7.5-5.4c3.7-2.7,5.9-7,5.9-11.5v-4.7h-26.8v4.7c0,4.6,2.2,8.9,5.9,11.5l7.5,5.4h0ZM857.7,10.6h34.6M857.7,59.4h34.6"/><g class="cls-109"><path class="cls-26" d="M865.5,17.96h19v11.84h-19v-11.84Z"/></g><path class="cls-3" d="M875,29v23.2"/><path class="cls-11" d="M945,35l-7.5,5.4c-3.7,2.7-5.9,7-5.9,11.5v4.7h26.8v-4.7c0-4.6-2.2-8.9-5.9-11.5l-7.5-5.4h0ZM945,35l7.5-5.4c3.7-2.7,5.9-7,5.9-11.5v-4.7h-26.8v4.7c0,4.6,2.2,8.9,5.9,11.5l7.5,5.4h0ZM927.7,10.6h34.6M927.7,59.4h34.6"/><g class="cls-108"><path class="cls-26" d="M935.5,18.12h19v11.68h-19v-11.68Z"/></g><path class="cls-12" d="M945,29v23.2"/><path class="cls-11" d="M1015,35l-7.5,5.4c-3.7,2.7-5.9,7-5.9,11.5v4.7h26.8v-4.7c0-4.6-2.2-8.9-5.9-11.5l-7.5-5.4ZM1015,35l7.5-5.4c3.7-2.7,5.9-7,5.9-11.5v-4.7h-26.8v4.7c0,4.6,2.2,8.9,5.9,11.5l7.5,5.4h0ZM997.7,10.6h34.6M997.7,59.4h34.6"/><g class="cls-107"><path class="cls-26" d="M1005.5,18.36h19v11.44h-19v-11.44Z"/></g><path class="cls-19" d="M1015,29v23.2"/><path class="cls-11" d="M1085,35l-7.5,5.4c-3.7,2.7-5.9,7-5.9,11.5v4.7h26.8v-4.7c0-4.6-2.2-8.9-5.9-11.5l-7.5-5.4ZM1085,35l7.5-5.4c3.7-2.7,5.9-7,5.9-11.5v-4.7h-26.8v4.7c0,4.6,2.2,8.9,5.9,11.5l7.5,5.4ZM1067.7,10.6h34.6M1067.7,59.4h34.6"/><g class="cls-111"><path class="cls-26" d="M1075.5,18.69h19v11.11h-19s0-11.11,0-11.11Z"/></g><path class="cls-8" d="M1085,29v23.2"/><path class="cls-11" d="M1155,35l-7.5,5.4c-3.7,2.7-5.9,7-5.9,11.5v4.7h26.8v-4.7c0-4.6-2.2-8.9-5.9-11.5l-7.5-5.4ZM1155,35l7.5-5.4c3.7-2.7,5.9-7,5.9-11.5v-4.7h-26.8v4.7c0,4.6,2.2,8.9,5.9,11.5l7.5,5.4ZM1137.7,10.6h34.6M1137.7,59.4h34.6"/><g class="cls-113"><path class="cls-26" d="M1145.5,19.13h19v10.67h-19v-10.67Z"/></g><path class="cls-16" d="M1155,29v23.2"/><path class="cls-11" d="M1225,35l-7.5,5.4c-3.7,2.7-5.9,7-5.9,11.5v4.7h26.8v-4.7c0-4.6-2.2-8.9-5.9-11.5l-7.5-5.4ZM1225,35l7.5-5.4c3.7-2.7,5.9-7,5.9-11.5v-4.7h-26.8v4.7c0,4.6,2.2,8.9,5.9,11.5l7.5,5.4ZM1207.7,10.6h34.6M1207.7,59.4h34.6"/><g class="cls-112"><path class="cls-26" d="M1215.5,19.7h19v10.1h-19v-10.1Z"/></g><path class="cls-20" d="M1225,29v23.2"/><path class="cls-11" d="M1295,35l-7.5,5.4c-3.7,2.7-5.9,7-5.9,11.5v4.7h26.8v-4.7c0-4.6-2.2-8.9-5.9-11.5l-7.5-5.4ZM1295,35l7.5-5.4c3.7-2.7,5.9-7,5.9-11.5v-4.7h-26.8v4.7c0,4.6,2.2,8.9,5.9,11.5l7.5,5.4ZM1277.7,10.6h34.6M1277.7,59.4h34.6"/><g class="cls-116"><path class="cls-26" d="M1285.5,20.4h19v9.4h-19v-9.4Z"/></g><g class="cls-114"><path class="cls-26" d="M1285.5,52.19h19-19s0,0,0,0Z"/></g><path class="cls-1" d="M1295,29v23.2"/><path class="cls-11" d="M1365,35l-7.5,5.4c-3.7,2.7-5.9,7-5.9,11.5v4.7h26.8v-4.7c0-4.6-2.2-8.9-5.9-11.5l-7.5-5.4ZM1365,35l7.5-5.4c3.7-2.7,5.9-7,5.9-11.5v-4.7h-26.8v4.7c0,4.6,2.2,8.9,5.9,11.5l7.5,5.4ZM1347.7,10.6h34.6M1347.7,59.4h34.6"/><g class="cls-36"><path class="cls-26" d="M1355.5,21.23h19v8.57h-19v-8.57Z"/></g><g class="cls-37"><path class="cls-26" d="M1355.5,52.12h19v.08h-19v-.08Z"/></g><path class="cls-6" d="M1365,29v23.2"/><path class="cls-11" d="M1435,35l-7.5,5.4c-3.7,2.7-5.9,7-5.9,11.5v4.7h26.8v-4.7c0-4.6-2.2-8.9-5.9-11.5l-7.5-5.4ZM1435,35l7.5-5.4c3.7-2.7,5.9-7,5.9-11.5v-4.7h-26.8v4.7c0,4.6,2.2,8.9,5.9,11.5l7.5,5.4ZM1417.7,10.6h34.6M1417.7,59.4h34.6"/><g class="cls-40"><path class="cls-26" d="M1425.5,22.13h19v7.67h-19v-7.67Z"/></g><g class="cls-39"><path class="cls-26" d="M1425.5,51.98h19v.22h-19v-.22Z"/></g><path class="cls-9" d="M1435,29v23.2"/><path class="cls-11" d="M1505,35l-7.5,5.4c-3.7,2.7-5.9,7-5.9,11.5v4.7h26.8v-4.7c0-4.6-2.2-8.9-5.9-11.5l-7.5-5.4ZM1505,35l7.5-5.4c3.7-2.7,5.9-7,5.9-11.5v-4.7h-26.8v4.7c0,4.6,2.2,8.9,5.9,11.5l7.5,5.4ZM1487.7,10.6h34.6M1487.7,59.4h34.6"/><g class="cls-38"><path class="cls-26" d="M1495.5,23.05h19v6.75h-19v-6.75Z"/></g><g class="cls-41"><path class="cls-26" d="M1495.5,51.77h19v.43h-19v-.43Z"/></g><path class="cls-23" d="M1505,29v23.2"/><path class="cls-11" d="M1575,35l-7.5,5.4c-3.7,2.7-5.9,7-5.9,11.5v4.7h26.8v-4.7c0-4.6-2.2-8.9-5.9-11.5l-7.5-5.4ZM1575,35l7.5-5.4c3.7-2.7,5.9-7,5.9-11.5v-4.7h-26.8v4.7c0,4.6,2.2,8.9,5.9,11.5l7.5,5.4ZM1557.7,10.6h34.6M1557.7,59.4h34.6"/><g class="cls-64"><path class="cls-26" d="M1565.5,23.91h19v5.89h-19v-5.89Z"/></g><g class="cls-62"><path class="cls-26" d="M1565.5,51.45h19v.75h-19v-.75Z"/></g><path class="cls-23" d="M1575,29v23.2"/><path class="cls-11" d="M1645,35l-7.5,5.4c-3.7,2.7-5.9,7-5.9,11.5v4.7h26.8v-4.7c0-4.6-2.2-8.9-5.9-11.5l-7.5-5.4ZM1645,35l7.5-5.4c3.7-2.7,5.9-7,5.9-11.5v-4.7h-26.8v4.7c0,4.6,2.2,8.9,5.9,11.5l7.5,5.4ZM1627.7,10.6h34.6M1627.7,59.4h34.6"/><g class="cls-63"><path class="cls-26" d="M1635.5,24.7h19v5.1h-19v-5.1Z"/></g><g class="cls-65"><path class="cls-26" d="M1635.5,51.01h19v1.19h-19v-1.19Z"/></g><path class="cls-23" d="M1645,29v23.2"/><path class="cls-11" d="M1715,35l-7.5,5.4c-3.7,2.7-5.9,7-5.9,11.5v4.7h26.8v-4.7c0-4.6-2.2-8.9-5.9-11.5l-7.5-5.4ZM1715,35l7.5-5.4c3.7-2.7,5.9-7,5.9-11.5v-4.7h-26.8v4.7c0,4.6,2.2,8.9,5.9,11.5l7.5,5.4ZM1697.7,10.6h34.6M1697.7,59.4h34.6"/><g class="cls-73"><path class="cls-26" d="M1705.5,25.4h19v4.4h-19v-4.4Z"/></g><g class="cls-75"><path class="cls-26" d="M1705.5,50.41h19v1.79h-19v-1.79Z"/></g><path class="cls-23" d="M1715,29v23.2"/><path class="cls-11" d="M1785,35l-7.5,5.4c-3.7,2.7-5.9,7-5.9,11.5v4.7h26.8v-4.7c0-4.6-2.2-8.9-5.9-11.5l-7.5-5.4ZM1785,35l7.5-5.4c3.7-2.7,5.9-7,5.9-11.5v-4.7h-26.8v4.7c0,4.6,2.2,8.9,5.9,11.5l7.5,5.4ZM1767.7,10.6h34.6M1767.7,59.4h34.6"/><g class="cls-72"><path class="cls-26" d="M1775.5,26.01h19v3.79h-19s0-3.79,0-3.79Z"/></g><g class="cls-71"><path class="cls-26" d="M1775.5,49.66h19v2.54h-19v-2.54Z"/></g><path class="cls-23" d="M1785,29v23.2"/><path class="cls-11" d="M1855,35l-7.5,5.4c-3.7,2.7-5.9,7-5.9,11.5v4.7h26.8v-4.7c0-4.6-2.2-8.9-5.9-11.5l-7.5-5.4ZM1855,35l7.5-5.4c3.7-2.7,5.9-7,5.9-11.5v-4.7h-26.8v4.7c0,4.6,2.2,8.9,5.9,11.5l7.5,5.4ZM1837.7,10.6h34.6M1837.7,59.4h34.6"/><g class="cls-66"><path class="cls-26" d="M1845.5,26.55h19v3.25h-19v-3.25Z"/></g><g class="cls-67"><path class="cls-26" d="M1845.5,48.75h19v3.45h-19v-3.45Z"/></g><path class="cls-23" d="M1855,29v23.2"/><path class="cls-11" d="M1925,35l-7.5,5.4c-3.7,2.7-5.9,7-5.9,11.5v4.7h26.8v-4.7c0-4.6-2.2-8.9-5.9-11.5l-7.5-5.4ZM1925,35l7.5-5.4c3.7-2.7,5.9-7,5.9-11.5v-4.7h-26.8v4.7c0,4.6,2.2,8.9,5.9,11.5l7.5,5.4ZM1907.7,10.6h34.6M1907.7,59.4h34.6"/><g class="cls-68"><path class="cls-26" d="M1915.5,27.02h19v2.78h-19v-2.78Z"/></g><g class="cls-69"><path class="cls-26" d="M1915.5,47.75h19v4.45h-19v-4.45Z"/></g><path class="cls-23" d="M1925,29v23.2"/><path class="cls-11" d="M1995,35l-7.5,5.4c-3.7,2.7-5.9,7-5.9,11.5v4.7h26.8v-4.7c0-4.6-2.2-8.9-5.9-11.5l-7.5-5.4ZM1995,35l7.5-5.4c3.7-2.7,5.9-7,5.9-11.5v-4.7h-26.8v4.7c0,4.6,2.2,8.9,5.9,11.5l7.5,5.4ZM1977.7,10.6h34.6M1977.7,59.4h34.6"/><g class="cls-74"><path class="cls-26" d="M1985.5,27.42h19v2.38h-19s0-2.38,0-2.38Z"/></g><g class="cls-70"><path class="cls-26" d="M1985.5,46.75h19v5.45h-19v-5.45Z"/></g><path class="cls-23" d="M1995,29v23.2"/><path class="cls-11" d="M2065,35l-7.5,5.4c-3.7,2.7-5.9,7-5.9,11.5v4.7h26.8v-4.7c0-4.6-2.2-8.9-5.9-11.5l-7.5-5.4h0ZM2065,35l7.5-5.4c3.7-2.7,5.9-7,5.9-11.5v-4.7h-26.8v4.7c0,4.6,2.2,8.9,5.9,11.5l7.5,5.4h0ZM2047.7,10.6h34.6M2047.7,59.4h34.6"/><g class="cls-44"><path class="cls-26" d="M2055.5,27.78h19v2.02h-19v-2.02Z"/></g><g class="cls-46"><path class="cls-26" d="M2055.5,45.82h19v6.38h-19v-6.38Z"/></g><path class="cls-23" d="M2065,29v23.2"/><path class="cls-11" d="M2135,35l-7.5,5.4c-3.7,2.7-5.9,7-5.9,11.5v4.7h26.8v-4.7c0-4.6-2.2-8.9-5.9-11.5l-7.5-5.4h0ZM2135,35l7.5-5.4c3.7-2.7,5.9-7,5.9-11.5v-4.7h-26.8v4.7c0,4.6,2.2,8.9,5.9,11.5l7.5,5.4h0ZM2117.7,10.6h34.6M2117.7,59.4h34.6"/><g class="cls-45"><path class="cls-26" d="M2125.5,28.1h19v1.7h-19v-1.7Z"/></g><g class="cls-48"><path class="cls-26" d="M2125.5,44.99h19v7.21h-19v-7.21Z"/></g><path class="cls-23" d="M2135,29v23.2"/><path class="cls-11" d="M2205,35l-7.5,5.4c-3.7,2.7-5.9,7-5.9,11.5v4.7h26.8v-4.7c0-4.6-2.2-8.9-5.9-11.5l-7.5-5.4h0ZM2205,35l7.5-5.4c3.7-2.7,5.9-7,5.9-11.5v-4.7h-26.8v4.7c0,4.6,2.2,8.9,5.9,11.5l7.5,5.4h0ZM2187.7,10.6h34.6M2187.7,59.4h34.6"/><g class="cls-42"><path class="cls-26" d="M2195.5,28.37h19v1.43h-19v-1.43Z"/></g><g class="cls-43"><path class="cls-26" d="M2195.5,44.26h19v7.94h-19v-7.94Z"/></g><path class="cls-23" d="M2205,29.01v21.99"/><path class="cls-11" d="M2275,35l-7.5,5.4c-3.7,2.7-5.9,7-5.9,11.5v4.7h26.8v-4.7c0-4.6-2.2-8.9-5.9-11.5l-7.5-5.4h0ZM2275,35l7.5-5.4c3.7-2.7,5.9-7,5.9-11.5v-4.7h-26.8v4.7c0,4.6,2.2,8.9,5.9,11.5l7.5,5.4h0ZM2257.7,10.6h34.6M2257.7,59.4h34.6"/><g class="cls-49"><path class="cls-26" d="M2265.5,28.61h19v1.19h-19v-1.19Z"/></g><g class="cls-47"><path class="cls-26" d="M2265.5,43.64h19v8.56h-19v-8.56Z"/></g><path class="cls-23" d="M2275,29.12v21.88"/><path class="cls-11" d="M2345,35l-7.5,5.4c-3.7,2.7-5.9,7-5.9,11.5v4.7h26.8v-4.7c0-4.6-2.2-8.9-5.9-11.5l-7.5-5.4h0ZM2345,35l7.5-5.4c3.7-2.7,5.9-7,5.9-11.5v-4.7h-26.8v4.7c0,4.6,2.2,8.9,5.9,11.5l7.5,5.4h0ZM2327.7,10.6h34.6M2327.7,59.4h34.6"/><g class="cls-50"><path class="cls-26" d="M2335.5,43.1h19v9.1h-19v-9.1Z"/></g><path class="cls-23" d="M2345,30.37v20.63"/><path class="cls-11" d="M2415,35l-7.5,5.4c-3.7,2.7-5.9,7-5.9,11.5v4.7h26.8v-4.7c0-4.6-2.2-8.9-5.9-11.5l-7.5-5.4h0ZM2415,35l7.5-5.4c3.7-2.7,5.9-7,5.9-11.5v-4.7h-26.8v4.7c0,4.6,2.2,8.9,5.9,11.5l7.5,5.4h0ZM2397.7,10.6h34.6M2397.7,59.4h34.6"/><g class="cls-86"><path class="cls-26" d="M2405.5,42.64h19v9.56h-19v-9.56Z"/></g><path class="cls-23" d="M2415,30.8v20.2"/><path class="cls-11" d="M2485,35l-7.5,5.4c-3.7,2.7-5.9,7-5.9,11.5v4.7h26.8v-4.7c0-4.6-2.2-8.9-5.9-11.5l-7.5-5.4h0ZM2485,35l7.5-5.4c3.7-2.7,5.9-7,5.9-11.5v-4.7h-26.8v4.7c0,4.6,2.2,8.9,5.9,11.5l7.5,5.4h0ZM2467.7,10.6h34.6M2467.7,59.4h34.6"/><g class="cls-85"><path class="cls-26" d="M2475.5,42.24h19v9.96h-19v-9.96Z"/></g><path class="cls-23" d="M2485,31.46v19.54"/><path class="cls-11" d="M2555,35l-7.5,5.4c-3.7,2.7-5.9,7-5.9,11.5v4.7h26.8v-4.7c0-4.6-2.2-8.9-5.9-11.5l-7.5-5.4h0ZM2555,35l7.5-5.4c3.7-2.7,5.9-7,5.9-11.5v-4.7h-26.8v4.7c0,4.6,2.2,8.9,5.9,11.5l7.5,5.4h0ZM2537.7,10.6h34.6M2537.7,59.4h34.6"/><g class="cls-87"><path class="cls-26" d="M2545.5,41.89h19v10.31h-19v-10.31Z"/></g><path class="cls-23" d="M2555,32.41v18.59"/><path class="cls-11" d="M2625,35l-7.5,5.4c-3.7,2.7-5.9,7-5.9,11.5v4.7h26.8v-4.7c0-4.6-2.2-8.9-5.9-11.5l-7.5-5.4h0ZM2625,35l7.5-5.4c3.7-2.7,5.9-7,5.9-11.5v-4.7h-26.8v4.7c0,4.6,2.2,8.9,5.9,11.5l7.5,5.4h0ZM2607.7,10.6h34.6M2607.7,59.4h34.6"/><g class="cls-88"><path class="cls-26" d="M2615.5,41.6h19v10.6h-19v-10.6Z"/></g><path class="cls-23" d="M2625,33.7v17.3"/><path class="cls-11" d="M2695,35l-7.5,5.4c-3.7,2.7-5.9,7-5.9,11.5v4.7h26.8v-4.7c0-4.6-2.2-8.9-5.9-11.5l-7.5-5.4h0ZM2695,35l7.5-5.4c3.7-2.7,5.9-7,5.9-11.5v-4.7h-26.8v4.7c0,4.6,2.2,8.9,5.9,11.5l7.5,5.4h0ZM2677.7,10.6h34.6M2677.7,59.4h34.6"/><g class="cls-95"><path class="cls-26" d="M2685.5,41.34h19v10.86h-19v-10.86Z"/></g><path class="cls-23" d="M2695,34.36v16.64"/><path class="cls-11" d="M2765,35l-7.5,5.4c-3.7,2.7-5.9,7-5.9,11.5v4.7h26.8v-4.7c0-4.6-2.2-8.9-5.9-11.5l-7.5-5.4h0ZM2765,35l7.5-5.4c3.7-2.7,5.9-7,5.9-11.5v-4.7h-26.8v4.7c0,4.6,2.2,8.9,5.9,11.5l7.5,5.4h0ZM2747.7,10.6h34.6M2747.7,59.4h34.6"/><g class="cls-90"><path class="cls-26" d="M2755.5,41.12h19v11.08h-19s0-11.08,0-11.08Z"/></g><path class="cls-23" d="M2765,36.31v14.69"/><path class="cls-11" d="M2835,35l-7.5,5.4c-3.7,2.7-5.9,7-5.9,11.5v4.7h26.8v-4.7c0-4.6-2.2-8.9-5.9-11.5l-7.5-5.4h0ZM2835,35l7.5-5.4c3.7-2.7,5.9-7,5.9-11.5v-4.7h-26.8v4.7c0,4.6,2.2,8.9,5.9,11.5l7.5,5.4h0ZM2817.7,10.6h34.6M2817.7,59.4h34.6"/><g class="cls-97"><path class="cls-26" d="M2825.5,40.92h19v11.28h-19v-11.28Z"/></g><path class="cls-23" d="M2835,38.36v12.64"/><path class="cls-11" d="M2905,35l-7.5,5.4c-3.7,2.7-5.9,7-5.9,11.5v4.7h26.8v-4.7c0-4.6-2.2-8.9-5.9-11.5l-7.5-5.4h0ZM2905,35l7.5-5.4c3.7-2.7,5.9-7,5.9-11.5v-4.7h-26.8v4.7c0,4.6,2.2,8.9,5.9,11.5l7.5,5.4h0ZM2887.7,10.6h34.6M2887.7,59.4h34.6"/><g class="cls-91"><path class="cls-26" d="M2895.5,40.76h19v11.44h-19v-11.44Z"/></g><path class="cls-23" d="M2905,40.3v10.7"/><path class="cls-11" d="M2975,35l-7.5,5.4c-3.7,2.7-5.9,7-5.9,11.5v4.7h26.8v-4.7c0-4.6-2.2-8.9-5.9-11.5l-7.5-5.4h0ZM2975,35l7.5-5.4c3.7-2.7,5.9-7,5.9-11.5v-4.7h-26.8v4.7c0,4.6,2.2,8.9,5.9,11.5l7.5,5.4h0ZM2957.7,10.6h34.6M2957.7,59.4h34.6"/><g class="cls-96"><path class="cls-26" d="M2965.5,29.75h19v.05h-19v-.05Z"/></g><g class="cls-98"><path class="cls-26" d="M2965.5,40.63h19v11.57h-19v-11.57Z"/></g><path class="cls-23" d="M2975,42.03v8.97"/><path class="cls-11" d="M3045,35l-7.5,5.4c-3.7,2.7-5.9,7-5.9,11.5v4.7h26.8v-4.7c0-4.6-2.2-8.9-5.9-11.5l-7.5-5.4h0ZM3045,35l7.5-5.4c3.7-2.7,5.9-7,5.9-11.5v-4.7h-26.8v4.7c0,4.6,2.2,8.9,5.9,11.5l7.5,5.4h0ZM3027.7,10.6h34.6M3027.7,59.4h34.6"/><g class="cls-93"><path class="cls-26" d="M3035.5,29.78h19v.02h-19v-.02Z"/></g><g class="cls-92"><path class="cls-26" d="M3035.5,40.51h19v11.69h-19v-11.69Z"/></g><path class="cls-23" d="M3045,43.51v7.49"/><path class="cls-11" d="M3115,35l-7.5,5.4c-3.7,2.7-5.9,7-5.9,11.5v4.7h26.8v-4.7c0-4.6-2.2-8.9-5.9-11.5l-7.5-5.4h0ZM3115,35l7.5-5.4c3.7-2.7,5.9-7,5.9-11.5v-4.7h-26.8v4.7c0,4.6,2.2,8.9,5.9,11.5l7.5,5.4h0ZM3097.7,10.6h34.6M3097.7,59.4h34.6"/><g class="cls-99"><path class="cls-26" d="M3105.5,40.42h19v11.78h-19v-11.78Z"/></g><path class="cls-23" d="M3115,44.78v6.22"/><path class="cls-11" d="M3185,35l-7.5,5.4c-3.7,2.7-5.9,7-5.9,11.5v4.7h26.8v-4.7c0-4.6-2.2-8.9-5.9-11.5l-7.5-5.4h0ZM3185,35l7.5-5.4c3.7-2.7,5.9-7,5.9-11.5v-4.7h-26.8v4.7c0,4.6,2.2,8.9,5.9,11.5l7.5,5.4h0ZM3167.7,10.6h34.6M3167.7,59.4h34.6"/><g class="cls-103"><path class="cls-26" d="M3175.5,40.34h19v11.86h-19v-11.86Z"/></g><path class="cls-23" d="M3185,45.85v5.15"/><path class="cls-11" d="M3255,35l-7.5,5.4c-3.7,2.7-5.9,7-5.9,11.5v4.7h26.8v-4.7c0-4.6-2.2-8.9-5.9-11.5l-7.5-5.4h0ZM3255,35l7.5-5.4c3.7-2.7,5.9-7,5.9-11.5v-4.7h-26.8v4.7c0,4.6,2.2,8.9,5.9,11.5l7.5,5.4h0ZM3237.7,10.6h34.6M3237.7,59.4h34.6"/><g class="cls-101"><path class="cls-26" d="M3245.5,40.29h19v11.91h-19v-11.91Z"/></g><path class="cls-23" d="M3255,46.75v4.25"/><path class="cls-11" d="M3325,35l-7.5,5.4c-3.7,2.7-5.9,7-5.9,11.5v4.7h26.8v-4.7c0-4.6-2.2-8.9-5.9-11.5l-7.5-5.4h0ZM3325,35l7.5-5.4c3.7-2.7,5.9-7,5.9-11.5v-4.7h-26.8v4.7c0,4.6,2.2,8.9,5.9,11.5l7.5,5.4h0ZM3307.7,10.6h34.6M3307.7,59.4h34.6"/><g class="cls-94"><path class="cls-26" d="M3315.5,40.24h19v11.96h-19v-11.96Z"/></g><path class="cls-23" d="M3325,47.53v3.47"/><path class="cls-11" d="M3395,35l-7.5,5.4c-3.7,2.7-5.9,7-5.9,11.5v4.7h26.8v-4.7c0-4.6-2.2-8.9-5.9-11.5l-7.5-5.4h0ZM3395,35l7.5-5.4c3.7-2.7,5.9-7,5.9-11.5v-4.7h-26.8v4.7c0,4.6,2.2,8.9,5.9,11.5l7.5,5.4h0ZM3377.7,10.6h34.6M3377.7,59.4h34.6"/><g class="cls-105"><path class="cls-26" d="M3385.5,40.22h19v11.98h-19v-11.98Z"/></g><path class="cls-23" d="M3395,48.18v2.82"/><path class="cls-11" d="M3465,35l-7.5,5.4c-3.7,2.7-5.9,7-5.9,11.5v4.7h26.8v-4.7c0-4.6-2.2-8.9-5.9-11.5l-7.5-5.4h0ZM3465,35l7.5-5.4c3.7-2.7,5.9-7,5.9-11.5v-4.7h-26.8v4.7c0,4.6,2.2,8.9,5.9,11.5l7.5,5.4h0ZM3447.7,10.6h34.6M3447.7,59.4h34.6"/><g class="cls-100"><path class="cls-26" d="M3455.5,40.2h19v12h-19v-12Z"/></g><path class="cls-23" d="M3465,48.74v2.26"/><path class="cls-11" d="M3535,35l-7.5,5.4c-3.7,2.7-5.9,7-5.9,11.5v4.7h26.8v-4.7c0-4.6-2.2-8.9-5.9-11.5l-7.5-5.4h0ZM3535,35l7.5-5.4c3.7-2.7,5.9-7,5.9-11.5v-4.7h-26.8v4.7c0,4.6,2.2,8.9,5.9,11.5l7.5,5.4h0ZM3517.7,10.6h34.6M3517.7,59.4h34.6"/><g class="cls-106"><path class="cls-26" d="M3525.5,40.2h19v12h-19v-12Z"/></g><path class="cls-23" d="M3535,49.21v1.79"/><path class="cls-11" d="M3605,35l-7.5,5.4c-3.7,2.7-5.9,7-5.9,11.5v4.7h26.8v-4.7c0-4.6-2.2-8.9-5.9-11.5l-7.5-5.4h0ZM3605,35l7.5-5.4c3.7-2.7,5.9-7,5.9-11.5v-4.7h-26.8v4.7c0,4.6,2.2,8.9,5.9,11.5l7.5,5.4h0ZM3587.7,10.6h34.6M3587.7,59.4h34.6"/><g class="cls-104"><path class="cls-26" d="M3595.5,40.2h19v12h-19v-12Z"/></g><path class="cls-23" d="M3605,49.61v1.39"/><path class="cls-11" d="M3675,35l-7.5,5.4c-3.7,2.7-5.9,7-5.9,11.5v4.7h26.8v-4.7c0-4.6-2.2-8.9-5.9-11.5l-7.5-5.4h0ZM3675,35l7.5-5.4c3.7-2.7,5.9-7,5.9-11.5v-4.7h-26.8v4.7c0,4.6,2.2,8.9,5.9,11.5l7.5,5.4h0ZM3657.7,10.6h34.6M3657.7,59.4h34.6"/><g class="cls-102"><path class="cls-26" d="M3665.5,40.2h19v12h-19v-12Z"/></g><path class="cls-23" d="M3675,49.95v1.05"/><path class="cls-11" d="M3745,35l-7.5,5.4c-3.7,2.7-5.9,7-5.9,11.5v4.7h26.8v-4.7c0-4.6-2.2-8.9-5.9-11.5l-7.5-5.4h0ZM3745,35l7.5-5.4c3.7-2.7,5.9-7,5.9-11.5v-4.7h-26.8v4.7c0,4.6,2.2,8.9,5.9,11.5l7.5,5.4h0ZM3727.7,10.6h34.6M3727.7,59.4h34.6"/><g class="cls-89"><path class="cls-26" d="M3735.5,40.2h19v12h-19v-12Z"/></g><path class="cls-23" d="M3745,50.23v.77"/><path class="cls-11" d="M3815,35l-7.5,5.4c-3.7,2.7-5.9,7-5.9,11.5v4.7h26.8v-4.7c0-4.6-2.2-8.9-5.9-11.5l-7.5-5.4h0ZM3815,35l7.5-5.4c3.7-2.7,5.9-7,5.9-11.5v-4.7h-26.8v4.7c0,4.6,2.2,8.9,5.9,11.5l7.5,5.4h0ZM3797.7,10.6h34.6M3797.7,59.4h34.6"/><g class="cls-57"><path class="cls-26" d="M3805.5,40.2h19v12h-19v-12Z"/></g><path class="cls-23" d="M3815,50.46v.54"/><path class="cls-11" d="M3885,35l-7.5,5.4c-3.7,2.7-5.9,7-5.9,11.5v4.7h26.8v-4.7c0-4.6-2.2-8.9-5.9-11.5l-7.5-5.4h0ZM3885,35l7.5-5.4c3.7-2.7,5.9-7,5.9-11.5v-4.7h-26.8v4.7c0,4.6,2.2,8.9,5.9,11.5l7.5,5.4h0ZM3867.7,10.6h34.6M3867.7,59.4h34.6"/><g class="cls-54"><path class="cls-26" d="M3875.5,40.2h19v12h-19v-12Z"/></g><path class="cls-23" d="M3885,50.64v.36"/><path class="cls-11" d="M3955,35l-7.5,5.4c-3.7,2.7-5.9,7-5.9,11.5v4.7h26.8v-4.7c0-4.6-2.2-8.9-5.9-11.5l-7.5-5.4h0ZM3955,35l7.5-5.4c3.7-2.7,5.9-7,5.9-11.5v-4.7h-26.8v4.7c0,4.6,2.2,8.9,5.9,11.5l7.5,5.4h0ZM3937.7,10.6h34.6M3937.7,59.4h34.6"/><g class="cls-59"><path class="cls-26" d="M3945.5,40.2h19v12h-19v-12Z"/></g><path class="cls-23" d="M3955,50.78v.22"/><path class="cls-11" d="M4025,35l-7.5,5.4c-3.7,2.7-5.9,7-5.9,11.5v4.7h26.8v-4.7c0-4.6-2.2-8.9-5.9-11.5l-7.5-5.4h0ZM4025,35l7.5-5.4c3.7-2.7,5.9-7,5.9-11.5v-4.7h-26.8v4.7c0,4.6,2.2,8.9,5.9,11.5l7.5,5.4h0ZM4007.7,10.6h34.6M4007.7,59.4h34.6"/><g class="cls-55"><path class="cls-26" d="M4015.5,40.2h19v12h-19v-12Z"/></g><path class="cls-23" d="M4025,50.88v.12"/><path class="cls-11" d="M4095,35l-7.5,5.4c-3.7,2.7-5.9,7-5.9,11.5v4.7h26.8v-4.7c0-4.6-2.2-8.9-5.9-11.5l-7.5-5.4ZM4095,35l7.5-5.4c3.7-2.7,5.9-7,5.9-11.5v-4.7h-26.8v4.7c0,4.6,2.2,8.9,5.9,11.5l7.5,5.4h0ZM4077.7,10.6h34.6M4077.7,59.4h34.6"/><g class="cls-51"><path class="cls-26" d="M4085.5,40.2h19v12h-19v-12Z"/></g><path class="cls-23" d="M4095,50.95v.05"/><path class="cls-11" d="M4165,35l-7.5,5.4c-3.7,2.7-5.9,7-5.9,11.5v4.7h26.8v-4.7c0-4.6-2.2-8.9-5.9-11.5l-7.5-5.4ZM4165,35l7.5-5.4c3.7-2.7,5.9-7,5.9-11.5v-4.7h-26.8v4.7c0,4.6,2.2,8.9,5.9,11.5l7.5,5.4ZM4147.7,10.6h34.6M4147.7,59.4h34.6"/><g class="cls-56"><path class="cls-26" d="M4155.5,40.2h19v12h-19v-12Z"/></g><path class="cls-11" d="M4235,35l-7.5,5.4c-3.7,2.7-5.9,7-5.9,11.5v4.7h26.8v-4.7c0-4.6-2.2-8.9-5.9-11.5l-7.5-5.4ZM4235,35l7.5-5.4c3.7-2.7,5.9-7,5.9-11.5v-4.7h-26.8v4.7c0,4.6,2.2,8.9,5.9,11.5l7.5,5.4ZM4217.7,10.6h34.6M4217.7,59.4h34.6"/><g class="cls-53"><path class="cls-26" d="M4225.5,40.2h19v12h-19v-12Z"/></g><path class="cls-11" d="M4305,35l-7.5,5.4c-3.7,2.7-5.9,7-5.9,11.5v4.7h26.8v-4.7c0-4.6-2.2-8.9-5.9-11.5l-7.5-5.4ZM4305,35l7.5-5.4c3.7-2.7,5.9-7,5.9-11.5v-4.7h-26.8v4.7c0,4.6,2.2,8.9,5.9,11.5l7.5,5.4ZM4287.7,10.6h34.6M4287.7,59.4h34.6"/><g class="cls-58"><path class="cls-26" d="M4295.5,40.2h19v12h-19v-12Z"/></g><path class="cls-11" d="M4375,35l-7.5,5.4c-3.7,2.7-5.9,7-5.9,11.5v4.7h26.8v-4.7c0-4.6-2.2-8.9-5.9-11.5l-7.5-5.4ZM4375,35l7.5-5.4c3.7-2.7,5.9-7,5.9-11.5v-4.7h-26.8v4.7c0,4.6,2.2,8.9,5.9,11.5l7.5,5.4ZM4357.7,10.6h34.6M4357.7,59.4h34.6"/><g class="cls-52"><path class="cls-26" d="M4365.5,40.2h19v12h-19v-12Z"/></g><path class="cls-11" d="M4445,35l-7.5,5.4c-3.7,2.7-5.9,7-5.9,11.5v4.7h26.8v-4.7c0-4.6-2.2-8.9-5.9-11.5l-7.5-5.4ZM4445,35l7.5-5.4c3.7-2.7,5.9-7,5.9-11.5v-4.7h-26.8v4.7c0,4.6,2.2,8.9,5.9,11.5l7.5,5.4ZM4427.7,10.6h34.6M4427.7,59.4h34.6"/><g class="cls-61"><path class="cls-26" d="M4435.5,40.2h19v12h-19v-12Z"/></g><path class="cls-11" d="M4515,35l-7.5,5.4c-3.7,2.7-5.9,7-5.9,11.5v4.7h26.8v-4.7c0-4.6-2.2-8.9-5.9-11.5l-7.5-5.4ZM4515,35l7.5-5.4c3.7-2.7,5.9-7,5.9-11.5v-4.7h-26.8v4.7c0,4.6,2.2,8.9,5.9,11.5l7.5,5.4ZM4497.7,10.6h34.6M4497.7,59.4h34.6"/><g class="cls-82"><path class="cls-26" d="M4505.5,40.2h19v12h-19v-12Z"/></g><path class="cls-11" d="M4585,35l-7.5,5.4c-3.7,2.7-5.9,7-5.9,11.5v4.7h26.8v-4.7c0-4.6-2.2-8.9-5.9-11.5l-7.5-5.4ZM4585,35l7.5-5.4c3.7-2.7,5.9-7,5.9-11.5v-4.7h-26.8v4.7c0,4.6,2.2,8.9,5.9,11.5l7.5,5.4ZM4567.7,10.6h34.6M4567.7,59.4h34.6"/><g class="cls-80"><path class="cls-26" d="M4575.5,40.2h19v12h-19v-12Z"/></g><path class="cls-11" d="M4655,35l-7.5,5.4c-3.7,2.7-5.9,7-5.9,11.5v4.7h26.8v-4.7c0-4.6-2.2-8.9-5.9-11.5l-7.5-5.4ZM4655,35l7.5-5.4c3.7-2.7,5.9-7,5.9-11.5v-4.7h-26.8v4.7c0,4.6,2.2,8.9,5.9,11.5l7.5,5.4ZM4637.7,10.6h34.6M4637.7,59.4h34.6"/><g class="cls-83"><path class="cls-26" d="M4645.5,40.2h19v12h-19v-12Z"/></g><path class="cls-11" d="M4725,35l-7.5,5.4c-3.7,2.7-5.9,7-5.9,11.5v4.7h26.8v-4.7c0-4.6-2.2-8.9-5.9-11.5l-7.5-5.4ZM4725,35l7.5-5.4c3.7-2.7,5.9-7,5.9-11.5v-4.7h-26.8v4.7c0,4.6,2.2,8.9,5.9,11.5l7.5,5.4ZM4707.7,10.6h34.6M4707.7,59.4h34.6"/><g class="cls-78"><path class="cls-26" d="M4715.5,40.2h19v12h-19v-12Z"/></g><path class="cls-11" d="M4795,35l-7.5,5.4c-3.7,2.7-5.9,7-5.9,11.5v4.7h26.8v-4.7c0-4.6-2.2-8.9-5.9-11.5l-7.5-5.4ZM4795,35l7.5-5.4c3.7-2.7,5.9-7,5.9-11.5v-4.7h-26.8v4.7c0,4.6,2.2,8.9,5.9,11.5l7.5,5.4ZM4777.7,10.6h34.6M4777.7,59.4h34.6"/><g class="cls-79"><path class="cls-26" d="M4785.5,40.2h19v12h-19v-12Z"/></g><path class="cls-11" d="M4865,35l-7.5,5.4c-3.7,2.7-5.9,7-5.9,11.5v4.7h26.8v-4.7c0-4.6-2.2-8.9-5.9-11.5l-7.5-5.4ZM4865,35l7.5-5.4c3.7-2.7,5.9-7,5.9-11.5v-4.7h-26.8v4.7c0,4.6,2.2,8.9,5.9,11.5l7.5,5.4ZM4847.7,10.6h34.6M4847.7,59.4h34.6"/><g class="cls-76"><path class="cls-26" d="M4855.5,40.2h19v12h-19v-12Z"/></g><path class="cls-11" d="M4935,35l-7.5,5.4c-3.7,2.7-5.9,7-5.9,11.5v4.7h26.8v-4.7c0-4.6-2.2-8.9-5.9-11.5l-7.5-5.4ZM4935,35l7.5-5.4c3.7-2.7,5.9-7,5.9-11.5v-4.7h-26.8v4.7c0,4.6,2.2,8.9,5.9,11.5l7.5,5.4ZM4917.7,10.6h34.6M4917.7,59.4h34.6"/><g class="cls-81"><path class="cls-26" d="M4925.5,40.2h19v12h-19v-12Z"/></g><path class="cls-11" d="M5005,35l-7.5,5.4c-3.7,2.7-5.9,7-5.9,11.5v4.7h26.8v-4.7c0-4.6-2.2-8.9-5.9-11.5l-7.5-5.4ZM5005,35l7.5-5.4c3.7-2.7,5.9-7,5.9-11.5v-4.7h-26.8v4.7c0,4.6,2.2,8.9,5.9,11.5l7.5,5.4ZM4987.7,10.6h34.6M4987.7,59.4h34.6"/><g class="cls-84"><path class="cls-26" d="M4995.5,40.2h19v12h-19v-12Z"/></g><path class="cls-11" d="M5075,35l-7.5,5.4c-3.7,2.7-5.9,7-5.9,11.5v4.7h26.8v-4.7c0-4.6-2.2-8.9-5.9-11.5l-7.5-5.4ZM5075,35l7.5-5.4c3.7-2.7,5.9-7,5.9-11.5v-4.7h-26.8v4.7c0,4.6,2.2,8.9,5.9,11.5l7.5,5.4ZM5057.7,10.6h34.6M5057.7,59.4h34.6"/><g class="cls-60"><path class="cls-26" d="M5065.5,40.2h19v12h-19v-12Z"/></g><path class="cls-11" d="M5145,35l-7.5,5.4c-3.7,2.7-5.9,7-5.9,11.5v4.7h26.8v-4.7c0-4.6-2.2-8.9-5.9-11.5l-7.5-5.4ZM5145,35l7.5-5.4c3.7-2.7,5.9-7,5.9-11.5v-4.7h-26.8v4.7c0,4.6,2.2,8.9,5.9,11.5l7.5,5.4ZM5127.7,10.6h34.6M5127.7,59.4h34.6"/><g class="cls-77"><path class="cls-26" d="M5135.5,40.2h19v12h-19v-12Z"/></g><path class="cls-11" d="M5215,35l-7.5,5.4c-3.7,2.7-5.9,7-5.9,11.5v4.7h26.8v-4.7c0-4.6-2.2-8.9-5.9-11.5l-7.5-5.4ZM5215,35l7.5-5.4c3.7-2.7,5.9-7,5.9-11.5v-4.7h-26.8v4.7c0,4.6,2.2,8.9,5.9,11.5l7.5,5.4ZM5197.7,10.6h34.6M5197.7,59.4h34.6"/><g class="cls-128"><path class="cls-26" d="M5205.5,40.2h19v12h-19v-12Z"/></g><path class="cls-11" d="M5285,35l-7.5,5.4c-3.7,2.7-5.9,7-5.9,11.5v4.7h26.8v-4.7c0-4.6-2.2-8.9-5.9-11.5l-7.5-5.4ZM5285,35l7.5-5.4c3.7-2.7,5.9-7,5.9-11.5v-4.7h-26.8v4.7c0,4.6,2.2,8.9,5.9,11.5l7.5,5.4ZM5267.7,10.6h34.6M5267.7,59.4h34.6"/><g class="cls-134"><path class="cls-26" d="M5275.5,40.2h19v12h-19v-12Z"/></g><path class="cls-11" d="M5355,35l-7.68,5.15c-3.79,2.57-6.13,6.8-6.28,11.3l-.16,4.7,26.79.9.16-4.7c.15-4.6-1.9-8.97-5.51-11.69l-7.32-5.65h0ZM5355,35l7.68-5.15c3.79-2.57,6.13-6.8,6.28-11.3l.16-4.7-26.79-.9-.16,4.7c-.15,4.6,1.9,8.97,5.51,11.69l7.32,5.65h0ZM5338.53,10.04l34.58,1.16M5336.89,58.81l34.58,1.16"/><g class="cls-129"><path class="cls-26" d="M5345.68,29.49l18.99.64-18.99-.64Z"/></g><g class="cls-130"><path class="cls-26" d="M5345.33,39.88l18.99.64-.4,11.99-18.99-.64s.4-11.99.4-11.99Z"/></g><path class="cls-11" d="M5425,35l-8.25,4.16c-4.08,2.09-6.92,5.99-7.62,10.44l-.73,4.64,26.47,4.19.73-4.64c.72-4.54-.78-9.13-4.03-12.28l-6.56-6.51h-.01ZM5425,35l8.25-4.16c4.08-2.09,6.92-5.99,7.62-10.44l.73-4.64-26.47-4.19-.73,4.64c-.72,4.54.78,9.13,4.03,12.28l6.56,6.51h.01ZM5411.72,8.2l34.18,5.41M5404.1,56.4l34.18,5.41"/><g class="cls-133"><path class="cls-26" d="M5416.43,28.38l18.77,2.97-18.77-2.97Z"/></g><g class="cls-127"><path class="cls-26" d="M5414.8,38.65l18.77,2.97-1.87,11.85-18.77-2.97,1.87-11.85Z"/></g><path class="cls-11" d="M5495,35l-9.05,1.87c-4.48.95-8.24,3.98-10.08,8.09l-1.92,4.29,24.46,10.95,1.92-4.29c1.88-4.2,1.63-9.02-.69-12.91l-4.64-7.99h0ZM5495,35l9.05-1.87c4.48-.95,8.24-3.98,10.08-8.09l1.92-4.29-24.46-10.95-1.92,4.29c-1.88,4.2-1.63,9.02.69,12.91l4.64,7.99h0ZM5489.18,5.66l31.58,14.13M5469.24,50.2l31.58,14.13"/><g class="cls-136"><path class="cls-26" d="M5488.45,26.37l17.34,7.76-17.34-7.76Z"/></g><g class="cls-131"><path class="cls-26" d="M5484.2,35.87l17.34,7.76-4.9,10.95-17.34-7.76,4.9-10.95Z"/></g><path class="cls-11" d="M5565,35l-8.96-2.28c-4.45-1.1-9.15-.03-12.6,2.86l-3.6,3.02,17.21,20.54,3.6-3.02c3.53-2.95,5.41-7.4,5.03-11.91l-.68-9.22h0ZM5565,35l8.96,2.28c4.45,1.1,9.15.03,12.6-2.86l3.6-3.02-17.21-20.54-3.6,3.02c-3.53,2.95-5.41,7.4-5.03,11.91l.68,9.22h0ZM5572.6,6.07l22.22,26.52M5535.19,37.41l22.22,26.52"/><g class="cls-135"><path class="cls-26" d="M5562.89,24.38l12.2,14.57s-12.2-14.57-12.2-14.57Z"/></g><g class="cls-132"><path class="cls-26" d="M5554.91,31.06l12.2,14.57-9.2,7.71-12.2-14.57s9.2-7.71,9.2-7.71Z"/></g><path class="cls-11" d="M5635,35l-6.36-6.71c-3.17-3.31-7.73-4.91-12.19-4.31l-4.66.63,3.59,26.56,4.66-.63c4.56-.62,8.53-3.37,10.61-7.39l4.35-8.16h0ZM5635,35l6.36,6.71c3.17,3.31,7.73,4.91,12.19,4.31l4.66-.63-3.59-26.56-4.66.63c-4.56.62-8.53,3.37-10.61,7.39l-4.35,8.16h0ZM5656.86,14.59l4.63,34.29M5608.5,21.12l4.63,34.29"/><g class="cls-120"><path class="cls-26" d="M5638.88,24.89l2.54,18.83s-2.54-18.83-2.54-18.83Z"/></g><g class="cls-119"><path class="cls-26" d="M5628.57,26.28l2.54,18.83-11.89,1.61-2.54-18.83,11.89-1.61Z"/></g><path class="cls-11" d="M5705,35l-2.44-8.91c-1.24-4.41-4.5-7.97-8.71-9.55l-4.4-1.64-9.36,25.11,4.4,1.64c4.31,1.61,9.11,1.05,12.84-1.51l7.68-5.14h-.01ZM5705,35l2.44,8.91c1.24,4.41,4.5,7.97,8.71,9.55l4.4,1.64,9.36-25.11-4.4-1.64c-4.31-1.61-9.11-1.05-12.84,1.51l-7.68,5.14h.01ZM5733.91,27.31l-12.09,32.42M5688.18,10.27l-12.09,32.42"/><g class="cls-118"><path class="cls-26" d="M5713.19,27.92l-6.64,17.8s6.64-17.8,6.64-17.8Z"/></g><g class="cls-117"><path class="cls-26" d="M5703.45,24.28l-6.64,17.8-11.24-4.19,6.64-17.8s11.24,4.19,11.24,4.19Z"/></g><path class="cls-11" d="M5775,35l.91-9.2c.42-4.56-1.35-9.05-4.73-12.03l-3.53-3.11-17.72,20.1,3.53,3.11c3.45,3.04,8.13,4.23,12.53,3.18l9.01-2.06h0ZM5775,35l-.91,9.2c-.42,4.56,1.35,9.05,4.73,12.03l3.53,3.11,17.72-20.1-3.53-3.11c-3.45-3.04-8.13-4.23-12.53-3.18l-9.01,2.06h0ZM5804.74,38.16l-22.88,25.96M5768.14,5.89l-22.88,25.96"/><g class="cls-122"><path class="cls-26" d="M5785.18,31.31l-12.56,14.25s12.56-14.25,12.56-14.25Z"/></g><g class="cls-121"><path class="cls-26" d="M5777.38,24.43l-12.56,14.25-9-7.93,12.56-14.25,9,7.93Z"/></g><path class="cls-11" d="M5845,35l3.29-8.64c1.6-4.29,1.07-9.09-1.41-12.85l-2.59-3.92-22.37,14.75,2.59,3.92c2.53,3.84,6.74,6.22,11.26,6.35l9.23.38h0ZM5845,35l-3.29,8.64c-1.6,4.29-1.07,9.09,1.41,12.85l2.59,3.92,22.37-14.75-2.59-3.92c-2.53-3.84-6.74-6.22-11.26-6.35l-9.23-.38h0ZM5872.88,45.85l-28.88,19.05M5846.01,5.11l-28.88,19.05"/><g class="cls-123"><path class="cls-26" d="M5855.79,34.11l-15.86,10.46,15.86-10.46Z"/></g><g class="cls-124"><path class="cls-26" d="M5850.07,25.43l-15.86,10.46-6.61-10.02,15.86-10.46,6.61,10.02Z"/></g><path class="cls-11" d="M5915,35l4.89-7.84c2.4-3.9,2.8-8.72,1.09-12.88l-1.79-4.35-24.79,10.18,1.79,4.35c1.75,4.26,5.42,7.4,9.83,8.4l8.99,2.15h-.01ZM5915,35l-4.89,7.84c-2.4,3.9-2.8,8.72-1.09,12.88l1.79,4.35,24.79-10.18-1.79-4.35c-1.75-4.26-5.42-7.4-9.83-8.4l-8.99-2.15h.01ZM5940.27,51l-32.01,13.14M5921.73,5.86l-32.01,13.14"/><g class="cls-125"><path class="cls-26" d="M5925.76,36.2l-17.58,7.22,17.58-7.22Z"/></g><g class="cls-126"><path class="cls-26" d="M5921.81,26.58l-17.58,7.22-4.56-11.1,17.58-7.22,4.56,11.1Z"/></g><path class="cls-11" d="M5985,35l5.94-7.08c2.92-3.53,3.99-8.24,2.89-12.6l-1.16-4.56-25.97,6.6,1.16,4.56c1.13,4.46,4.32,8.08,8.55,9.69l8.6,3.39h0ZM5985,35l-5.94,7.08c-2.92,3.53-3.99,8.24-2.89,12.6l1.16,4.56,25.97-6.6-1.16-4.56c-1.13-4.46-4.32-8.08-8.55-9.69l-8.6-3.39h0ZM6007.78,54.39l-33.53,8.52M5995.76,7.09l-33.53,8.52"/><g class="cls-142"><path class="cls-26" d="M5995.49,37.7l-18.41,4.68,18.41-4.68Z"/></g><g class="cls-143"><path class="cls-26" d="M5992.93,27.62l-18.41,4.68-2.96-11.63,18.41-4.68s2.96,11.63,2.96,11.63Z"/></g><path class="cls-11" d="M6055,35l6.62-6.45c3.26-3.22,4.8-7.79,4.14-12.24l-.69-4.65-26.51,3.95.69,4.65c.68,4.55,3.49,8.48,7.53,10.51l8.21,4.24h0ZM6055,35l-6.62,6.45c-3.26,3.22-4.8,7.79-4.14,12.24l.69,4.65,26.51-3.95-.69-4.65c-.68-4.55-3.49-8.48-7.53-10.51l-8.21-4.24h0ZM6075.7,56.59l-34.22,5.1M6068.52,8.32l-34.22,5.1"/><g class="cls-139"><path class="cls-26" d="M6065.16,38.74l-18.79,2.8,18.79-2.8Z"/></g><g class="cls-144"><path class="cls-26" d="M6063.63,28.46l-18.79,2.8-1.77-11.87,18.79-2.8,1.77,11.87Z"/></g><path class="cls-11" d="M6125,35l7.06-5.97c3.48-2.98,5.34-7.44,4.99-11.92l-.36-4.69-26.72,2.08.36,4.69c.36,4.59,2.88,8.7,6.77,11.01l7.9,4.8ZM6125,35l-7.06,5.97c-3.48,2.98-5.34,7.44-4.99,11.92l.36,4.69,26.72-2.08-.36-4.69c-.36-4.59-2.88-8.7-6.77-11.01,0,0-7.9-4.8-7.9-4.8ZM6144.14,57.98l-34.5,2.69M6140.35,9.33l-34.5,2.69"/><g class="cls-145"><path class="cls-26" d="M6134.87,39.45l-18.94,1.47,18.94-1.47Z"/></g><g class="cls-141"><path class="cls-26" d="M6134.07,29.08l-18.94,1.47-.93-11.96,18.94-1.47s.93,11.96.93,11.96Z"/></g><path class="cls-11" d="M6195,35l7.32-5.64c3.61-2.82,5.67-7.19,5.52-11.69l-.15-4.7-26.79.87.15,4.7c.15,4.6,2.49,8.82,6.27,11.3l7.67,5.15h.01ZM6195,35l-7.32,5.64c-3.61,2.82-5.67,7.19-5.52,11.69l.15,4.7,26.79-.87-.15-4.7c-.15-4.6-2.49-8.82-6.27-11.3l-7.67-5.15h-.01ZM6213.08,58.83l-34.58,1.12M6211.5,10.05l-34.58,1.12"/><g class="cls-140"><path class="cls-26" d="M6204.66,39.89l-18.99.62,18.99-.62Z"/></g><g class="cls-146"><path class="cls-26" d="M6204.33,29.49l-18.99.62-.39-11.99,18.99-.62.39,11.99Z"/></g><path class="cls-11" d="M6265,35l7.46-5.46c3.68-2.73,5.85-7.05,5.81-11.54l-.04-4.7-26.8.21.04,4.7c.04,4.6,2.27,8.88,5.99,11.45l7.54,5.34h0ZM6265,35l-7.46,5.46c-3.68,2.73-5.85,7.05-5.81,11.54l.04,4.7,26.8-.21-.04-4.7c-.04-4.6-2.27-8.88-5.99-11.45l-7.54-5.34h0ZM6282.49,59.27l-34.6.27M6282.11,10.47l-34.6.27"/><g class="cls-147"><path class="cls-26" d="M6274.54,40.13l-19,.15,19-.15Z"/></g><g class="cls-138"><path class="cls-26" d="M6274.46,29.73l-19,.15-.09-12,19-.15.09,12Z"/></g><path class="cls-11" d="M6335,35l7.5-5.4c3.7-2.7,5.9-7,5.9-11.5v-4.7h-26.8v4.7c0,4.6,2.2,8.9,5.9,11.5l7.5,5.4ZM6335,35l-7.5,5.4c-3.7,2.7-5.9,7-5.9,11.5v4.7h26.8v-4.7c0-4.6-2.2-8.9-5.9-11.5l-7.5-5.4ZM6352.3,59.4h-34.6M6352.3,10.6h-34.6"/><g class="cls-137"><path class="cls-26" d="M6344.5,29.8h-19v-12h19v12Z"/></g></svg>