<svg xmlns="http://www.w3.org/2000/svg" viewBox="0 0 2170 70" width="2170" height="70"><path d="M22 27.7h28c.795 0 1.559.316 2.121.879.563.562.879 1.326.879 2.121v21.7c0 .795-.316 1.559-.879 2.121-.562.563-1.326.879-2.121.879H22c-.795 0-1.559-.316-2.121-.879-.563-.562-.879-1.326-.879-2.121V30.7c0-.795.316-1.559.879-2.121.562-.563 1.326-.879 2.121-.879" fill="none" stroke="#000850" stroke-width="3" stroke-linecap="round" stroke-linejoin="round"/><path d="M36 35.4c-.656-.002-1.296.204-1.827.589-.532.384-.927.928-1.13 1.551-.204.624-.204 1.296 0 1.92.203.623.598 1.167 1.13 1.551.531.385 1.171.591 1.827.589.656.002 1.296-.204 1.827-.589.532-.384.927-.928 1.13-1.551.204-.624.204-1.296 0-1.92-.203-.623-.598-1.167-1.13-1.551-.531-.385-1.171-.591-1.827-.589z" fill="#000850"/><path d="M36 47v-6.6M25.5 27.3v-6.2c0-5.8 4.7-10.5 10.5-10.5s10.5 4.7 10.5 10.5v6.2M92 27.7h28c.795 0 1.559.316 2.121.879.563.562.879 1.326.879 2.121v21.7c0 .795-.316 1.559-.879 2.121-.562.563-1.326.879-2.121.879H92c-.795 0-1.559-.316-2.121-.879-.563-.562-.879-1.326-.879-2.121V30.7c0-.795.316-1.559.879-2.121.562-.563 1.326-.879 2.121-.879" fill="none" stroke="#000850" stroke-width="3" stroke-linecap="round" stroke-linejoin="round"/><path d="M106 35.4c-.656-.002-1.296.204-1.827.589-.532.384-.927.928-1.13 1.551-.204.624-.204 1.296 0 1.92.203.623.598 1.167 1.13 1.551.531.385 1.171.591 1.827.589.656.002 1.296-.204 1.827-.589.532-.384.927-.928 1.13-1.551.204-.624.204-1.296 0-1.92-.203-.623-.598-1.167-1.13-1.551-.531-.385-1.171-.591-1.827-.589z" fill="#000850"/><path d="M106 47v-6.6M95.5 27.3v-5.85c0-5.8 4.7-10.5 10.5-10.5s10.5 4.7 10.5 10.5v5.85M162 27.7h28c.795 0 1.559.316 2.121.879.563.562.879 1.326.879 2.121v21.7c0 .795-.316 1.559-.879 2.121-.562.563-1.326.879-2.121.879h-28c-.795 0-1.559-.316-2.121-.879-.563-.562-.879-1.326-.879-2.121V30.7c0-.795.316-1.559.879-2.121.562-.563 1.326-.879 2.121-.879" fill="none" stroke="#000850" stroke-width="3" stroke-linecap="round" stroke-linejoin="round"/><path d="M176 35.4c-.656-.002-1.296.204-1.827.589-.532.384-.927.928-1.13 1.551-.204.624-.204 1.296 0 1.92.203.623.598 1.167 1.13 1.551.531.385 1.171.591 1.827.589.656.002 1.296-.204 1.827-.589.532-.384.927-.928 1.13-1.551.204-.624.204-1.296 0-1.92-.203-.623-.598-1.167-1.13-1.551-.531-.385-1.171-.591-1.827-.589z" fill="#000850"/><path d="M176 47v-6.6M165.5 27.3v-4.81c0-5.8 4.7-10.5 10.5-10.5s10.5 4.7 10.5 10.5v4.81M232 27.7h28c.795 0 1.559.316 2.121.879.563.562.879 1.326.879 2.121v21.7c0 .795-.316 1.559-.879 2.121-.562.563-1.326.879-2.121.879h-28c-.795 0-1.559-.316-2.121-.879-.563-.562-.879-1.326-.879-2.121V30.7c0-.795.316-1.559.879-2.121.562-.563 1.326-.879 2.121-.879" fill="none" stroke="#000850" stroke-width="3" stroke-linecap="round" stroke-linejoin="round"/><path d="M246 35.4c-.656-.002-1.296.204-1.827.589-.532.384-.927.928-1.13 1.551-.204.624-.204 1.296 0 1.92.203.623.598 1.167 1.13 1.551.531.385 1.171.591 1.827.589.656.002 1.296-.204 1.827-.589.532-.384.927-.928 1.13-1.551.204-.624.204-1.296 0-1.92-.203-.623-.598-1.167-1.13-1.551-.531-.385-1.171-.591-1.827-.589z" fill="#000850"/><path d="M246 47v-6.6M235.5 27.3v-4.358c0-5.8 4.7-10.5 10.5-10.5s10.5 4.7 10.5 10.5V27.3M302 27.7h28c.795 0 1.559.316 2.121.879.563.562.879 1.326.879 2.121v21.7c0 .795-.316 1.559-.879 2.121-.562.563-1.326.879-2.121.879h-28c-.795 0-1.559-.316-2.121-.879-.563-.562-.879-1.326-.879-2.121V30.7c0-.795.316-1.559.879-2.121.562-.563 1.326-.879 2.121-.879" fill="none" stroke="#000850" stroke-width="3" stroke-linecap="round" stroke-linejoin="round"/><path d="M316 35.4c-.656-.002-1.296.204-1.827.589-.532.384-.927.928-1.13 1.551-.204.624-.204 1.296 0 1.92.203.623.598 1.167 1.13 1.551.531.385 1.171.591 1.827.589.656.002 1.296-.204 1.827-.589.532-.384.927-.928 1.13-1.551.204-.624.204-1.296 0-1.92-.203-.623-.598-1.167-1.13-1.551-.531-.385-1.171-.591-1.827-.589z" fill="#000850"/><path d="M316 47v-6.6M305.5 27.3v-4.214c0-5.8 4.7-10.5 10.5-10.5s10.5 4.7 10.5 10.5V27.3M372 27.7h28c.795 0 1.559.316 2.121.879.563.562.879 1.326.879 2.121v21.7c0 .795-.316 1.559-.879 2.121-.562.563-1.326.879-2.121.879h-28c-.795 0-1.559-.316-2.121-.879-.563-.562-.879-1.326-.879-2.121V30.7c0-.795.316-1.559.879-2.121.562-.563 1.326-.879 2.121-.879" fill="none" stroke="#000850" stroke-width="3" stroke-linecap="round" stroke-linejoin="round"/><path d="M386 35.4c-.656-.002-1.296.204-1.827.589-.532.384-.927.928-1.13 1.551-.204.624-.204 1.296 0 1.92.203.623.598 1.167 1.13 1.551.531.385 1.171.591 1.827.589.656.002 1.296-.204 1.827-.589.532-.384.927-.928 1.13-1.551.204-.624.204-1.296 0-1.92-.203-.623-.598-1.167-1.13-1.551-.531-.385-1.171-.591-1.827-.589z" fill="#000850"/><path d="M386 47v-6.6M375.5 27.3v-4.719c0-5.8 4.7-10.5 10.5-10.5s10.5 4.7 10.5 10.5V27.3M442 27.7h28c.795 0 1.559.316 2.121.879.563.562.879 1.326.879 2.121v21.7c0 .795-.316 1.559-.879 2.121-.562.563-1.326.879-2.121.879h-28c-.795 0-1.559-.316-2.121-.879-.563-.562-.879-1.326-.879-2.121V30.7c0-.795.316-1.559.879-2.121.562-.563 1.326-.879 2.121-.879" fill="none" stroke="#000850" stroke-width="3" stroke-linecap="round" stroke-linejoin="round"/><path d="M456 35.4c-.656-.002-1.296.204-1.827.589-.532.384-.927.928-1.13 1.551-.204.624-.204 1.296 0 1.92.203.623.598 1.167 1.13 1.551.531.385 1.171.591 1.827.589.656.002 1.296-.204 1.827-.589.532-.384.927-.928 1.13-1.551.204-.624.204-1.296 0-1.92-.203-.623-.598-1.167-1.13-1.551-.531-.385-1.171-.591-1.827-.589z" fill="#000850"/><path d="M456 47v-6.6M445.5 27.3v-5.59c0-5.8 4.7-10.5 10.5-10.5s10.5 4.7 10.5 10.5v5.59M512 27.7h28c.795 0 1.559.316 2.121.879.563.562.879 1.326.879 2.121v21.7c0 .795-.316 1.559-.879 2.121-.562.563-1.326.879-2.121.879h-28c-.795 0-1.559-.316-2.121-.879-.563-.562-.879-1.326-.879-2.121V30.7c0-.795.316-1.559.879-2.121.562-.563 1.326-.879 2.121-.879" fill="none" stroke="#000850" stroke-width="3" stroke-linecap="round" stroke-linejoin="round"/><path d="M526 35.4c-.656-.002-1.296.204-1.827.589-.532.384-.927.928-1.13 1.551-.204.624-.204 1.296 0 1.92.203.623.598 1.167 1.13 1.551.531.385 1.171.591 1.827.589.656.002 1.296-.204 1.827-.589.532-.384.927-.928 1.13-1.551.204-.624.204-1.296 0-1.92-.203-.623-.598-1.167-1.13-1.551-.531-.385-1.171-.591-1.827-.589z" fill="#000850"/><path d="M526 47v-6.6M515.5 27.3v-5.995c0-5.8 4.7-10.5 10.5-10.5s10.5 4.7 10.5 10.5V27.3" fill="none" stroke="#000850" stroke-width="3" stroke-linecap="round" stroke-linejoin="round"/><g><path d="M582 27.7h28c.795 0 1.559.316 2.121.879.563.562.879 1.326.879 2.121v21.7c0 .795-.316 1.559-.879 2.121-.562.563-1.326.879-2.121.879h-28c-.795 0-1.559-.316-2.121-.879-.563-.562-.879-1.326-.879-2.121V30.7c0-.795.316-1.559.879-2.121.562-.563 1.326-.879 2.121-.879" fill="none" stroke="#000850" stroke-width="3" stroke-linecap="round" stroke-linejoin="round"/><path d="M596 35.4c-.656-.002-1.296.204-1.827.589-.532.384-.927.928-1.13 1.551-.204.624-.204 1.296 0 1.92.203.623.598 1.167 1.13 1.551.531.385 1.171.591 1.827.589.656.002 1.296-.204 1.827-.589.532-.384.927-.928 1.13-1.551.204-.624.204-1.296 0-1.92-.203-.623-.598-1.167-1.13-1.551-.531-.385-1.171-.591-1.827-.589z" fill="#000850"/><path d="M596 47v-6.6M585.5 27.3v-6.158c0-5.8 4.7-10.5 10.5-10.5s10.5 4.7 10.5 10.5V27.3" fill="none" stroke="#000850" stroke-width="3" stroke-linecap="round" stroke-linejoin="round"/></g><g><path d="M652 27.7h28c.795 0 1.559.316 2.121.879.563.562.879 1.326.879 2.121v21.7c0 .795-.316 1.559-.879 2.121-.562.563-1.326.879-2.121.879h-28c-.795 0-1.559-.316-2.121-.879-.563-.562-.879-1.326-.879-2.121V30.7c0-.795.316-1.559.879-2.121.562-.563 1.326-.879 2.121-.879" fill="none" stroke="#000850" stroke-width="3" stroke-linecap="round" stroke-linejoin="round"/><path d="M666 35.4c-.656-.002-1.296.204-1.827.589-.532.384-.927.928-1.13 1.551-.204.624-.204 1.296 0 1.92.203.623.598 1.167 1.13 1.551.531.385 1.171.591 1.827.589.656.002 1.296-.204 1.827-.589.532-.384.927-.928 1.13-1.551.204-.624.204-1.296 0-1.92-.203-.623-.598-1.167-1.13-1.551-.531-.385-1.171-.591-1.827-.589z" fill="#000850"/><path d="M666 47v-6.6M655.5 27.154v-6.2c0-5.8 4.7-10.5 10.5-10.5s10.5 4.7 10.5 10.5V27.3" fill="none" stroke="#000850" stroke-width="3" stroke-linecap="round" stroke-linejoin="round"/></g><g><path d="M722 27.7h28c.795 0 1.559.316 2.121.879.563.562.879 1.326.879 2.121v21.7c0 .795-.316 1.559-.879 2.121-.562.563-1.326.879-2.121.879h-28c-.795 0-1.559-.316-2.121-.879-.563-.562-.879-1.326-.879-2.121V30.7c0-.795.316-1.559.879-2.121.562-.563 1.326-.879 2.121-.879" fill="none" stroke="#000850" stroke-width="3" stroke-linecap="round" stroke-linejoin="round"/><path d="M736 35.4c-.656-.002-1.296.204-1.827.589-.532.384-.927.928-1.13 1.551-.204.624-.204 1.296 0 1.92.203.623.598 1.167 1.13 1.551.531.385 1.171.591 1.827.589.656.002 1.296-.204 1.827-.589.532-.384.927-.928 1.13-1.551.204-.624.204-1.296 0-1.92-.203-.623-.598-1.167-1.13-1.551-.531-.385-1.171-.591-1.827-.589z" fill="#000850"/><path d="M736 47v-6.6M725.5 26.455v-6.2c0-5.8 4.7-10.5 10.5-10.5s10.5 4.7 10.5 10.5V27.3" fill="none" stroke="#000850" stroke-width="3" stroke-linecap="round" stroke-linejoin="round"/></g><g><path d="M792 27.7h28c.795 0 1.559.316 2.121.879.563.562.879 1.326.879 2.121v21.7c0 .795-.316 1.559-.879 2.121-.562.563-1.326.879-2.121.879h-28c-.795 0-1.559-.316-2.121-.879-.563-.562-.879-1.326-.879-2.121V30.7c0-.795.316-1.559.879-2.121.562-.563 1.326-.879 2.121-.879" fill="none" stroke="#000850" stroke-width="3" stroke-linecap="round" stroke-linejoin="round"/><path d="M806 35.4c-.656-.002-1.296.204-1.827.589-.532.384-.927.928-1.13 1.551-.204.624-.204 1.296 0 1.92.203.623.598 1.167 1.13 1.551.531.385 1.171.591 1.827.589.656.002 1.296-.204 1.827-.589.532-.384.927-.928 1.13-1.551.204-.624.204-1.296 0-1.92-.203-.623-.598-1.167-1.13-1.551-.531-.385-1.171-.591-1.827-.589z" fill="#000850"/><path d="M806 47v-6.6M795.5 24.864v-6.2c0-5.8 4.7-10.5 10.5-10.5s10.5 4.7 10.5 10.5V27.3" fill="none" stroke="#000850" stroke-width="3" stroke-linecap="round" stroke-linejoin="round"/></g><g><path d="M862 27.7h28c.795 0 1.559.316 2.121.879.563.562.879 1.326.879 2.121v21.7c0 .795-.316 1.559-.879 2.121-.562.563-1.326.879-2.121.879h-28c-.795 0-1.559-.316-2.121-.879-.563-.562-.879-1.326-.879-2.121V30.7c0-.795.316-1.559.879-2.121.562-.563 1.326-.879 2.121-.879" fill="none" stroke="#000850" stroke-width="3" stroke-linecap="round" stroke-linejoin="round"/><path d="M876 35.4c-.656-.002-1.296.204-1.827.589-.532.384-.927.928-1.13 1.551-.204.624-.204 1.296 0 1.92.203.623.598 1.167 1.13 1.551.531.385 1.171.591 1.827.589.656.002 1.296-.204 1.827-.589.532-.384.927-.928 1.13-1.551.204-.624.204-1.296 0-1.92-.203-.623-.598-1.167-1.13-1.551-.531-.385-1.171-.591-1.827-.589z" fill="#000850"/><path d="M876 47v-6.6M865.5 23.092v-6.2c0-5.8 4.7-10.5 10.5-10.5s10.5 4.7 10.5 10.5V27.3" fill="none" stroke="#000850" stroke-width="3" stroke-linecap="round" stroke-linejoin="round"/></g><g><path d="M932 27.7h28c.795 0 1.559.316 2.121.879.563.562.879 1.326.879 2.121v21.7c0 .795-.316 1.559-.879 2.121-.562.563-1.326.879-2.121.879h-28c-.795 0-1.559-.316-2.121-.879-.563-.562-.879-1.326-.879-2.121V30.7c0-.795.316-1.559.879-2.121.562-.563 1.326-.879 2.121-.879" fill="none" stroke="#000850" stroke-width="3" stroke-linecap="round" stroke-linejoin="round"/><path d="M946 35.4c-.656-.002-1.296.204-1.827.589-.532.384-.927.928-1.13 1.551-.204.624-.204 1.296 0 1.92.203.623.598 1.167 1.13 1.551.531.385 1.171.591 1.827.589.656.002 1.296-.204 1.827-.589.532-.384.927-.928 1.13-1.551.204-.624.204-1.296 0-1.92-.203-.623-.598-1.167-1.13-1.551-.531-.385-1.171-.591-1.827-.589z" fill="#000850"/><path d="M946 47v-6.6M935.5 21.916v-6.2c0-5.8 4.7-10.5 10.5-10.5s10.5 4.7 10.5 10.5V27.3" fill="none" stroke="#000850" stroke-width="3" stroke-linecap="round" stroke-linejoin="round"/></g><g><path d="M1002 27.7h28c.795 0 1.559.316 2.121.879.563.562.879 1.326.879 2.121v21.7c0 .795-.316 1.559-.879 2.121-.562.563-1.326.879-2.121.879h-28c-.795 0-1.559-.316-2.121-.879-.563-.562-.879-1.326-.879-2.121V30.7c0-.795.316-1.559.879-2.121.562-.563 1.326-.879 2.121-.879" fill="none" stroke="#000850" stroke-width="3" stroke-linecap="round" stroke-linejoin="round"/><path d="M1016 35.4c-.656-.002-1.296.204-1.827.589-.532.384-.927.928-1.13 1.551-.204.624-.204 1.296 0 1.92.203.623.598 1.167 1.13 1.551.531.385 1.171.591 1.827.589.656.002 1.296-.204 1.827-.589.532-.384.927-.928 1.13-1.551.204-.624.204-1.296 0-1.92-.203-.623-.598-1.167-1.13-1.551-.531-.385-1.171-.591-1.827-.589z" fill="#000850"/><path d="M1016 47v-6.6M1005.5 21.191v-6.2c0-5.8 4.7-10.5 10.5-10.5s10.5 4.7 10.5 10.5V27.3" fill="none" stroke="#000850" stroke-width="3" stroke-linecap="round" stroke-linejoin="round"/></g><g><path d="M1072 27.7h28c.795 0 1.559.316 2.121.879.563.562.879 1.326.879 2.121v21.7c0 .795-.316 1.559-.879 2.121-.562.563-1.326.879-2.121.879h-28c-.795 0-1.559-.316-2.121-.879-.563-.562-.879-1.326-.879-2.121V30.7c0-.795.316-1.559.879-2.121.562-.563 1.326-.879 2.121-.879" fill="none" stroke="#000850" stroke-width="3" stroke-linecap="round" stroke-linejoin="round"/><path d="M1086 35.4c-.656-.002-1.296.204-1.827.589-.532.384-.927.928-1.13 1.551-.204.624-.204 1.296 0 1.92.203.623.598 1.167 1.13 1.551.531.385 1.171.591 1.827.589.656.002 1.296-.204 1.827-.589.532-.384.927-.928 1.13-1.551.204-.624.204-1.296 0-1.92-.203-.623-.598-1.167-1.13-1.551-.531-.385-1.171-.591-1.827-.589z" fill="#000850"/><path d="M1086 47v-6.6M1075.5 20.743v-6.2c0-5.8 4.7-10.5 10.5-10.5s10.5 4.7 10.5 10.5V27.3" fill="none" stroke="#000850" stroke-width="3" stroke-linecap="round" stroke-linejoin="round"/></g><g><path d="M1142 27.7h28c.795 0 1.559.316 2.121.879.563.562.879 1.326.879 2.121v21.7c0 .795-.316 1.559-.879 2.121-.562.563-1.326.879-2.121.879h-28c-.795 0-1.559-.316-2.121-.879-.563-.562-.879-1.326-.879-2.121V30.7c0-.795.316-1.559.879-2.121.562-.563 1.326-.879 2.121-.879" fill="none" stroke="#000850" stroke-width="3" stroke-linecap="round" stroke-linejoin="round"/><path d="M1156 35.4c-.656-.002-1.296.204-1.827.589-.532.384-.927.928-1.13 1.551-.204.624-.204 1.296 0 1.92.203.623.598 1.167 1.13 1.551.531.385 1.171.591 1.827.589.656.002 1.296-.204 1.827-.589.532-.384.927-.928 1.13-1.551.204-.624.204-1.296 0-1.92-.203-.623-.598-1.167-1.13-1.551-.531-.385-1.171-.591-1.827-.589z" fill="#000850"/><path d="M1156 47v-6.6M1145.5 20.477v-6.2c0-5.8 4.7-10.5 10.5-10.5s10.5 4.7 10.5 10.5V27.3" fill="none" stroke="#000850" stroke-width="3" stroke-linecap="round" stroke-linejoin="round"/></g><g><path d="M1212 27.7h28c.795 0 1.559.316 2.121.879.563.562.879 1.326.879 2.121v21.7c0 .795-.316 1.559-.879 2.121-.562.563-1.326.879-2.121.879h-28c-.795 0-1.559-.316-2.121-.879-.563-.562-.879-1.326-.879-2.121V30.7c0-.795.316-1.559.879-2.121.562-.563 1.326-.879 2.121-.879" fill="none" stroke="#000850" stroke-width="3" stroke-linecap="round" stroke-linejoin="round"/><path d="M1226 35.4c-.656-.002-1.296.204-1.827.589-.532.384-.927.928-1.13 1.551-.204.624-.204 1.296 0 1.92.203.623.598 1.167 1.13 1.551.531.385 1.171.591 1.827.589.656.002 1.296-.204 1.827-.589.532-.384.927-.928 1.13-1.551.204-.624.204-1.296 0-1.92-.203-.623-.598-1.167-1.13-1.551-.531-.385-1.171-.591-1.827-.589z" fill="#000850"/><path d="M1226 47v-6.6M1215.5 20.34v-6.2c0-5.8 4.7-10.5 10.5-10.5s10.5 4.7 10.5 10.5V27.3" fill="none" stroke="#000850" stroke-width="3" stroke-linecap="round" stroke-linejoin="round"/></g><g><path d="M1282 27.7h28c.795 0 1.559.316 2.121.879.563.562.879 1.326.879 2.121v21.7c0 .795-.316 1.559-.879 2.121-.562.563-1.326.879-2.121.879h-28c-.795 0-1.559-.316-2.121-.879-.563-.562-.879-1.326-.879-2.121V30.7c0-.795.316-1.559.879-2.121.562-.563 1.326-.879 2.121-.879" fill="none" stroke="#000850" stroke-width="3" stroke-linecap="round" stroke-linejoin="round"/><path d="M1296 35.4c-.656-.002-1.296.204-1.827.589-.532.384-.927.928-1.13 1.551-.204.624-.204 1.296 0 1.92.203.623.598 1.167 1.13 1.551.531.385 1.171.591 1.827.589.656.002 1.296-.204 1.827-.589.532-.384.927-.928 1.13-1.551.204-.624.204-1.296 0-1.92-.203-.623-.598-1.167-1.13-1.551-.531-.385-1.171-.591-1.827-.589z" fill="#000850"/><path d="M1296 47v-6.6M1286.379 20.3v-6.2c0-5.8 4.503-10.5 10.06-10.5 5.558 0 10.061 4.7 10.061 10.5v13.2" fill="none" stroke="#000850" stroke-width="3" stroke-linecap="round" stroke-linejoin="round"/></g><g><path d="M1352 27.7h28c.795 0 1.559.316 2.121.879.563.562.879 1.326.879 2.121v21.7c0 .795-.316 1.559-.879 2.121-.562.563-1.326.879-2.121.879h-28c-.795 0-1.559-.316-2.121-.879-.563-.562-.879-1.326-.879-2.121V30.7c0-.795.316-1.559.879-2.121.562-.563 1.326-.879 2.121-.879" fill="none" stroke="#000850" stroke-width="3" stroke-linecap="round" stroke-linejoin="round"/><path d="M1366 35.4c-.656-.002-1.296.204-1.827.589-.532.384-.927.928-1.13 1.551-.204.624-.204 1.296 0 1.92.203.623.598 1.167 1.13 1.551.531.385 1.171.591 1.827.589.656.002 1.296-.204 1.827-.589.532-.384.927-.928 1.13-1.551.204-.624.204-1.296 0-1.92-.203-.623-.598-1.167-1.13-1.551-.531-.385-1.171-.591-1.827-.589z" fill="#000850"/><path d="M1366 47v-6.6M1360.57 20.3v-6.2c0-5.8 3.565-10.5 7.965-10.5s7.965 4.7 7.965 10.5v13.2" fill="none" stroke="#000850" stroke-width="3" stroke-linecap="round" stroke-linejoin="round"/></g><g><path d="M1422 27.7h28c.795 0 1.559.316 2.121.879.563.562.879 1.326.879 2.121v21.7c0 .795-.316 1.559-.879 2.121-.562.563-1.326.879-2.121.879h-28c-.795 0-1.559-.316-2.121-.879-.563-.562-.879-1.326-.879-2.121V30.7c0-.795.316-1.559.879-2.121.562-.563 1.326-.879 2.121-.879" fill="none" stroke="#000850" stroke-width="3" stroke-linecap="round" stroke-linejoin="round"/><path d="M1436 35.4c-.656-.002-1.296.204-1.827.589-.532.384-.927.928-1.13 1.551-.204.624-.204 1.296 0 1.92.203.623.598 1.167 1.13 1.551.531.385 1.171.591 1.827.589.656.002 1.296-.204 1.827-.589.532-.384.927-.928 1.13-1.551.204-.624.204-1.296 0-1.92-.203-.623-.598-1.167-1.13-1.551-.531-.385-1.171-.591-1.827-.589z" fill="#000850"/><path d="M1436 47v-6.6M1440.116 20.3v-6.2c0-5.8 1.429-10.5 3.192-10.5 1.763 0 3.192 4.7 3.192 10.5v13.2" fill="none" stroke="#000850" stroke-width="3" stroke-linecap="round" stroke-linejoin="round"/></g><g><path d="M1492 27.7h28c.795 0 1.559.316 2.121.879.563.562.879 1.326.879 2.121v21.7c0 .795-.316 1.559-.879 2.121-.562.563-1.326.879-2.121.879h-28c-.795 0-1.559-.316-2.121-.879-.563-.562-.879-1.326-.879-2.121V30.7c0-.795.316-1.559.879-2.121.562-.563 1.326-.879 2.121-.879" fill="none" stroke="#000850" stroke-width="3" stroke-linecap="round" stroke-linejoin="round"/><path d="M1506 35.4c-.656-.002-1.296.204-1.827.589-.532.384-.927.928-1.13 1.551-.204.624-.204 1.296 0 1.92.203.623.598 1.167 1.13 1.551.531.385 1.171.591 1.827.589.656.002 1.296-.204 1.827-.589.532-.384.927-.928 1.13-1.551.204-.624.204-1.296 0-1.92-.203-.623-.598-1.167-1.13-1.551-.531-.385-1.171-.591-1.827-.589z" fill="#000850"/><path d="M1506 47v-6.6M1520.745 20.3v-6.2c0-5.8-.95-10.5-2.122-10.5-1.173 0-2.123 4.7-2.123 10.5v13.2" fill="none" stroke="#000850" stroke-width="3" stroke-linecap="round" stroke-linejoin="round"/></g><g><path d="M1562 27.7h28c.795 0 1.559.316 2.121.879.563.562.879 1.326.879 2.121v21.7c0 .795-.316 1.559-.879 2.121-.562.563-1.326.879-2.121.879h-28c-.795 0-1.559-.316-2.121-.879-.563-.562-.879-1.326-.879-2.121V30.7c0-.795.316-1.559.879-2.121.562-.563 1.326-.879 2.121-.879" fill="none" stroke="#000850" stroke-width="3" stroke-linecap="round" stroke-linejoin="round"/><path d="M1576 35.4c-.656-.002-1.296.204-1.827.589-.532.384-.927.928-1.13 1.551-.204.624-.204 1.296 0 1.92.203.623.598 1.167 1.13 1.551.531.385 1.171.591 1.827.589.656.002 1.296-.204 1.827-.589.532-.384.927-.928 1.13-1.551.204-.624.204-1.296 0-1.92-.203-.623-.598-1.167-1.13-1.551-.531-.385-1.171-.591-1.827-.589z" fill="#000850"/><path d="M1576 47v-6.6M1597.803 20.3v-6.2c0-5.8-2.53-10.5-5.652-10.5-3.121 0-5.651 4.7-5.651 10.5v13.2" fill="none" stroke="#000850" stroke-width="3" stroke-linecap="round" stroke-linejoin="round"/></g><g><path d="M1632 27.7h28c.795 0 1.559.316 2.121.879.563.562.879 1.326.879 2.121v21.7c0 .795-.316 1.559-.879 2.121-.562.563-1.326.879-2.121.879h-28c-.795 0-1.559-.316-2.121-.879-.563-.562-.879-1.326-.879-2.121V30.7c0-.795.316-1.559.879-2.121.562-.563 1.326-.879 2.121-.879" fill="none" stroke="#000850" stroke-width="3" stroke-linecap="round" stroke-linejoin="round"/><path d="M1646 35.4c-.656-.002-1.296.204-1.827.589-.532.384-.927.928-1.13 1.551-.204.624-.204 1.296 0 1.92.203.623.598 1.167 1.13 1.551.531.385 1.171.591 1.827.589.656.002 1.296-.204 1.827-.589.532-.384.927-.928 1.13-1.551.204-.624.204-1.296 0-1.92-.203-.623-.598-1.167-1.13-1.551-.531-.385-1.171-.591-1.827-.589z" fill="#000850"/><path d="M1646 47v-6.6M1672.156 20.3v-6.2c0-5.8-3.504-10.5-7.828-10.5s-7.828 4.7-7.828 10.5v13.2" fill="none" stroke="#000850" stroke-width="3" stroke-linecap="round" stroke-linejoin="round"/></g><g><path d="M1702 27.7h28c.795 0 1.559.316 2.121.879.563.562.879 1.326.879 2.121v21.7c0 .795-.316 1.559-.879 2.121-.562.563-1.326.879-2.121.879h-28c-.795 0-1.559-.316-2.121-.879-.563-.562-.879-1.326-.879-2.121V30.7c0-.795.316-1.559.879-2.121.562-.563 1.326-.879 2.121-.879" fill="none" stroke="#000850" stroke-width="3" stroke-linecap="round" stroke-linejoin="round"/><path d="M1716 35.4c-.656-.002-1.296.204-1.827.589-.532.384-.927.928-1.13 1.551-.204.624-.204 1.296 0 1.92.203.623.598 1.167 1.13 1.551.531.385 1.171.591 1.827.589.656.002 1.296-.204 1.827-.589.532-.384.927-.928 1.13-1.551.204-.624.204-1.296 0-1.92-.203-.623-.598-1.167-1.13-1.551-.531-.385-1.171-.591-1.827-.589z" fill="#000850"/><path d="M1716 47v-6.6M1744.845 20.3v-6.2c0-5.8-4.106-10.5-9.173-10.5-5.066 0-9.172 4.7-9.172 10.5v13.2" fill="none" stroke="#000850" stroke-width="3" stroke-linecap="round" stroke-linejoin="round"/></g><g><path d="M1772 27.7h28c.795 0 1.559.316 2.121.879.563.562.879 1.326.879 2.121v21.7c0 .795-.316 1.559-.879 2.121-.562.563-1.326.879-2.121.879h-28c-.795 0-1.559-.316-2.121-.879-.563-.562-.879-1.326-.879-2.121V30.7c0-.795.316-1.559.879-2.121.562-.563 1.326-.879 2.121-.879" fill="none" stroke="#000850" stroke-width="3" stroke-linecap="round" stroke-linejoin="round"/><path d="M1786 35.4c-.656-.002-1.296.204-1.827.589-.532.384-.927.928-1.13 1.551-.204.624-.204 1.296 0 1.92.203.623.598 1.167 1.13 1.551.531.385 1.171.591 1.827.589.656.002 1.296-.204 1.827-.589.532-.384.927-.928 1.13-1.551.204-.624.204-1.296 0-1.92-.203-.623-.598-1.167-1.13-1.551-.531-.385-1.171-.591-1.827-.589z" fill="#000850"/><path d="M1786 47v-6.6M1816.438 20.3v-6.2c0-5.8-4.462-10.5-9.969-10.5s-9.969 4.7-9.969 10.5v13.2" fill="none" stroke="#000850" stroke-width="3" stroke-linecap="round" stroke-linejoin="round"/></g><g><path d="M1842 27.7h28c.795 0 1.559.316 2.121.879.563.562.879 1.326.879 2.121v21.7c0 .795-.316 1.559-.879 2.121-.562.563-1.326.879-2.121.879h-28c-.795 0-1.559-.316-2.121-.879-.563-.562-.879-1.326-.879-2.121V30.7c0-.795.316-1.559.879-2.121.562-.563 1.326-.879 2.121-.879" fill="none" stroke="#000850" stroke-width="3" stroke-linecap="round" stroke-linejoin="round"/><path d="M1856 35.4c-.656-.002-1.296.204-1.827.589-.532.384-.927.928-1.13 1.551-.204.624-.204 1.296 0 1.92.203.623.598 1.167 1.13 1.551.531.385 1.171.591 1.827.589.656.002 1.296-.204 1.827-.589.532-.384.927-.928 1.13-1.551.204-.624.204-1.296 0-1.92-.203-.623-.598-1.167-1.13-1.551-.531-.385-1.171-.591-1.827-.589z" fill="#000850"/><path d="M1856 47v-6.6M1887.258 20.3v-6.2c0-5.8-4.646-10.5-10.379-10.5S1866.5 8.3 1866.5 14.1v13.2" fill="none" stroke="#000850" stroke-width="3" stroke-linecap="round" stroke-linejoin="round"/></g><g><path d="M1912 27.7h28c.795 0 1.559.316 2.121.879.563.562.879 1.326.879 2.121v21.7c0 .795-.316 1.559-.879 2.121-.562.563-1.326.879-2.121.879h-28c-.795 0-1.559-.316-2.121-.879-.563-.562-.879-1.326-.879-2.121V30.7c0-.795.316-1.559.879-2.121.562-.563 1.326-.879 2.121-.879" fill="none" stroke="#000850" stroke-width="3" stroke-linecap="round" stroke-linejoin="round"/><path d="M1926 35.4c-.656-.002-1.296.204-1.827.589-.532.384-.927.928-1.13 1.551-.204.624-.204 1.296 0 1.92.203.623.598 1.167 1.13 1.551.531.385 1.171.591 1.827.589.656.002 1.296-.204 1.827-.589.532-.384.927-.928 1.13-1.551.204-.624.204-1.296 0-1.92-.203-.623-.598-1.167-1.13-1.551-.531-.385-1.171-.591-1.827-.589z" fill="#000850"/><path d="M1926 47v-6.6M1957.5 20.3v-6.2c0-5.8-4.7-10.5-10.5-10.5s-10.5 4.7-10.5 10.5v13.2" fill="none" stroke="#000850" stroke-width="3" stroke-linecap="round" stroke-linejoin="round"/></g><g><path d="M1982 27.7h28c.795 0 1.559.316 2.121.879.563.562.879 1.326.879 2.121v21.7c0 .795-.316 1.559-.879 2.121-.562.563-1.326.879-2.121.879h-28c-.795 0-1.559-.316-2.121-.879-.563-.562-.879-1.326-.879-2.121V30.7c0-.795.316-1.559.879-2.121.562-.563 1.326-.879 2.121-.879" fill="none" stroke="#000850" stroke-width="3" stroke-linecap="round" stroke-linejoin="round"/><path d="M1996 35.4c-.656-.002-1.296.204-1.827.589-.532.384-.927.928-1.13 1.551-.204.624-.204 1.296 0 1.92.203.623.598 1.167 1.13 1.551.531.385 1.171.591 1.827.589.656.002 1.296-.204 1.827-.589.532-.384.927-.928 1.13-1.551.204-.624.204-1.296 0-1.92-.203-.623-.598-1.167-1.13-1.551-.531-.385-1.171-.591-1.827-.589z" fill="#000850"/><path d="M1996 47v-6.6M2027.5 20.3v-6.2c0-5.8-4.7-10.5-10.5-10.5s-10.5 4.7-10.5 10.5v13.2" fill="none" stroke="#000850" stroke-width="3" stroke-linecap="round" stroke-linejoin="round"/></g><g><path d="M2052 27.7h28c.795 0 1.559.316 2.121.879.563.562.879 1.326.879 2.121v21.7c0 .795-.316 1.559-.879 2.121-.562.563-1.326.879-2.121.879h-28c-.795 0-1.559-.316-2.121-.879-.563-.562-.879-1.326-.879-2.121V30.7c0-.795.316-1.559.879-2.121.562-.563 1.326-.879 2.121-.879" fill="none" stroke="#000850" stroke-width="3" stroke-linecap="round" stroke-linejoin="round"/><path d="M2066 35.4c-.656-.002-1.296.204-1.827.589-.532.384-.927.928-1.13 1.551-.204.624-.204 1.296 0 1.92.203.623.598 1.167 1.13 1.551.531.385 1.171.591 1.827.589.656.002 1.296-.204 1.827-.589.532-.384.927-.928 1.13-1.551.204-.624.204-1.296 0-1.92-.203-.623-.598-1.167-1.13-1.551-.531-.385-1.171-.591-1.827-.589z" fill="#000850"/><path d="M2066 47v-6.6M2097.5 20.3v-6.2c0-5.8-4.7-10.5-10.5-10.5s-10.5 4.7-10.5 10.5v13.2" fill="none" stroke="#000850" stroke-width="3" stroke-linecap="round" stroke-linejoin="round"/></g><g><path d="M2122 27.7h28c.795 0 1.559.316 2.121.879.563.562.879 1.326.879 2.121v21.7c0 .795-.316 1.559-.879 2.121-.562.563-1.326.879-2.121.879h-28c-.795 0-1.559-.316-2.121-.879-.563-.562-.879-1.326-.879-2.121V30.7c0-.795.316-1.559.879-2.121.562-.563 1.326-.879 2.121-.879" fill="none" stroke="#000850" stroke-width="3" stroke-linecap="round" stroke-linejoin="round"/><path d="M2136 35.4c-.656-.002-1.296.204-1.827.589-.532.384-.927.928-1.13 1.551-.204.624-.204 1.296 0 1.92.203.623.598 1.167 1.13 1.551.531.385 1.171.591 1.827.589.656.002 1.296-.204 1.827-.589.532-.384.927-.928 1.13-1.551.204-.624.204-1.296 0-1.92-.203-.623-.598-1.167-1.13-1.551-.531-.385-1.171-.591-1.827-.589z" fill="#000850"/><path d="M2136 47v-6.6M2167.5 20.3v-6.2c0-5.8-4.7-10.5-10.5-10.5s-10.5 4.7-10.5 10.5v13.2" fill="none" stroke="#000850" stroke-width="3" stroke-linecap="round" stroke-linejoin="round"/></g></svg>