<?xml version="1.0" encoding="UTF-8"?><svg id="Layer_1" xmlns="http://www.w3.org/2000/svg" width="2170" height="70" viewBox="0 0 2170 70"><defs><style>.cls-1{stroke-dasharray:0 0 0 0 0 0 4 1;}.cls-1,.cls-2,.cls-3,.cls-4,.cls-5{fill:none;stroke:#000850;stroke-linecap:round;stroke-linejoin:round;stroke-width:3px;}.cls-1,.cls-2,.cls-3,.cls-5{stroke-dashoffset:4px;}.cls-2{stroke-dasharray:0 0 0 0 0 0 4 2;}.cls-3{stroke-dasharray:0 0 0 0 0 0 3.9 4;}.cls-6{fill:#000850;stroke-width:0px;}.cls-5{stroke-dasharray:0 0 0 0 0 0 4 3;}</style></defs><path class="cls-4" d="M22,27.7h28c.79,0,1.56.32,2.12.88.56.56.88,1.33.88,2.12v21.7c0,.79-.32,1.56-.88,2.12-.56.56-1.33.88-2.12.88h-28c-.8,0-1.56-.32-2.12-.88-.56-.56-.88-1.33-.88-2.12v-21.7c0-.8.32-1.56.88-2.12.56-.56,1.33-.88,2.12-.88"/><path class="cls-6" d="M36,35.4c-.66,0-1.3.2-1.83.59-.53.38-.93.93-1.13,1.55-.2.62-.2,1.3,0,1.92.2.62.6,1.17,1.13,1.55.53.38,1.17.59,1.83.59.66,0,1.3-.2,1.83-.59.53-.38.93-.93,1.13-1.55.2-.62.2-1.3,0-1.92-.2-.62-.6-1.17-1.13-1.55-.53-.38-1.17-.59-1.83-.59Z"/><path class="cls-4" d="M36,47v-6.6M25.5,27.3v-6.2c0-5.8,4.7-10.5,10.5-10.5s10.5,4.7,10.5,10.5v6.2M92,27.7h28c.79,0,1.56.32,2.12.88.56.56.88,1.33.88,2.12v21.7c0,.79-.32,1.56-.88,2.12-.56.56-1.33.88-2.12.88h-28c-.79,0-1.56-.32-2.12-.88-.56-.56-.88-1.33-.88-2.12v-21.7c0-.8.32-1.56.88-2.12.56-.56,1.33-.88,2.12-.88"/><path class="cls-6" d="M106,35.4c-.66,0-1.3.2-1.83.59-.53.38-.93.93-1.13,1.55-.2.62-.2,1.3,0,1.92.2.62.6,1.17,1.13,1.55.53.38,1.17.59,1.83.59.66,0,1.3-.2,1.83-.59.53-.38.93-.93,1.13-1.55.2-.62.2-1.3,0-1.92-.2-.62-.6-1.17-1.13-1.55-.53-.38-1.17-.59-1.83-.59Z"/><path class="cls-4" d="M106,47v-6.6M95.5,27.3v-5.85c0-5.8,4.7-10.5,10.5-10.5s10.5,4.7,10.5,10.5v5.85M162,27.7h28c.79,0,1.56.32,2.12.88.56.56.88,1.33.88,2.12v21.7c0,.79-.32,1.56-.88,2.12-.56.56-1.33.88-2.12.88h-28c-.79,0-1.56-.32-2.12-.88-.56-.56-.88-1.33-.88-2.12v-21.7c0-.8.32-1.56.88-2.12.56-.56,1.33-.88,2.12-.88"/><path class="cls-6" d="M176,35.4c-.66,0-1.3.2-1.83.59-.53.38-.93.93-1.13,1.55-.2.62-.2,1.3,0,1.92.2.62.6,1.17,1.13,1.55.53.38,1.17.59,1.83.59.66,0,1.3-.2,1.83-.59.53-.38.93-.93,1.13-1.55.2-.62.2-1.3,0-1.92-.2-.62-.6-1.17-1.13-1.55-.53-.38-1.17-.59-1.83-.59Z"/><path class="cls-4" d="M176,47v-6.6M165.5,27.3v-4.81c0-5.8,4.7-10.5,10.5-10.5s10.5,4.7,10.5,10.5v4.81M232,27.7h28c.8,0,1.56.32,2.12.88.56.56.88,1.33.88,2.12v21.7c0,.79-.32,1.56-.88,2.12-.56.56-1.33.88-2.12.88h-28c-.79,0-1.56-.32-2.12-.88-.56-.56-.88-1.33-.88-2.12v-21.7c0-.8.32-1.56.88-2.12.56-.56,1.33-.88,2.12-.88"/><path class="cls-6" d="M246,35.4c-.66,0-1.3.2-1.83.59-.53.38-.93.93-1.13,1.55-.2.62-.2,1.3,0,1.92.2.62.6,1.17,1.13,1.55.53.38,1.17.59,1.83.59.66,0,1.3-.2,1.83-.59.53-.38.93-.93,1.13-1.55.2-.62.2-1.3,0-1.92-.2-.62-.6-1.17-1.13-1.55-.53-.38-1.17-.59-1.83-.59Z"/><path class="cls-4" d="M246,47v-6.6M235.5,27.3v-4.36c0-5.8,4.7-10.5,10.5-10.5s10.5,4.7,10.5,10.5v4.36M302,27.7h28c.8,0,1.56.32,2.12.88.56.56.88,1.33.88,2.12v21.7c0,.79-.32,1.56-.88,2.12-.56.56-1.33.88-2.12.88h-28c-.8,0-1.56-.32-2.12-.88-.56-.56-.88-1.33-.88-2.12v-21.7c0-.8.32-1.56.88-2.12.56-.56,1.33-.88,2.12-.88"/><path class="cls-6" d="M316,35.4c-.66,0-1.3.2-1.83.59-.53.38-.93.93-1.13,1.55-.2.62-.2,1.3,0,1.92.2.62.6,1.17,1.13,1.55.53.38,1.17.59,1.83.59.66,0,1.3-.2,1.83-.59.53-.38.93-.93,1.13-1.55.2-.62.2-1.3,0-1.92-.2-.62-.6-1.17-1.13-1.55-.53-.38-1.17-.59-1.83-.59Z"/><path class="cls-4" d="M316,47v-6.6M305.5,27.3v-4.21c0-5.8,4.7-10.5,10.5-10.5s10.5,4.7,10.5,10.5v4.21M372,27.7h28c.8,0,1.56.32,2.12.88.56.56.88,1.33.88,2.12v21.7c0,.79-.32,1.56-.88,2.12-.56.56-1.33.88-2.12.88h-28c-.8,0-1.56-.32-2.12-.88-.56-.56-.88-1.33-.88-2.12v-21.7c0-.8.32-1.56.88-2.12.56-.56,1.33-.88,2.12-.88"/><path class="cls-6" d="M386,35.4c-.66,0-1.3.2-1.83.59-.53.38-.93.93-1.13,1.55-.2.62-.2,1.3,0,1.92.2.62.6,1.17,1.13,1.55.53.38,1.17.59,1.83.59.66,0,1.3-.2,1.83-.59.53-.38.93-.93,1.13-1.55.2-.62.2-1.3,0-1.92-.2-.62-.6-1.17-1.13-1.55-.53-.38-1.17-.59-1.83-.59Z"/><path class="cls-4" d="M386,47v-6.6M375.5,27.3v-4.72c0-5.8,4.7-10.5,10.5-10.5s10.5,4.7,10.5,10.5v4.72M442,27.7h28c.8,0,1.56.32,2.12.88.56.56.88,1.33.88,2.12v21.7c0,.79-.32,1.56-.88,2.12-.56.56-1.33.88-2.12.88h-28c-.8,0-1.56-.32-2.12-.88-.56-.56-.88-1.33-.88-2.12v-21.7c0-.8.32-1.56.88-2.12.56-.56,1.33-.88,2.12-.88"/><path class="cls-6" d="M456,35.4c-.66,0-1.3.2-1.83.59-.53.38-.93.93-1.13,1.55-.2.62-.2,1.3,0,1.92.2.62.6,1.17,1.13,1.55.53.38,1.17.59,1.83.59.66,0,1.3-.2,1.83-.59.53-.38.93-.93,1.13-1.55.2-.62.2-1.3,0-1.92-.2-.62-.6-1.17-1.13-1.55-.53-.38-1.17-.59-1.83-.59Z"/><path class="cls-4" d="M456,47v-6.6M445.5,27.3v-5.59c0-5.8,4.7-10.5,10.5-10.5s10.5,4.7,10.5,10.5v5.59M512,27.7h28c.79,0,1.56.32,2.12.88.56.56.88,1.33.88,2.12v21.7c0,.79-.32,1.56-.88,2.12-.56.56-1.33.88-2.12.88h-28c-.8,0-1.56-.32-2.12-.88-.56-.56-.88-1.33-.88-2.12v-21.7c0-.8.32-1.56.88-2.12.56-.56,1.33-.88,2.12-.88"/><path class="cls-6" d="M526,35.4c-.66,0-1.3.2-1.83.59-.53.38-.93.93-1.13,1.55-.2.62-.2,1.3,0,1.92.2.62.6,1.17,1.13,1.55.53.38,1.17.59,1.83.59.66,0,1.3-.2,1.83-.59.53-.38.93-.93,1.13-1.55.2-.62.2-1.3,0-1.92-.2-.62-.6-1.17-1.13-1.55-.53-.38-1.17-.59-1.83-.59Z"/><path class="cls-4" d="M526,47v-6.6M515.5,27.3v-5.99c0-5.8,4.7-10.5,10.5-10.5s10.5,4.7,10.5,10.5v5.99"/><path class="cls-4" d="M582,27.7h28c.79,0,1.56.32,2.12.88.56.56.88,1.33.88,2.12v21.7c0,.79-.32,1.56-.88,2.12-.56.56-1.33.88-2.12.88h-28c-.79,0-1.56-.32-2.12-.88-.56-.56-.88-1.33-.88-2.12v-21.7c0-.8.32-1.56.88-2.12.56-.56,1.33-.88,2.12-.88"/><path class="cls-6" d="M596,35.4c-.66,0-1.3.2-1.83.59-.53.38-.93.93-1.13,1.55-.2.62-.2,1.3,0,1.92.2.62.6,1.17,1.13,1.55.53.38,1.17.59,1.83.59.66,0,1.3-.2,1.83-.59.53-.38.93-.93,1.13-1.55.2-.62.2-1.3,0-1.92-.2-.62-.6-1.17-1.13-1.55-.53-.38-1.17-.59-1.83-.59Z"/><path class="cls-4" d="M596,47v-6.6M585.5,27.3v-6.16c0-5.8,4.7-10.5,10.5-10.5s10.5,4.7,10.5,10.5v6.16"/><path class="cls-4" d="M652,27.7h28c.79,0,1.56.32,2.12.88.56.56.88,1.33.88,2.12v21.7c0,.79-.32,1.56-.88,2.12-.56.56-1.33.88-2.12.88h-28c-.79,0-1.56-.32-2.12-.88-.56-.56-.88-1.33-.88-2.12v-21.7c0-.8.32-1.56.88-2.12.56-.56,1.33-.88,2.12-.88"/><path class="cls-6" d="M666,35.4c-.66,0-1.3.2-1.83.59-.53.38-.93.93-1.13,1.55-.2.62-.2,1.3,0,1.92.2.62.6,1.17,1.13,1.55.53.38,1.17.59,1.83.59.66,0,1.3-.2,1.83-.59.53-.38.93-.93,1.13-1.55.2-.62.2-1.3,0-1.92-.2-.62-.6-1.17-1.13-1.55-.53-.38-1.17-.59-1.83-.59Z"/><path class="cls-4" d="M666,47v-6.6M655.5,27.15v-6.2c0-5.8,4.7-10.5,10.5-10.5s10.5,4.7,10.5,10.5v6.35"/><path class="cls-4" d="M722,27.7h28c.79,0,1.56.32,2.12.88.56.56.88,1.33.88,2.12v21.7c0,.79-.32,1.56-.88,2.12-.56.56-1.33.88-2.12.88h-28c-.79,0-1.56-.32-2.12-.88-.56-.56-.88-1.33-.88-2.12v-21.7c0-.8.32-1.56.88-2.12.56-.56,1.33-.88,2.12-.88"/><path class="cls-6" d="M736,35.4c-.66,0-1.3.2-1.83.59-.53.38-.93.93-1.13,1.55-.2.62-.2,1.3,0,1.92.2.62.6,1.17,1.13,1.55.53.38,1.17.59,1.83.59.66,0,1.3-.2,1.83-.59.53-.38.93-.93,1.13-1.55.2-.62.2-1.3,0-1.92-.2-.62-.6-1.17-1.13-1.55-.53-.38-1.17-.59-1.83-.59Z"/><path class="cls-4" d="M736,47v-6.6M725.5,26.45v-6.2c0-5.8,4.7-10.5,10.5-10.5s10.5,4.7,10.5,10.5v7.04"/><path class="cls-4" d="M792,27.7h28c.79,0,1.56.32,2.12.88.56.56.88,1.33.88,2.12v21.7c0,.79-.32,1.56-.88,2.12-.56.56-1.33.88-2.12.88h-28c-.79,0-1.56-.32-2.12-.88-.56-.56-.88-1.33-.88-2.12v-21.7c0-.8.32-1.56.88-2.12.56-.56,1.33-.88,2.12-.88"/><path class="cls-6" d="M806,35.4c-.66,0-1.3.2-1.83.59-.53.38-.93.93-1.13,1.55-.2.62-.2,1.3,0,1.92.2.62.6,1.17,1.13,1.55.53.38,1.17.59,1.83.59.66,0,1.3-.2,1.83-.59.53-.38.93-.93,1.13-1.55.2-.62.2-1.3,0-1.92-.2-.62-.6-1.17-1.13-1.55-.53-.38-1.17-.59-1.83-.59Z"/><path class="cls-4" d="M806,47v-6.6M795.5,24.86v-6.2c0-5.8,4.7-10.5,10.5-10.5s10.5,4.7,10.5,10.5v8.64"/><path class="cls-4" d="M862,27.7h28c.79,0,1.56.32,2.12.88.56.56.88,1.33.88,2.12v21.7c0,.79-.32,1.56-.88,2.12-.56.56-1.33.88-2.12.88h-28c-.79,0-1.56-.32-2.12-.88-.56-.56-.88-1.33-.88-2.12v-21.7c0-.8.32-1.56.88-2.12.56-.56,1.33-.88,2.12-.88"/><path class="cls-6" d="M876,35.4c-.66,0-1.3.2-1.83.59-.53.38-.93.93-1.13,1.55-.2.62-.2,1.3,0,1.92.2.62.6,1.17,1.13,1.55.53.38,1.17.59,1.83.59.66,0,1.3-.2,1.83-.59.53-.38.93-.93,1.13-1.55.2-.62.2-1.3,0-1.92-.2-.62-.6-1.17-1.13-1.55-.53-.38-1.17-.59-1.83-.59Z"/><path class="cls-4" d="M876,47v-6.6M865.5,23.09v-6.2c0-5.8,4.7-10.5,10.5-10.5s10.5,4.7,10.5,10.5v10.41"/><path class="cls-4" d="M932,27.7h28c.79,0,1.56.32,2.12.88.56.56.88,1.33.88,2.12v21.7c0,.79-.32,1.56-.88,2.12-.56.56-1.33.88-2.12.88h-28c-.79,0-1.56-.32-2.12-.88-.56-.56-.88-1.33-.88-2.12v-21.7c0-.8.32-1.56.88-2.12.56-.56,1.33-.88,2.12-.88"/><path class="cls-6" d="M946,35.4c-.66,0-1.3.2-1.83.59-.53.38-.93.93-1.13,1.55-.2.62-.2,1.3,0,1.92.2.62.6,1.17,1.13,1.55.53.38,1.17.59,1.83.59.66,0,1.3-.2,1.83-.59.53-.38.93-.93,1.13-1.55.2-.62.2-1.3,0-1.92-.2-.62-.6-1.17-1.13-1.55-.53-.38-1.17-.59-1.83-.59Z"/><path class="cls-4" d="M946,47v-6.6M935.5,21.92v-6.2c0-5.8,4.7-10.5,10.5-10.5s10.5,4.7,10.5,10.5v11.58"/><path class="cls-4" d="M1002,27.7h28c.8,0,1.56.32,2.12.88.56.56.88,1.33.88,2.12v21.7c0,.79-.32,1.56-.88,2.12-.56.56-1.33.88-2.12.88h-28c-.79,0-1.56-.32-2.12-.88-.56-.56-.88-1.33-.88-2.12v-21.7c0-.8.32-1.56.88-2.12.56-.56,1.33-.88,2.12-.88"/><path class="cls-6" d="M1016,35.4c-.66,0-1.3.2-1.83.59-.53.38-.93.93-1.13,1.55-.2.62-.2,1.3,0,1.92.2.62.6,1.17,1.13,1.55.53.38,1.17.59,1.83.59.66,0,1.3-.2,1.83-.59.53-.38.93-.93,1.13-1.55.2-.62.2-1.3,0-1.92-.2-.62-.6-1.17-1.13-1.55-.53-.38-1.17-.59-1.83-.59Z"/><path class="cls-4" d="M1016,47v-6.6M1005.5,21.19v-6.2c0-5.8,4.7-10.5,10.5-10.5s10.5,4.7,10.5,10.5v12.31"/><path class="cls-4" d="M1072,27.7h28c.8,0,1.56.32,2.12.88.56.56.88,1.33.88,2.12v21.7c0,.79-.32,1.56-.88,2.12-.56.56-1.33.88-2.12.88h-28c-.8,0-1.56-.32-2.12-.88-.56-.56-.88-1.33-.88-2.12v-21.7c0-.8.32-1.56.88-2.12.56-.56,1.33-.88,2.12-.88"/><path class="cls-6" d="M1086,35.4c-.66,0-1.3.2-1.83.59-.53.38-.93.93-1.13,1.55-.2.62-.2,1.3,0,1.92.2.62.6,1.17,1.13,1.55.53.38,1.17.59,1.83.59.66,0,1.3-.2,1.83-.59.53-.38.93-.93,1.13-1.55.2-.62.2-1.3,0-1.92-.2-.62-.6-1.17-1.13-1.55-.53-.38-1.17-.59-1.83-.59Z"/><path class="cls-4" d="M1086,47v-6.6M1075.5,20.74v-6.2c0-5.8,4.7-10.5,10.5-10.5s10.5,4.7,10.5,10.5v12.76"/><path class="cls-4" d="M1142,27.7h28c.8,0,1.56.32,2.12.88.56.56.88,1.33.88,2.12v21.7c0,.79-.32,1.56-.88,2.12-.56.56-1.33.88-2.12.88h-28c-.8,0-1.56-.32-2.12-.88-.56-.56-.88-1.33-.88-2.12v-21.7c0-.8.32-1.56.88-2.12.56-.56,1.33-.88,2.12-.88"/><path class="cls-6" d="M1156,35.4c-.66,0-1.3.2-1.83.59-.53.38-.93.93-1.13,1.55-.2.62-.2,1.3,0,1.92.2.62.6,1.17,1.13,1.55.53.38,1.17.59,1.83.59.66,0,1.3-.2,1.83-.59.53-.38.93-.93,1.13-1.55.2-.62.2-1.3,0-1.92-.2-.62-.6-1.17-1.13-1.55-.53-.38-1.17-.59-1.83-.59Z"/><path class="cls-4" d="M1156,47v-6.6M1145.5,20.48v-6.2c0-5.8,4.7-10.5,10.5-10.5s10.5,4.7,10.5,10.5v13.02"/><path class="cls-4" d="M1212,27.7h28c.8,0,1.56.32,2.12.88.56.56.88,1.33.88,2.12v21.7c0,.79-.32,1.56-.88,2.12-.56.56-1.33.88-2.12.88h-28c-.8,0-1.56-.32-2.12-.88-.56-.56-.88-1.33-.88-2.12v-21.7c0-.8.32-1.56.88-2.12.56-.56,1.33-.88,2.12-.88"/><path class="cls-6" d="M1226,35.4c-.66,0-1.3.2-1.83.59-.53.38-.93.93-1.13,1.55-.2.62-.2,1.3,0,1.92.2.62.6,1.17,1.13,1.55.53.38,1.17.59,1.83.59.66,0,1.3-.2,1.83-.59.53-.38.93-.93,1.13-1.55.2-.62.2-1.3,0-1.92-.2-.62-.6-1.17-1.13-1.55-.53-.38-1.17-.59-1.83-.59Z"/><path class="cls-4" d="M1226,47v-6.6M1215.5,20.34v-6.2c0-5.8,4.7-10.5,10.5-10.5s10.5,4.7,10.5,10.5v13.16"/><path class="cls-4" d="M1282,27.7h28c.8,0,1.56.32,2.12.88.56.56.88,1.33.88,2.12v21.7c0,.79-.32,1.56-.88,2.12-.56.56-1.33.88-2.12.88h-28c-.8,0-1.56-.32-2.12-.88-.56-.56-.88-1.33-.88-2.12v-21.7c0-.8.32-1.56.88-2.12.56-.56,1.33-.88,2.12-.88"/><path class="cls-6" d="M1296,35.4c-.66,0-1.3.2-1.83.59-.53.38-.93.93-1.13,1.55-.2.62-.2,1.3,0,1.92.2.62.6,1.17,1.13,1.55.53.38,1.17.59,1.83.59.66,0,1.3-.2,1.83-.59.53-.38.93-.93,1.13-1.55.2-.62.2-1.3,0-1.92-.2-.62-.6-1.17-1.13-1.55-.53-.38-1.17-.59-1.83-.59Z"/><path class="cls-4" d="M1296,47v-6.6M1286.38,20.3v-6.2c0-5.8,4.5-10.5,10.06-10.5s10.06,4.7,10.06,10.5v13.2"/><path class="cls-4" d="M1352,27.7h28c.8,0,1.56.32,2.12.88.56.56.88,1.33.88,2.12v21.7c0,.79-.32,1.56-.88,2.12-.56.56-1.33.88-2.12.88h-28c-.8,0-1.56-.32-2.12-.88-.56-.56-.88-1.33-.88-2.12v-21.7c0-.8.32-1.56.88-2.12.56-.56,1.33-.88,2.12-.88"/><path class="cls-6" d="M1366,35.4c-.66,0-1.3.2-1.83.59-.53.38-.93.93-1.13,1.55-.2.62-.2,1.3,0,1.92.2.62.6,1.17,1.13,1.55.53.38,1.17.59,1.83.59.66,0,1.3-.2,1.83-.59.53-.38.93-.93,1.13-1.55.2-.62.2-1.3,0-1.92-.2-.62-.6-1.17-1.13-1.55-.53-.38-1.17-.59-1.83-.59Z"/><path class="cls-4" d="M1366,47v-6.6M1360.57,20.3v-6.2c0-5.8,3.56-10.5,7.96-10.5s7.96,4.7,7.96,10.5v13.2"/><path class="cls-4" d="M1422,27.7h28c.8,0,1.56.32,2.12.88.56.56.88,1.33.88,2.12v21.7c0,.79-.32,1.56-.88,2.12-.56.56-1.33.88-2.12.88h-28c-.8,0-1.56-.32-2.12-.88-.56-.56-.88-1.33-.88-2.12v-21.7c0-.8.32-1.56.88-2.12.56-.56,1.33-.88,2.12-.88"/><path class="cls-6" d="M1436,35.4c-.66,0-1.3.2-1.83.59-.53.38-.93.93-1.13,1.55-.2.62-.2,1.3,0,1.92.2.62.6,1.17,1.13,1.55.53.38,1.17.59,1.83.59.66,0,1.3-.2,1.83-.59.53-.38.93-.93,1.13-1.55.2-.62.2-1.3,0-1.92-.2-.62-.6-1.17-1.13-1.55-.53-.38-1.17-.59-1.83-.59Z"/><path class="cls-4" d="M1436,47v-6.6M1440.12,20.3v-6.2c0-5.8,1.43-10.5,3.19-10.5s3.19,4.7,3.19,10.5v13.2"/><path class="cls-4" d="M1492,27.7h28c.8,0,1.56.32,2.12.88.56.56.88,1.33.88,2.12v21.7c0,.79-.32,1.56-.88,2.12-.56.56-1.33.88-2.12.88h-28c-.8,0-1.56-.32-2.12-.88-.56-.56-.88-1.33-.88-2.12v-21.7c0-.8.32-1.56.88-2.12.56-.56,1.33-.88,2.12-.88"/><path class="cls-6" d="M1506,35.4c-.66,0-1.3.2-1.83.59-.53.38-.93.93-1.13,1.55-.2.62-.2,1.3,0,1.92.2.62.6,1.17,1.13,1.55.53.38,1.17.59,1.83.59.66,0,1.3-.2,1.83-.59.53-.38.93-.93,1.13-1.55.2-.62.2-1.3,0-1.92-.2-.62-.6-1.17-1.13-1.55-.53-.38-1.17-.59-1.83-.59Z"/><path class="cls-4" d="M1506,47v-6.6M1520.74,20.3v-6.2c0-5.8-.95-10.5-2.12-10.5s-2.12,4.7-2.12,10.5v13.2"/><path class="cls-4" d="M1562,27.7h28c.8,0,1.56.32,2.12.88.56.56.88,1.33.88,2.12v21.7c0,.79-.32,1.56-.88,2.12-.56.56-1.33.88-2.12.88h-28c-.8,0-1.56-.32-2.12-.88-.56-.56-.88-1.33-.88-2.12v-21.7c0-.8.32-1.56.88-2.12.56-.56,1.33-.88,2.12-.88"/><path class="cls-6" d="M1576,35.4c-.66,0-1.3.2-1.83.59-.53.38-.93.93-1.13,1.55-.2.62-.2,1.3,0,1.92.2.62.6,1.17,1.13,1.55.53.38,1.17.59,1.83.59.66,0,1.3-.2,1.83-.59.53-.38.93-.93,1.13-1.55.2-.62.2-1.3,0-1.92-.2-.62-.6-1.17-1.13-1.55-.53-.38-1.17-.59-1.83-.59Z"/><path class="cls-4" d="M1576,47v-6.6M1597.8,20.3v-6.2c0-5.8-2.53-10.5-5.65-10.5s-5.65,4.7-5.65,10.5v13.2"/><path class="cls-4" d="M1632,27.7h28c.8,0,1.56.32,2.12.88.56.56.88,1.33.88,2.12v21.7c0,.79-.32,1.56-.88,2.12-.56.56-1.33.88-2.12.88h-28c-.8,0-1.56-.32-2.12-.88-.56-.56-.88-1.33-.88-2.12v-21.7c0-.8.32-1.56.88-2.12.56-.56,1.33-.88,2.12-.88"/><path class="cls-6" d="M1646,35.4c-.66,0-1.3.2-1.83.59-.53.38-.93.93-1.13,1.55-.2.62-.2,1.3,0,1.92.2.62.6,1.17,1.13,1.55.53.38,1.17.59,1.83.59.66,0,1.3-.2,1.83-.59.53-.38.93-.93,1.13-1.55.2-.62.2-1.3,0-1.92-.2-.62-.6-1.17-1.13-1.55-.53-.38-1.17-.59-1.83-.59Z"/><path class="cls-4" d="M1646,47v-6.6M1672.16,20.3v-6.2c0-5.8-3.5-10.5-7.83-10.5s-7.83,4.7-7.83,10.5v13.2"/><path class="cls-4" d="M1702,27.7h28c.8,0,1.56.32,2.12.88.56.56.88,1.33.88,2.12v21.7c0,.79-.32,1.56-.88,2.12-.56.56-1.33.88-2.12.88h-28c-.8,0-1.56-.32-2.12-.88-.56-.56-.88-1.33-.88-2.12v-21.7c0-.8.32-1.56.88-2.12.56-.56,1.33-.88,2.12-.88"/><path class="cls-6" d="M1716,35.4c-.66,0-1.3.2-1.83.59-.53.38-.93.93-1.13,1.55-.2.62-.2,1.3,0,1.92.2.62.6,1.17,1.13,1.55.53.38,1.17.59,1.83.59.66,0,1.3-.2,1.83-.59.53-.38.93-.93,1.13-1.55.2-.62.2-1.3,0-1.92-.2-.62-.6-1.17-1.13-1.55-.53-.38-1.17-.59-1.83-.59Z"/><path class="cls-4" d="M1716,47v-6.6M1744.84,20.3v-6.2c0-5.8-4.11-10.5-9.17-10.5s-9.17,4.7-9.17,10.5v13.2"/><path class="cls-4" d="M1772,27.7h28c.8,0,1.56.32,2.12.88.56.56.88,1.33.88,2.12v21.7c0,.79-.32,1.56-.88,2.12-.56.56-1.33.88-2.12.88h-28c-.8,0-1.56-.32-2.12-.88-.56-.56-.88-1.33-.88-2.12v-21.7c0-.8.32-1.56.88-2.12.56-.56,1.33-.88,2.12-.88"/><path class="cls-6" d="M1786,35.4c-.66,0-1.3.2-1.83.59-.53.38-.93.93-1.13,1.55-.2.62-.2,1.3,0,1.92.2.62.6,1.17,1.13,1.55.53.38,1.17.59,1.83.59.66,0,1.3-.2,1.83-.59.53-.38.93-.93,1.13-1.55.2-.62.2-1.3,0-1.92-.2-.62-.6-1.17-1.13-1.55-.53-.38-1.17-.59-1.83-.59Z"/><path class="cls-4" d="M1786,47v-6.6M1816.44,20.3v-6.2c0-5.8-4.46-10.5-9.97-10.5s-9.97,4.7-9.97,10.5v13.2"/><path class="cls-4" d="M1842,27.7h28c.8,0,1.56.32,2.12.88.56.56.88,1.33.88,2.12v21.7c0,.79-.32,1.56-.88,2.12-.56.56-1.33.88-2.12.88h-28c-.8,0-1.56-.32-2.12-.88-.56-.56-.88-1.33-.88-2.12v-21.7c0-.8.32-1.56.88-2.12.56-.56,1.33-.88,2.12-.88"/><path class="cls-6" d="M1856,35.4c-.66,0-1.3.2-1.83.59-.53.38-.93.93-1.13,1.55-.2.62-.2,1.3,0,1.92.2.62.6,1.17,1.13,1.55.53.38,1.17.59,1.83.59.66,0,1.3-.2,1.83-.59.53-.38.93-.93,1.13-1.55.2-.62.2-1.3,0-1.92-.2-.62-.6-1.17-1.13-1.55-.53-.38-1.17-.59-1.83-.59Z"/><path class="cls-4" d="M1856,47v-6.6M1887.26,20.3v-6.2c0-5.8-4.65-10.5-10.38-10.5s-10.38,4.7-10.38,10.5v13.2"/><path class="cls-4" d="M1912,27.7h28c.8,0,1.56.32,2.12.88.56.56.88,1.33.88,2.12v21.7c0,.79-.32,1.56-.88,2.12-.56.56-1.33.88-2.12.88h-28c-.8,0-1.56-.32-2.12-.88-.56-.56-.88-1.33-.88-2.12v-21.7c0-.8.32-1.56.88-2.12.56-.56,1.33-.88,2.12-.88"/><path class="cls-6" d="M1926,35.4c-.66,0-1.3.2-1.83.59-.53.38-.93.93-1.13,1.55-.2.62-.2,1.3,0,1.92.2.62.6,1.17,1.13,1.55.53.38,1.17.59,1.83.59.66,0,1.3-.2,1.83-.59.53-.38.93-.93,1.13-1.55.2-.62.2-1.3,0-1.92-.2-.62-.6-1.17-1.13-1.55-.53-.38-1.17-.59-1.83-.59Z"/><path class="cls-4" d="M1926,47v-6.6M1957.5,20.3v-6.2c0-5.8-4.7-10.5-10.5-10.5s-10.5,4.7-10.5,10.5v13.2"/><path class="cls-4" d="M1982,27.7h28c.8,0,1.56.32,2.12.88.56.56.88,1.33.88,2.12v21.7c0,.79-.32,1.56-.88,2.12-.56.56-1.33.88-2.12.88h-28c-.8,0-1.56-.32-2.12-.88-.56-.56-.88-1.33-.88-2.12v-21.7c0-.8.32-1.56.88-2.12.56-.56,1.33-.88,2.12-.88"/><path class="cls-6" d="M1996,35.4c-.66,0-1.3.2-1.83.59-.53.38-.93.93-1.13,1.55-.2.62-.2,1.3,0,1.92.2.62.6,1.17,1.13,1.55.53.38,1.17.59,1.83.59.66,0,1.3-.2,1.83-.59.53-.38.93-.93,1.13-1.55.2-.62.2-1.3,0-1.92-.2-.62-.6-1.17-1.13-1.55-.53-.38-1.17-.59-1.83-.59Z"/><path class="cls-4" d="M1996,47v-6.6M2027.5,20.3v-6.2c0-5.8-4.7-10.5-10.5-10.5s-10.5,4.7-10.5,10.5v13.2"/><path class="cls-4" d="M2052,27.7h28c.79,0,1.56.32,2.12.88.56.56.88,1.33.88,2.12v21.7c0,.79-.32,1.56-.88,2.12-.56.56-1.33.88-2.12.88h-28c-.79,0-1.56-.32-2.12-.88-.56-.56-.88-1.33-.88-2.12v-21.7c0-.8.32-1.56.88-2.12.56-.56,1.33-.88,2.12-.88"/><path class="cls-6" d="M2066,35.4c-.66,0-1.3.2-1.83.59-.53.38-.93.93-1.13,1.55-.2.62-.2,1.3,0,1.92.2.62.6,1.17,1.13,1.55.53.38,1.17.59,1.83.59.66,0,1.3-.2,1.83-.59.53-.38.93-.93,1.13-1.55.2-.62.2-1.3,0-1.92-.2-.62-.6-1.17-1.13-1.55-.53-.38-1.17-.59-1.83-.59Z"/><path class="cls-4" d="M2066,47v-6.6M2097.5,20.3v-6.2c0-5.8-4.7-10.5-10.5-10.5s-10.5,4.7-10.5,10.5v13.2"/><path class="cls-4" d="M2122,27.7h28c.79,0,1.56.32,2.12.88.56.56.88,1.33.88,2.12v21.7c0,.79-.32,1.56-.88,2.12-.56.56-1.33.88-2.12.88h-28c-.79,0-1.56-.32-2.12-.88-.56-.56-.88-1.33-.88-2.12v-21.7c0-.8.32-1.56.88-2.12.56-.56,1.33-.88,2.12-.88"/><path class="cls-6" d="M2136,35.4c-.66,0-1.3.2-1.83.59-.53.38-.93.93-1.13,1.55-.2.62-.2,1.3,0,1.92.2.62.6,1.17,1.13,1.55.53.38,1.17.59,1.83.59.66,0,1.3-.2,1.83-.59.53-.38.93-.93,1.13-1.55.2-.62.2-1.3,0-1.92-.2-.62-.6-1.17-1.13-1.55-.53-.38-1.17-.59-1.83-.59Z"/><path class="cls-4" d="M2136,47v-6.6M2167.5,20.3v-6.2c0-5.8-4.7-10.5-10.5-10.5s-10.5,4.7-10.5,10.5v13.2"/><path class="cls-3" d="M176,1v4M187.5,6.4l-3.1,2.5M164.5,6.4l3.1,2.5"/><path class="cls-3" d="M596,1v4M607.5,6.4l-3.1,2.5M584.5,6.4l3.1,2.5"/><path class="cls-5" d="M246,1v4M257.5,6.4l-3.1,2.5M234.5,6.4l3.1,2.5"/><path class="cls-5" d="M526,1v4M537.5,6.4l-3.1,2.5M514.5,6.4l3.1,2.5"/><path class="cls-2" d="M316,1v4M327.5,6.4l-3.1,2.5M304.5,6.4l3.1,2.5"/><path class="cls-2" d="M456,1v4M467.5,6.4l-3.1,2.5M444.5,6.4l3.1,2.5"/><path class="cls-1" d="M386,1v4M397.5,6.4l-3.1,2.5M374.5,6.4l3.1,2.5"/></svg>