<?xml version="1.0" encoding="UTF-8"?><svg id="Layer_1" xmlns="http://www.w3.org/2000/svg" width="4690" height="70" xmlns:xlink="http://www.w3.org/1999/xlink" viewBox="0 0 4690 70"><defs><style>.cls-1,.cls-2,.cls-3,.cls-4,.cls-5,.cls-6,.cls-7,.cls-8,.cls-9,.cls-10,.cls-11,.cls-12,.cls-13,.cls-14,.cls-15,.cls-16,.cls-17,.cls-18,.cls-19,.cls-20,.cls-21,.cls-22,.cls-23,.cls-24,.cls-25,.cls-26,.cls-27,.cls-28,.cls-29,.cls-30,.cls-31,.cls-32,.cls-33,.cls-34,.cls-35,.cls-36,.cls-37,.cls-38,.cls-39,.cls-40,.cls-41,.cls-42,.cls-43,.cls-44,.cls-45,.cls-46,.cls-47,.cls-48,.cls-49,.cls-50,.cls-51,.cls-52,.cls-53,.cls-54,.cls-55,.cls-56,.cls-57,.cls-58,.cls-59,.cls-60,.cls-61,.cls-62,.cls-63,.cls-64,.cls-65,.cls-66,.cls-67,.cls-68,.cls-69,.cls-70,.cls-71,.cls-72,.cls-73,.cls-74,.cls-75,.cls-76,.cls-77{fill:none;}.cls-1,.cls-2,.cls-3,.cls-4,.cls-5,.cls-6,.cls-7,.cls-8,.cls-9,.cls-11,.cls-12,.cls-13,.cls-14,.cls-15,.cls-16,.cls-17,.cls-18,.cls-19,.cls-20,.cls-21,.cls-22,.cls-23,.cls-24,.cls-25,.cls-26,.cls-27,.cls-28,.cls-29,.cls-30,.cls-31,.cls-32,.cls-33,.cls-34,.cls-35,.cls-36,.cls-37,.cls-38,.cls-39,.cls-40,.cls-41,.cls-42,.cls-43,.cls-44,.cls-45,.cls-46,.cls-47,.cls-48,.cls-49,.cls-50,.cls-51,.cls-52,.cls-53,.cls-54,.cls-55,.cls-56,.cls-57,.cls-58,.cls-59,.cls-60,.cls-61,.cls-62,.cls-63,.cls-64,.cls-65,.cls-66,.cls-67,.cls-68,.cls-69,.cls-70,.cls-71,.cls-72,.cls-73,.cls-74,.cls-75,.cls-76,.cls-77{stroke-linecap:round;stroke-linejoin:round;stroke-width:3px;}.cls-1,.cls-4,.cls-6,.cls-7,.cls-8,.cls-11,.cls-14,.cls-18,.cls-20,.cls-23,.cls-25,.cls-26,.cls-27,.cls-31,.cls-32,.cls-33,.cls-35,.cls-36,.cls-38,.cls-39,.cls-40,.cls-42,.cls-43,.cls-44,.cls-46,.cls-48,.cls-50,.cls-51,.cls-52,.cls-55,.cls-56,.cls-58,.cls-59,.cls-60,.cls-62,.cls-65,.cls-66,.cls-67,.cls-68,.cls-69,.cls-70,.cls-72,.cls-73,.cls-74,.cls-75{stroke:#fff;}.cls-2{stroke-dasharray:0 0 84.3 100.06;}.cls-2,.cls-3,.cls-5,.cls-9,.cls-12,.cls-13,.cls-15,.cls-16,.cls-17,.cls-19,.cls-21,.cls-22,.cls-24,.cls-28,.cls-29,.cls-30,.cls-34,.cls-37,.cls-41,.cls-45,.cls-47,.cls-49,.cls-53,.cls-54,.cls-57,.cls-61,.cls-63,.cls-64,.cls-71,.cls-76,.cls-77{stroke:#000850;}.cls-2,.cls-3,.cls-5,.cls-9,.cls-12,.cls-13,.cls-15,.cls-16,.cls-17,.cls-19,.cls-21,.cls-22,.cls-24,.cls-28,.cls-29,.cls-30,.cls-34,.cls-37,.cls-45,.cls-47,.cls-49,.cls-53,.cls-54,.cls-57,.cls-61,.cls-63,.cls-64,.cls-71,.cls-76,.cls-77{stroke-dashoffset:184.37px;}.cls-3{stroke-dasharray:0 0 156.27 28.09;}.cls-4{stroke-dasharray:0 0 0 0 0 0 1.41 27;}.cls-4,.cls-6,.cls-8,.cls-23,.cls-25,.cls-27,.cls-33,.cls-38,.cls-42,.cls-43,.cls-44,.cls-65,.cls-67,.cls-69,.cls-70,.cls-73{stroke-dashoffset:28.3px;}.cls-5{stroke-dasharray:0 0 113.13 71.24;}.cls-6{stroke-dasharray:0 0 0 0 0 0 0 28.4;}.cls-7{stroke-dasharray:0 0 0 0 0 0 18.54 10.3;}.cls-7,.cls-11,.cls-14,.cls-32,.cls-40,.cls-48,.cls-52,.cls-56,.cls-58,.cls-59,.cls-62,.cls-68,.cls-74{stroke-dashoffset:28.77px;}.cls-8{stroke-dasharray:0 0 0 0 0 0 20.66 7.7;}.cls-9{stroke-dasharray:0 0 175.69 8.67;}.cls-78{clip-path:url(#clippath);}.cls-10,.cls-79{stroke-width:0px;}.cls-11{stroke-dasharray:0 0 0 0 0 0 28.77 0;}.cls-12{stroke-dasharray:0 0 15.69 168.68;}.cls-13{stroke-dasharray:0 0 67.72 116.65;}.cls-14{stroke-dasharray:0 0 0 0 0 0 13.09 15.7;}.cls-15{stroke-dasharray:0 0 24.7 159.67;}.cls-16{stroke-dasharray:0 0 161.5 22.87;}.cls-17{stroke-dasharray:0 0 1.96 182.4;}.cls-18{stroke-dasharray:0 0 0 0 0 0 16.09 2.6;}.cls-18,.cls-20,.cls-26,.cls-31,.cls-35,.cls-36,.cls-39,.cls-46,.cls-51,.cls-55,.cls-60,.cls-66,.cls-72,.cls-75{stroke-dashoffset:18.6px;}.cls-19{stroke-dasharray:0 0 .46 183.91;}.cls-20{stroke-dasharray:0 0 0 0 0 0 14.48 4.2;}.cls-21{stroke-dasharray:0 0 9.21 175.16;}.cls-22{stroke-dasharray:0 0 183.92 .45;}.cls-23{stroke-dasharray:0 0 0 0 0 0 .3 28.1;}.cls-24{stroke-dasharray:0 0 36.59 147.78;}.cls-25{stroke-dasharray:0 0 0 0 0 0 3.79 24.6;}.cls-26{stroke-dasharray:0 0 0 0 0 0 4.46 14.2;}.cls-27{stroke-dasharray:0 0 0 0 0 0 24.79 3.6;}.cls-28{stroke-dasharray:0 0 179.81 4.56;}.cls-29{stroke-dasharray:0 0 183.33 1.04;}.cls-30{stroke-dasharray:0 0 182.46 1.91;}.cls-31{stroke-dasharray:0 0 0 0 0 0 12.09 6.6;}.cls-32{stroke-dasharray:0 0 0 0 0 0 6.76 22.1;}.cls-33{stroke-dasharray:0 0 0 0 0 0 26.06 2.3;}.cls-80{clip-path:url(#clippath-1);}.cls-81{clip-path:url(#clippath-4);}.cls-82{clip-path:url(#clippath-3);}.cls-83{clip-path:url(#clippath-2);}.cls-84{clip-path:url(#clippath-7);}.cls-85{clip-path:url(#clippath-8);}.cls-86{clip-path:url(#clippath-6);}.cls-87{clip-path:url(#clippath-5);}.cls-88{clip-path:url(#clippath-9);}.cls-34{stroke-dasharray:0 0 165.96 18.41;}.cls-35{stroke-dasharray:0 0 0 0 0 0 17.16 1.5;}.cls-36{stroke-dasharray:0 0 0 0 0 0 0 18.7;}.cls-37{stroke-dasharray:0 0 169.76 14.61;}.cls-89{clip-path:url(#clippath-60);}.cls-90{clip-path:url(#clippath-20);}.cls-91{clip-path:url(#clippath-21);}.cls-92{clip-path:url(#clippath-24);}.cls-93{clip-path:url(#clippath-23);}.cls-94{clip-path:url(#clippath-22);}.cls-95{clip-path:url(#clippath-25);}.cls-96{clip-path:url(#clippath-44);}.cls-97{clip-path:url(#clippath-45);}.cls-98{clip-path:url(#clippath-40);}.cls-99{clip-path:url(#clippath-42);}.cls-100{clip-path:url(#clippath-41);}.cls-101{clip-path:url(#clippath-47);}.cls-102{clip-path:url(#clippath-43);}.cls-103{clip-path:url(#clippath-46);}.cls-104{clip-path:url(#clippath-48);}.cls-105{clip-path:url(#clippath-49);}.cls-106{clip-path:url(#clippath-27);}.cls-107{clip-path:url(#clippath-28);}.cls-108{clip-path:url(#clippath-26);}.cls-109{clip-path:url(#clippath-29);}.cls-110{clip-path:url(#clippath-34);}.cls-111{clip-path:url(#clippath-35);}.cls-112{clip-path:url(#clippath-36);}.cls-113{clip-path:url(#clippath-37);}.cls-114{clip-path:url(#clippath-39);}.cls-115{clip-path:url(#clippath-33);}.cls-116{clip-path:url(#clippath-32);}.cls-117{clip-path:url(#clippath-30);}.cls-118{clip-path:url(#clippath-38);}.cls-119{clip-path:url(#clippath-31);}.cls-120{clip-path:url(#clippath-53);}.cls-121{clip-path:url(#clippath-54);}.cls-122{clip-path:url(#clippath-50);}.cls-123{clip-path:url(#clippath-51);}.cls-124{clip-path:url(#clippath-52);}.cls-125{clip-path:url(#clippath-55);}.cls-126{clip-path:url(#clippath-56);}.cls-127{clip-path:url(#clippath-57);}.cls-128{clip-path:url(#clippath-58);}.cls-129{clip-path:url(#clippath-61);}.cls-130{clip-path:url(#clippath-64);}.cls-131{clip-path:url(#clippath-62);}.cls-132{clip-path:url(#clippath-67);}.cls-133{clip-path:url(#clippath-59);}.cls-134{clip-path:url(#clippath-65);}.cls-135{clip-path:url(#clippath-63);}.cls-136{clip-path:url(#clippath-66);}.cls-137{clip-path:url(#clippath-14);}.cls-138{clip-path:url(#clippath-13);}.cls-139{clip-path:url(#clippath-12);}.cls-140{clip-path:url(#clippath-10);}.cls-141{clip-path:url(#clippath-15);}.cls-142{clip-path:url(#clippath-17);}.cls-143{clip-path:url(#clippath-16);}.cls-144{clip-path:url(#clippath-19);}.cls-145{clip-path:url(#clippath-11);}.cls-146{clip-path:url(#clippath-18);}.cls-38{stroke-dasharray:0 0 0 0 0 0 28.01 .29;}.cls-39{stroke-dasharray:0 0 0 0 0 0 17.87 .8;}.cls-40{stroke-dasharray:0 0 0 0 0 0 2.43 26.4;}.cls-42{stroke-dasharray:0 0 0 0 0 0 28.23 .07;}.cls-43{stroke-dasharray:0 0 0 0 0 0 7.87 20.5;}.cls-44{stroke-dasharray:0 0 0 0 0 0 17.36 11;}.cls-45{stroke-dasharray:0 0 134.58 49.78;}.cls-46{stroke-dasharray:0 0 0 0 0 0 8.59 10.1;}.cls-47{stroke-dasharray:0 0 124.71 59.66;}.cls-48{stroke-dasharray:0 0 0 0 0 0 .49 28.3;}.cls-49{stroke-dasharray:0 0 4.77 179.6;}.cls-50{stroke-dasharray:0 0 0 28.77;stroke-dashoffset:28.77px;}.cls-51{stroke-dasharray:0 0 0 0 0 0 18.31 .3;}.cls-52{stroke-dasharray:0 0 0 0 0 0 22.27 6.6;}.cls-53{stroke-dasharray:0 0 181.3 3.07;}.cls-79{fill:#000850;}.cls-54{stroke-dasharray:0 0 51.26 133.1;}.cls-55{stroke-dasharray:0 0 0 18.6;}.cls-56{stroke-dasharray:0 0 0 0 0 0 27.58 1.2;}.cls-57{stroke-dasharray:0 0 150.15 34.21;}.cls-58{stroke-dasharray:0 0 0 0 0 0 24.78 4;}.cls-59{stroke-dasharray:0 0 0 0 0 0 28.28 .49;}.cls-60{stroke-dasharray:0 0 0 0 0 0 1.6 17.1;}.cls-61{stroke-dasharray:0 0 184.26 .11;}.cls-62{stroke-dasharray:0 0 0 0 0 0 26.46 2.4;}.cls-63{stroke-dasharray:0 0 172.98 11.39;}.cls-64{stroke-dasharray:0 0 177.95 6.41;}.cls-65{stroke-dasharray:0 0 0 0 0 0 12.94 15.4;}.cls-66{stroke-dasharray:0 0 0 0 0 0 18.54 .1;}.cls-67{stroke-dasharray:0 0 0 0 0 0 26.97 1.4;}.cls-68{stroke-dasharray:0 0 0 0 0 0 28.65 .12;}.cls-69{stroke-dasharray:0 0 0 28.3;}.cls-70{stroke-dasharray:0 0 0 0 0 0 23.05 5.3;}.cls-71{stroke-dasharray:0 0 0 184.37;}.cls-72{stroke-dasharray:0 0 0 0 0 0 .32 18.3;}.cls-73{stroke-dasharray:0 0 0 0 0 0 27.6 .7;}.cls-74{stroke-dasharray:0 0 0 0 0 0 0 28.8;}.cls-75{stroke-dasharray:0 0 17.87 .73;}.cls-76{stroke-dasharray:0 0 99.64 84.72;}.cls-77{stroke-dasharray:0 0 142.99 41.38;}</style><clipPath id="clippath"><path class="cls-10" d="M2641.48,9.2h-33.96c-4.68,0-8.44,3.76-8.44,8.44v40.26c0,.71.91,1.12,1.42.61l8.74-8.74h32.23c4.68,0,8.44-3.76,8.44-8.44v-23.69c0-4.68-3.76-8.44-8.44-8.44h.01Z"/></clipPath><clipPath id="clippath-1"><path class="cls-10" d="M2711.48,9.2h-33.96c-4.68,0-8.44,3.76-8.44,8.44v40.26c0,.71.91,1.12,1.42.61l8.74-8.74h32.23c4.68,0,8.44-3.76,8.44-8.44v-23.69c0-4.68-3.76-8.44-8.44-8.44h.01Z"/></clipPath><clipPath id="clippath-2"><path class="cls-10" d="M2781.48,9.2h-33.96c-4.68,0-8.44,3.76-8.44,8.44v40.26c0,.71.91,1.12,1.42.61l8.74-8.74h32.23c4.68,0,8.44-3.76,8.44-8.44v-23.69c0-4.68-3.76-8.44-8.44-8.44h.01Z"/></clipPath><clipPath id="clippath-3"><path class="cls-10" d="M2851.48,9.2h-33.96c-4.68,0-8.44,3.76-8.44,8.44v40.26c0,.71.91,1.12,1.42.61l8.74-8.74h32.23c4.68,0,8.44-3.76,8.44-8.44v-23.69c0-4.68-3.76-8.44-8.44-8.44h.01Z"/></clipPath><clipPath id="clippath-4"><path class="cls-10" d="M2921.48,9.2h-33.96c-4.68,0-8.44,3.76-8.44,8.44v40.26c0,.71.91,1.12,1.42.61l8.74-8.74h32.23c4.68,0,8.44-3.76,8.44-8.44v-23.69c0-4.68-3.76-8.44-8.44-8.44h.01Z"/></clipPath><clipPath id="clippath-5"><path class="cls-10" d="M2991.48,9.2h-33.96c-4.68,0-8.44,3.76-8.44,8.44v40.26c0,.71.91,1.12,1.42.61l8.74-8.74h32.23c4.68,0,8.44-3.76,8.44-8.44v-23.69c0-4.68-3.76-8.44-8.44-8.44h.01Z"/></clipPath><clipPath id="clippath-6"><path class="cls-10" d="M3061.48,9.2h-33.96c-4.68,0-8.44,3.76-8.44,8.44v40.26c0,.71.91,1.12,1.42.61l8.74-8.74h32.23c4.68,0,8.44-3.76,8.44-8.44v-23.69c0-4.68-3.76-8.44-8.44-8.44h.01Z"/></clipPath><clipPath id="clippath-7"><path class="cls-10" d="M3131.48,9.2h-33.96c-4.68,0-8.44,3.76-8.44,8.44v40.26c0,.71.91,1.12,1.42.61l8.74-8.74h32.23c4.68,0,8.44-3.76,8.44-8.44v-23.69c0-4.68-3.76-8.44-8.44-8.44h.01Z"/></clipPath><clipPath id="clippath-8"><path class="cls-10" d="M3201.48,9.2h-33.96c-4.68,0-8.44,3.76-8.44,8.44v40.26c0,.71.91,1.12,1.42.61l8.74-8.74h32.23c4.68,0,8.44-3.76,8.44-8.44v-23.69c0-4.68-3.76-8.44-8.44-8.44h.01Z"/></clipPath><clipPath id="clippath-9"><path class="cls-10" d="M3271.48,9.2h-33.96c-4.68,0-8.44,3.76-8.44,8.44v40.26c0,.71.91,1.12,1.42.61l8.74-8.74h32.23c4.68,0,8.44-3.76,8.44-8.44v-23.69c0-4.68-3.76-8.44-8.44-8.44h.01Z"/></clipPath><clipPath id="clippath-10"><path class="cls-10" d="M3341.48,9.2h-33.96c-4.68,0-8.44,3.76-8.44,8.44v40.26c0,.71.91,1.12,1.42.61l8.74-8.74h32.23c4.68,0,8.44-3.76,8.44-8.44v-23.69c0-4.68-3.76-8.44-8.44-8.44h.01Z"/></clipPath><clipPath id="clippath-11"><path class="cls-10" d="M3411.48,9.2h-33.96c-4.68,0-8.44,3.76-8.44,8.44v40.26c0,.71.91,1.12,1.42.61l8.74-8.74h32.23c4.68,0,8.44-3.76,8.44-8.44v-23.69c0-4.68-3.76-8.44-8.44-8.44h.01Z"/></clipPath><clipPath id="clippath-12"><path class="cls-10" d="M3481.48,9.2h-33.96c-4.68,0-8.44,3.76-8.44,8.44v40.26c0,.71.91,1.12,1.42.61l8.74-8.74h32.23c4.68,0,8.44-3.76,8.44-8.44v-23.69c0-4.68-3.76-8.44-8.44-8.44h.01Z"/></clipPath><clipPath id="clippath-13"><path class="cls-10" d="M3551.48,9.2h-33.96c-4.68,0-8.44,3.76-8.44,8.44v40.26c0,.71.91,1.12,1.42.61l8.74-8.74h32.23c4.68,0,8.44-3.76,8.44-8.44v-23.69c0-4.68-3.76-8.44-8.44-8.44h.01Z"/></clipPath><clipPath id="clippath-14"><path class="cls-10" d="M3621.48,9.2h-33.96c-4.68,0-8.44,3.76-8.44,8.44v40.26c0,.71.91,1.12,1.42.61l8.74-8.74h32.23c4.68,0,8.44-3.76,8.44-8.44v-23.69c0-4.68-3.76-8.44-8.44-8.44h.01Z"/></clipPath><clipPath id="clippath-15"><path class="cls-10" d="M3691.48,9.2h-33.96c-4.68,0-8.44,3.76-8.44,8.44v40.26c0,.71.91,1.12,1.42.61l8.74-8.74h32.23c4.68,0,8.44-3.76,8.44-8.44v-23.69c0-4.68-3.76-8.44-8.44-8.44h.01Z"/></clipPath><clipPath id="clippath-16"><path class="cls-10" d="M3761.48,9.2h-33.96c-4.68,0-8.44,3.76-8.44,8.44v40.26c0,.71.91,1.12,1.42.61l8.74-8.74h32.23c4.68,0,8.44-3.76,8.44-8.44v-23.69c0-4.68-3.76-8.44-8.44-8.44h.01Z"/></clipPath><clipPath id="clippath-17"><path class="cls-10" d="M3831.48,9.2h-33.96c-4.68,0-8.44,3.76-8.44,8.44v40.26c0,.71.91,1.12,1.42.61l8.74-8.74h32.23c4.68,0,8.44-3.76,8.44-8.44v-23.69c0-4.68-3.76-8.44-8.44-8.44h.01Z"/></clipPath><clipPath id="clippath-18"><path class="cls-10" d="M3901.48,9.2h-33.96c-4.68,0-8.44,3.76-8.44,8.44v40.26c0,.71.91,1.12,1.42.61l8.74-8.74h32.23c4.68,0,8.44-3.76,8.44-8.44v-23.69c0-4.68-3.76-8.44-8.44-8.44h.01Z"/></clipPath><clipPath id="clippath-19"><path class="cls-10" d="M3971.48,9.2h-33.96c-4.68,0-8.44,3.76-8.44,8.44v40.26c0,.71.91,1.12,1.42.61l8.74-8.74h32.23c4.68,0,8.44-3.76,8.44-8.44v-23.69c0-4.68-3.76-8.44-8.44-8.44h.01Z"/></clipPath><clipPath id="clippath-20"><path class="cls-10" d="M4041.48,9.2h-33.96c-4.68,0-8.44,3.76-8.44,8.44v40.26c0,.71.91,1.12,1.42.61l8.74-8.74h32.23c4.68,0,8.44-3.76,8.44-8.44v-23.69c0-4.68-3.76-8.44-8.44-8.44h.01Z"/></clipPath><clipPath id="clippath-21"><path class="cls-10" d="M4111.48,9.2h-33.96c-4.68,0-8.44,3.76-8.44,8.44v40.26c0,.71.91,1.12,1.42.61l8.74-8.74h32.23c4.68,0,8.44-3.76,8.44-8.44v-23.69c0-4.68-3.76-8.44-8.44-8.44h.01Z"/></clipPath><clipPath id="clippath-22"><path class="cls-10" d="M4181.48,9.2h-33.96c-4.68,0-8.44,3.76-8.44,8.44v40.26c0,.71.91,1.12,1.42.61l8.74-8.74h32.23c4.68,0,8.44-3.76,8.44-8.44v-23.69c0-4.68-3.76-8.44-8.44-8.44h.01Z"/></clipPath><clipPath id="clippath-23"><path class="cls-10" d="M4251.48,9.2h-33.96c-4.68,0-8.44,3.76-8.44,8.44v40.26c0,.71.91,1.12,1.42.61l8.74-8.74h32.23c4.68,0,8.44-3.76,8.44-8.44v-23.69c0-4.68-3.76-8.44-8.44-8.44h.01Z"/></clipPath><clipPath id="clippath-24"><path class="cls-10" d="M4321.48,9.2h-33.96c-4.68,0-8.44,3.76-8.44,8.44v40.26c0,.71.91,1.12,1.42.61l8.74-8.74h32.23c4.68,0,8.44-3.76,8.44-8.44v-23.69c0-4.68-3.76-8.44-8.44-8.44h.01Z"/></clipPath><clipPath id="clippath-25"><path class="cls-10" d="M4391.48,9.2h-33.96c-4.68,0-8.44,3.76-8.44,8.44v40.26c0,.71.91,1.12,1.42.61l8.74-8.74h32.23c4.68,0,8.44-3.76,8.44-8.44v-23.69c0-4.68-3.76-8.44-8.44-8.44h.01Z"/></clipPath><clipPath id="clippath-26"><path class="cls-10" d="M4461.48,9.2h-33.96c-4.68,0-8.44,3.76-8.44,8.44v40.26c0,.71.91,1.12,1.42.61l8.74-8.74h32.23c4.68,0,8.44-3.76,8.44-8.44v-23.69c0-4.68-3.76-8.44-8.44-8.44h.01Z"/></clipPath><clipPath id="clippath-27"><path class="cls-10" d="M4531.48,9.2h-33.96c-4.68,0-8.44,3.76-8.44,8.44v40.26c0,.71.91,1.12,1.42.61l8.74-8.74h32.23c4.68,0,8.44-3.76,8.44-8.44v-23.69c0-4.68-3.76-8.44-8.44-8.44h.01Z"/></clipPath><clipPath id="clippath-28"><path class="cls-10" d="M4601.48,9.2h-33.96c-4.68,0-8.44,3.76-8.44,8.44v40.26c0,.71.91,1.12,1.42.61l8.74-8.74h32.23c4.68,0,8.44-3.76,8.44-8.44v-23.69c0-4.68-3.76-8.44-8.44-8.44h.01Z"/></clipPath><clipPath id="clippath-29"><path class="cls-10" d="M4671.48,9.2h-33.96c-4.68,0-8.44,3.76-8.44,8.44v40.26c0,.71.91,1.12,1.42.61l8.74-8.74h32.23c4.68,0,8.44-3.76,8.44-8.44v-23.69c0-4.68-3.76-8.44-8.44-8.44h.01Z"/></clipPath><clipPath id="clippath-30"><path class="cls-10" d="M51.48,9.2H17.52c-4.68,0-8.44,3.76-8.44,8.44v40.26c0,.71.91,1.12,1.42.61l8.74-8.74h32.23c4.68,0,8.44-3.76,8.44-8.44v-23.69c0-4.68-3.76-8.44-8.44-8.44Z"/></clipPath><clipPath id="clippath-31"><path class="cls-10" d="M121.48,9.2h-33.96c-4.68,0-8.44,3.76-8.44,8.44v40.26c0,.71.91,1.12,1.42.61l8.74-8.74h32.23c4.68,0,8.44-3.76,8.44-8.44v-23.69c0-4.68-3.76-8.44-8.44-8.44Z"/></clipPath><clipPath id="clippath-32"><path class="cls-10" d="M191.48,9.2h-33.96c-4.68,0-8.44,3.76-8.44,8.44v40.26c0,.71.91,1.12,1.42.61l8.74-8.74h32.23c4.68,0,8.44-3.76,8.44-8.44v-23.69c0-4.68-3.76-8.44-8.44-8.44Z"/></clipPath><clipPath id="clippath-33"><path class="cls-10" d="M261.48,9.2h-33.96c-4.68,0-8.44,3.76-8.44,8.44v40.26c0,.71.91,1.12,1.42.61l8.74-8.74h32.23c4.68,0,8.44-3.76,8.44-8.44v-23.69c0-4.68-3.76-8.44-8.44-8.44Z"/></clipPath><clipPath id="clippath-34"><path class="cls-10" d="M331.48,9.2h-33.96c-4.68,0-8.44,3.76-8.44,8.44v40.26c0,.71.91,1.12,1.42.61l8.74-8.74h32.23c4.68,0,8.44-3.76,8.44-8.44v-23.69c0-4.68-3.76-8.44-8.44-8.44Z"/></clipPath><clipPath id="clippath-35"><path class="cls-10" d="M401.48,9.2h-33.96c-4.68,0-8.44,3.76-8.44,8.44v40.26c0,.71.91,1.12,1.42.61l8.74-8.74h32.23c4.68,0,8.44-3.76,8.44-8.44v-23.69c0-4.68-3.76-8.44-8.44-8.44Z"/></clipPath><clipPath id="clippath-36"><path class="cls-10" d="M471.48,9.2h-33.96c-4.68,0-8.44,3.76-8.44,8.44v40.26c0,.71.91,1.12,1.42.61l8.74-8.74h32.23c4.68,0,8.44-3.76,8.44-8.44v-23.69c0-4.68-3.76-8.44-8.44-8.44Z"/></clipPath><clipPath id="clippath-37"><path class="cls-10" d="M541.48,9.2h-33.96c-4.68,0-8.44,3.76-8.44,8.44v40.26c0,.71.91,1.12,1.42.61l8.74-8.74h32.23c4.68,0,8.44-3.76,8.44-8.44v-23.69c0-4.68-3.76-8.44-8.44-8.44Z"/></clipPath><clipPath id="clippath-38"><path class="cls-10" d="M611.48,9.2h-33.96c-4.68,0-8.44,3.76-8.44,8.44v40.26c0,.71.91,1.12,1.42.61l8.74-8.74h32.23c4.68,0,8.44-3.76,8.44-8.44v-23.69c0-4.68-3.76-8.44-8.44-8.44Z"/></clipPath><clipPath id="clippath-39"><path class="cls-10" d="M681.48,9.2h-33.96c-4.68,0-8.44,3.76-8.44,8.44v40.26c0,.71.91,1.12,1.42.61l8.74-8.74h32.23c4.68,0,8.44-3.76,8.44-8.44v-23.69c0-4.68-3.76-8.44-8.44-8.44Z"/></clipPath><clipPath id="clippath-40"><path class="cls-10" d="M751.48,9.2h-33.96c-4.68,0-8.44,3.76-8.44,8.44v40.26c0,.71.91,1.12,1.42.61l8.74-8.74h32.23c4.68,0,8.44-3.76,8.44-8.44v-23.69c0-4.68-3.76-8.44-8.44-8.44Z"/></clipPath><clipPath id="clippath-41"><path class="cls-10" d="M821.48,9.2h-33.96c-4.68,0-8.44,3.76-8.44,8.44v40.26c0,.71.91,1.12,1.42.61l8.74-8.74h32.23c4.68,0,8.44-3.76,8.44-8.44v-23.69c0-4.68-3.76-8.44-8.44-8.44Z"/></clipPath><clipPath id="clippath-42"><path class="cls-10" d="M891.48,9.2h-33.96c-4.68,0-8.44,3.76-8.44,8.44v40.26c0,.71.91,1.12,1.42.61l8.74-8.74h32.23c4.68,0,8.44-3.76,8.44-8.44v-23.69c0-4.68-3.76-8.44-8.44-8.44Z"/></clipPath><clipPath id="clippath-43"><path class="cls-10" d="M961.48,9.2h-33.96c-4.68,0-8.44,3.76-8.44,8.44v40.26c0,.71.91,1.12,1.42.61l8.74-8.74h32.23c4.68,0,8.44-3.76,8.44-8.44v-23.69c0-4.68-3.76-8.44-8.44-8.44Z"/></clipPath><clipPath id="clippath-44"><path class="cls-10" d="M1031.48,9.2h-33.96c-4.68,0-8.44,3.76-8.44,8.44v40.26c0,.71.91,1.12,1.42.61l8.74-8.74h32.23c4.68,0,8.44-3.76,8.44-8.44v-23.69c0-4.68-3.76-8.44-8.44-8.44Z"/></clipPath><clipPath id="clippath-45"><path class="cls-10" d="M1101.48,9.2h-33.96c-4.68,0-8.44,3.76-8.44,8.44v40.26c0,.71.91,1.12,1.42.61l8.74-8.74h32.23c4.68,0,8.44-3.76,8.44-8.44v-23.69c0-4.68-3.76-8.44-8.44-8.44Z"/></clipPath><clipPath id="clippath-46"><path class="cls-10" d="M1171.48,9.2h-33.96c-4.68,0-8.44,3.76-8.44,8.44v40.26c0,.71.91,1.12,1.42.61l8.74-8.74h32.23c4.68,0,8.44-3.76,8.44-8.44v-23.69c0-4.68-3.76-8.44-8.44-8.44Z"/></clipPath><clipPath id="clippath-47"><path class="cls-10" d="M1241.48,9.2h-33.96c-4.68,0-8.44,3.76-8.44,8.44v40.26c0,.71.91,1.12,1.42.61l8.74-8.74h32.23c4.68,0,8.44-3.76,8.44-8.44v-23.69c0-4.68-3.76-8.44-8.44-8.44Z"/></clipPath><clipPath id="clippath-48"><path class="cls-10" d="M1311.48,9.2h-33.96c-4.68,0-8.44,3.76-8.44,8.44v40.26c0,.71.91,1.12,1.42.61l8.74-8.74h32.23c4.68,0,8.44-3.76,8.44-8.44v-23.69c0-4.68-3.76-8.44-8.44-8.44Z"/></clipPath><clipPath id="clippath-49"><path class="cls-10" d="M1381.48,9.2h-33.96c-4.68,0-8.44,3.76-8.44,8.44v40.26c0,.71.91,1.12,1.42.61l8.74-8.74h32.23c4.68,0,8.44-3.76,8.44-8.44v-23.69c0-4.68-3.76-8.44-8.44-8.44Z"/></clipPath><clipPath id="clippath-50"><path class="cls-10" d="M1451.48,9.2h-33.96c-4.68,0-8.44,3.76-8.44,8.44v40.26c0,.71.91,1.12,1.42.61l8.74-8.74h32.23c4.68,0,8.44-3.76,8.44-8.44v-23.69c0-4.68-3.76-8.44-8.44-8.44Z"/></clipPath><clipPath id="clippath-51"><path class="cls-10" d="M1521.48,9.2h-33.96c-4.68,0-8.44,3.76-8.44,8.44v40.26c0,.71.91,1.12,1.42.61l8.74-8.74h32.23c4.68,0,8.44-3.76,8.44-8.44v-23.69c0-4.68-3.76-8.44-8.44-8.44Z"/></clipPath><clipPath id="clippath-52"><path class="cls-10" d="M1591.48,9.2h-33.96c-4.68,0-8.44,3.76-8.44,8.44v40.26c0,.71.91,1.12,1.42.61l8.74-8.74h32.23c4.68,0,8.44-3.76,8.44-8.44v-23.69c0-4.68-3.76-8.44-8.44-8.44Z"/></clipPath><clipPath id="clippath-53"><path class="cls-10" d="M1661.48,9.2h-33.96c-4.68,0-8.44,3.76-8.44,8.44v40.26c0,.71.91,1.12,1.42.61l8.74-8.74h32.23c4.68,0,8.44-3.76,8.44-8.44v-23.69c0-4.68-3.76-8.44-8.44-8.44Z"/></clipPath><clipPath id="clippath-54"><path class="cls-10" d="M1731.48,9.2h-33.96c-4.68,0-8.44,3.76-8.44,8.44v40.26c0,.71.91,1.12,1.42.61l8.74-8.74h32.23c4.68,0,8.44-3.76,8.44-8.44v-23.69c0-4.68-3.76-8.44-8.44-8.44Z"/></clipPath><clipPath id="clippath-55"><path class="cls-10" d="M1801.48,9.2h-33.96c-4.68,0-8.44,3.76-8.44,8.44v40.26c0,.71.91,1.12,1.42.61l8.74-8.74h32.23c4.68,0,8.44-3.76,8.44-8.44v-23.69c0-4.68-3.76-8.44-8.44-8.44Z"/></clipPath><clipPath id="clippath-56"><path class="cls-10" d="M1871.48,9.2h-33.96c-4.68,0-8.44,3.76-8.44,8.44v40.26c0,.71.91,1.12,1.42.61l8.74-8.74h32.23c4.68,0,8.44-3.76,8.44-8.44v-23.69c0-4.68-3.76-8.44-8.44-8.44Z"/></clipPath><clipPath id="clippath-57"><path class="cls-10" d="M1941.48,9.2h-33.96c-4.68,0-8.44,3.76-8.44,8.44v40.26c0,.71.91,1.12,1.42.61l8.74-8.74h32.23c4.68,0,8.44-3.76,8.44-8.44v-23.69c0-4.68-3.76-8.44-8.44-8.44Z"/></clipPath><clipPath id="clippath-58"><path class="cls-10" d="M2011.48,9.2h-33.96c-4.68,0-8.44,3.76-8.44,8.44v40.26c0,.71.91,1.12,1.42.61l8.74-8.74h32.23c4.68,0,8.44-3.76,8.44-8.44v-23.69c0-4.68-3.76-8.44-8.44-8.44Z"/></clipPath><clipPath id="clippath-59"><path class="cls-10" d="M2081.48,9.2h-33.96c-4.68,0-8.44,3.76-8.44,8.44v40.26c0,.71.91,1.12,1.42.61l8.74-8.74h32.23c4.68,0,8.44-3.76,8.44-8.44v-23.69c0-4.68-3.76-8.44-8.44-8.44Z"/></clipPath><clipPath id="clippath-60"><path class="cls-10" d="M2151.48,9.2h-33.96c-4.68,0-8.44,3.76-8.44,8.44v40.26c0,.71.91,1.12,1.42.61l8.74-8.74h32.23c4.68,0,8.44-3.76,8.44-8.44v-23.69c0-4.68-3.76-8.44-8.44-8.44Z"/></clipPath><clipPath id="clippath-61"><path class="cls-10" d="M4461.48,9.2h-33.96c-4.68,0-8.44,3.76-8.44,8.44v40.26c0,.71.91,1.12,1.42.61l8.74-8.74h32.23c4.68,0,8.44-3.76,8.44-8.44v-23.69c0-4.68-3.76-8.44-8.44-8.44Z"/></clipPath><clipPath id="clippath-62"><path class="cls-10" d="M2221.48,9.2h-33.96c-4.68,0-8.44,3.76-8.44,8.44v40.26c0,.71.91,1.12,1.42.61l8.74-8.74h32.23c4.68,0,8.44-3.76,8.44-8.44v-23.69c0-4.68-3.76-8.44-8.44-8.44h0Z"/></clipPath><clipPath id="clippath-63"><path class="cls-10" d="M2291.48,9.2h-33.96c-4.68,0-8.44,3.76-8.44,8.44v40.26c0,.71.91,1.12,1.42.61l8.74-8.74h32.23c4.68,0,8.44-3.76,8.44-8.44v-23.69c0-4.68-3.76-8.44-8.44-8.44h0Z"/></clipPath><clipPath id="clippath-64"><path class="cls-10" d="M2361.48,9.2h-33.96c-4.68,0-8.44,3.76-8.44,8.44v40.26c0,.71.91,1.12,1.42.61l8.74-8.74h32.23c4.68,0,8.44-3.76,8.44-8.44v-23.69c0-4.68-3.76-8.44-8.44-8.44h0Z"/></clipPath><clipPath id="clippath-65"><path class="cls-10" d="M2431.48,9.2h-33.96c-4.68,0-8.44,3.76-8.44,8.44v40.26c0,.71.91,1.12,1.42.61l8.74-8.74h32.23c4.68,0,8.44-3.76,8.44-8.44v-23.69c0-4.68-3.76-8.44-8.44-8.44h.01Z"/></clipPath><clipPath id="clippath-66"><path class="cls-10" d="M2501.48,9.2h-33.96c-4.68,0-8.44,3.76-8.44,8.44v40.26c0,.71.91,1.12,1.42.61l8.74-8.74h32.23c4.68,0,8.44-3.76,8.44-8.44v-23.69c0-4.68-3.76-8.44-8.44-8.44h.01Z"/></clipPath><clipPath id="clippath-67"><path class="cls-10" d="M2571.48,9.2h-33.96c-4.68,0-8.44,3.76-8.44,8.44v40.26c0,.71.91,1.12,1.42.61l8.74-8.74h32.23c4.68,0,8.44-3.76,8.44-8.44v-23.69c0-4.68-3.76-8.44-8.44-8.44h.01Z"/></clipPath></defs><path class="cls-41" d="M2641.45,9.19h-33.89c-4.68,0-8.47,3.79-8.47,8.47v40.31c0,.75.91,1.13,1.44.6l8.72-8.72h32.2c4.68,0,8.47-3.79,8.47-8.47v-23.72c0-4.68-3.79-8.47-8.47-8.47h0Z"/><g class="cls-78"><path class="cls-79" d="M2599.01,20.94s8.5-11.27,25-3.91c16.5,7.34,25-2.48,25-2.48v43.89h-50V20.94Z"/></g><path class="cls-41" d="M2711.45,9.19h-33.89c-4.68,0-8.47,3.79-8.47,8.47v40.31c0,.75.91,1.13,1.44.6l8.72-8.72h32.2c4.68,0,8.47-3.79,8.47-8.47v-23.72c0-4.68-3.79-8.47-8.47-8.47h0Z"/><g class="cls-80"><path class="cls-79" d="M2669.01,18.66s8.5-11.95,25-4.15c16.5,7.78,25-2.63,25-2.63v46.56h-50V18.66Z"/></g><path class="cls-41" d="M2781.45,9.19h-33.89c-4.68,0-8.47,3.79-8.47,8.47v40.31c0,.75.91,1.13,1.44.6l8.72-8.72h32.2c4.68,0,8.47-3.79,8.47-8.47v-23.72c0-4.68-3.79-8.47-8.47-8.47h0Z"/><g class="cls-83"><path class="cls-79" d="M2739.01,16.75s8.5-12.52,25-4.35c16.5,8.15,25-2.76,25-2.76v48.8h-50V16.75Z"/></g><path class="cls-41" d="M2851.45,9.19h-33.89c-4.68,0-8.47,3.79-8.47,8.47v40.31c0,.75.91,1.13,1.44.6l8.72-8.72h32.2c4.68,0,8.47-3.79,8.47-8.47v-23.72c0-4.68-3.79-8.47-8.47-8.47h0Z"/><g class="cls-82"><path class="cls-79" d="M2809.01,15.14s8.5-13,25-4.53,25-2.87,25-2.87v50.68h-50V15.15h0Z"/></g><path class="cls-41" d="M2921.45,9.19h-33.89c-4.68,0-8.47,3.79-8.47,8.47v40.31c0,.75.91,1.13,1.44.6l8.72-8.72h32.2c4.68,0,8.47-3.79,8.47-8.47v-23.72c0-4.68-3.79-8.47-8.47-8.47h0Z"/><g class="cls-81"><path class="cls-79" d="M2879.01,13.79s8.5-13.41,25-4.67c16.5,8.73,25-2.96,25-2.96v52.26h-50V13.8h0Z"/></g><path class="cls-41" d="M2991.45,9.19h-33.89c-4.68,0-8.47,3.79-8.47,8.47v40.31c0,.75.91,1.13,1.44.6l8.72-8.72h32.2c4.68,0,8.47-3.79,8.47-8.47v-23.72c0-4.68-3.79-8.47-8.47-8.47h0Z"/><g class="cls-87"><path class="cls-79" d="M2949.01,12.67s8.5-13.74,25-4.79c16.5,8.95,25-3.04,25-3.04v53.58h-50V12.67h0Z"/></g><path class="cls-6" d="M2960.31,21.11h28.3"/><path class="cls-41" d="M3061.45,9.19h-33.89c-4.68,0-8.47,3.79-8.47,8.47v40.31c0,.75.91,1.13,1.44.6l8.72-8.72h32.2c4.68,0,8.47-3.79,8.47-8.47v-23.72c0-4.68-3.79-8.47-8.47-8.47h0Z"/><g class="cls-86"><path class="cls-79" d="M3019.01,11.73s8.5-14.02,25-4.89c16.5,9.13,25-3.1,25-3.1v54.67h-50V11.73h0Z"/></g><path class="cls-23" d="M3030.31,21.11h28.3"/><path class="cls-41" d="M3131.45,9.19h-33.89c-4.68,0-8.47,3.79-8.47,8.47v40.31c0,.75.91,1.13,1.44.6l8.72-8.72h32.2c4.68,0,8.47-3.79,8.47-8.47v-23.72c0-4.68-3.79-8.47-8.47-8.47h0Z"/><g class="cls-84"><path class="cls-79" d="M3089.01,10.95s8.5-14.26,25-4.97c16.5,9.28,25-3.15,25-3.15v55.58h-50V10.96h0Z"/></g><path class="cls-4" d="M3100.31,21.11h28.3"/><path class="cls-41" d="M3201.45,9.19h-33.89c-4.68,0-8.47,3.79-8.47,8.47v40.31c0,.75.91,1.13,1.44.6l8.72-8.72h32.2c4.68,0,8.47-3.79,8.47-8.47v-23.72c0-4.68-3.79-8.47-8.47-8.47h0Z"/><g class="cls-85"><path class="cls-79" d="M3159.01,10.32s8.5-14.44,25-5.04,25-3.2,25-3.2v56.32h-50V10.33h0Z"/></g><path class="cls-25" d="M3170.31,21.11h28.3"/><path class="cls-41" d="M3271.45,9.19h-33.89c-4.68,0-8.47,3.79-8.47,8.47v40.31c0,.75.91,1.13,1.44.6l8.72-8.72h32.2c4.68,0,8.47-3.79,8.47-8.47v-23.72c0-4.68-3.79-8.47-8.47-8.47h0Z"/><g class="cls-88"><path class="cls-79" d="M3229.01,9.82s8.5-14.6,25-5.09c16.5,9.5,25-3.23,25-3.23v56.91h-50V9.82h0Z"/></g><path class="cls-43" d="M3240.31,21.11h28.3"/><path class="cls-41" d="M3341.45,9.19h-33.89c-4.68,0-8.47,3.79-8.47,8.47v40.31c0,.75.91,1.13,1.44.6l8.72-8.72h32.2c4.68,0,8.47-3.79,8.47-8.47v-23.72c0-4.68-3.79-8.47-8.47-8.47h0Z"/><g class="cls-140"><path class="cls-79" d="M3299.01,9.43s8.5-14.71,25-5.13,25-3.26,25-3.26v57.36h-50V9.43h0Z"/></g><path class="cls-65" d="M3310.31,21.11h28.3"/><path class="cls-41" d="M3411.45,9.19h-33.89c-4.68,0-8.47,3.79-8.47,8.47v40.31c0,.75.91,1.13,1.44.6l8.72-8.72h32.2c4.68,0,8.47-3.79,8.47-8.47v-23.72c0-4.68-3.79-8.47-8.47-8.47h0Z"/><g class="cls-145"><path class="cls-79" d="M3369.01,9.14s8.5-14.8,25-5.16c16.5,9.63,25-3.28,25-3.28v57.7h-50V9.14h0Z"/></g><path class="cls-44" d="M3380.31,21.11h28.3"/><path class="cls-74" d="M3380.07,28.52h28.77"/><path class="cls-41" d="M3481.45,9.19h-33.89c-4.68,0-8.47,3.79-8.47,8.47v40.31c0,.75.91,1.13,1.44.6l8.72-8.72h32.2c4.68,0,8.47-3.79,8.47-8.47v-23.72c0-4.68-3.79-8.47-8.47-8.47h0Z"/><g class="cls-139"><path class="cls-79" d="M3439.01,8.95s8.5-14.86,25-5.18c16.5,9.67,25-3.29,25-3.29v57.93h-50V8.95Z"/></g><path class="cls-8" d="M3450.31,21.11h28.3"/><path class="cls-48" d="M3450.07,28.52h28.77"/><path class="cls-41" d="M3551.45,9.19h-33.89c-4.68,0-8.47,3.79-8.47,8.47v40.31c0,.75.91,1.13,1.44.6l8.72-8.72h32.2c4.68,0,8.47-3.79,8.47-8.47v-23.72c0-4.68-3.79-8.47-8.47-8.47h0Z"/><g class="cls-138"><path class="cls-79" d="M3509.01,8.84s8.5-14.89,25-5.2c16.5,9.69,25-3.3,25-3.3v58.06h-50V8.84Z"/></g><path class="cls-70" d="M3520.31,21.11h28.3"/><path class="cls-40" d="M3520.07,28.52h28.77"/><path class="cls-41" d="M3621.45,9.19h-33.89c-4.68,0-8.47,3.79-8.47,8.47v40.31c0,.75.91,1.13,1.44.6l8.72-8.72h32.2c4.68,0,8.47-3.79,8.47-8.47v-23.72c0-4.68-3.79-8.47-8.47-8.47h0Z"/><g class="cls-137"><path class="cls-79" d="M3579.01,8.8s8.5-14.9,25-5.2,25-3.3,25-3.3v58.1h-50V8.8Z"/></g><path class="cls-27" d="M3590.31,21.11h28.3"/><path class="cls-32" d="M3590.07,28.52h28.77"/><path class="cls-41" d="M3691.45,9.19h-33.89c-4.68,0-8.47,3.79-8.47,8.47v40.31c0,.75.91,1.13,1.44.6l8.72-8.72h32.2c4.68,0,8.47-3.79,8.47-8.47v-23.72c0-4.68-3.79-8.47-8.47-8.47h0Z"/><g class="cls-141"><path class="cls-79" d="M3649.01,8.8s8.5-14.9,25-5.2,25-3.3,25-3.3v58.1h-50V8.8Z"/></g><path class="cls-33" d="M3660.31,21.11h28.3"/><path class="cls-14" d="M3660.07,28.52h28.77"/><path class="cls-41" d="M3761.45,9.19h-33.89c-4.68,0-8.47,3.79-8.47,8.47v40.31c0,.75.91,1.13,1.44.6l8.72-8.72h32.2c4.68,0,8.47-3.79,8.47-8.47v-23.72c0-4.68-3.79-8.47-8.47-8.47h0Z"/><g class="cls-143"><path class="cls-79" d="M3719.01,8.8s8.5-14.9,25-5.2,25-3.3,25-3.3v58.1h-50V8.8Z"/></g><path class="cls-67" d="M3730.31,21.11h28.3"/><path class="cls-7" d="M3730.07,28.52h28.77"/><path class="cls-41" d="M3831.45,9.19h-33.89c-4.68,0-8.47,3.79-8.47,8.47v40.31c0,.75.91,1.13,1.44.6l8.72-8.72h32.2c4.68,0,8.47-3.79,8.47-8.47v-23.72c0-4.68-3.79-8.47-8.47-8.47h0Z"/><g class="cls-142"><path class="cls-79" d="M3789.01,8.8s8.5-14.9,25-5.2,25-3.3,25-3.3v58.1h-50V8.8Z"/></g><path class="cls-73" d="M3800.31,21.11h28.3"/><path class="cls-52" d="M3800.07,28.52h28.77"/><path class="cls-36" d="M3800.07,36.13h18.6"/><path class="cls-41" d="M3901.45,9.19h-33.89c-4.68,0-8.47,3.79-8.47,8.47v40.31c0,.75.91,1.13,1.44.6l8.72-8.72h32.2c4.68,0,8.47-3.79,8.47-8.47v-23.72c0-4.68-3.79-8.47-8.47-8.47h0Z"/><g class="cls-146"><path class="cls-79" d="M3859.01,8.8s8.5-14.9,25-5.2,25-3.3,25-3.3v58.1h-50V8.8Z"/></g><path class="cls-38" d="M3870.31,21.11h28.3"/><path class="cls-58" d="M3870.07,28.52h28.77"/><path class="cls-72" d="M3870.07,36.13h18.6"/><path class="cls-41" d="M3971.45,9.19h-33.89c-4.68,0-8.47,3.79-8.47,8.47v40.31c0,.75.91,1.13,1.44.6l8.72-8.72h32.2c4.68,0,8.47-3.79,8.47-8.47v-23.72c0-4.68-3.79-8.47-8.47-8.47h0Z"/><g class="cls-144"><path class="cls-79" d="M3929.01,8.8s8.5-14.9,25-5.2,25-3.3,25-3.3v58.1h-50V8.8Z"/></g><path class="cls-42" d="M3940.31,21.11h28.3"/><path class="cls-62" d="M3940.07,28.52h28.77"/><path class="cls-60" d="M3940.07,36.13h18.6"/><path class="cls-41" d="M4041.45,9.19h-33.89c-4.68,0-8.47,3.79-8.47,8.47v40.31c0,.75.91,1.13,1.44.6l8.72-8.72h32.2c4.68,0,8.47-3.79,8.47-8.47v-23.72c0-4.68-3.79-8.47-8.47-8.47h0Z"/><g class="cls-90"><path class="cls-79" d="M3999.01,8.8s8.5-14.9,25-5.2,25-3.3,25-3.3v58.1h-50V8.8Z"/></g><path class="cls-1" d="M4010.31,21.11h28.3"/><path class="cls-56" d="M4010.07,28.52h28.77"/><path class="cls-26" d="M4010.07,36.13h18.6"/><path class="cls-41" d="M4111.45,9.19h-33.89c-4.68,0-8.47,3.79-8.47,8.47v40.31c0,.75.91,1.13,1.44.6l8.72-8.72h32.2c4.68,0,8.47-3.79,8.47-8.47v-23.72c0-4.68-3.79-8.47-8.47-8.47h0Z"/><g class="cls-91"><path class="cls-79" d="M4069.01,8.8s8.5-14.9,25-5.2,25-3.3,25-3.3v58.1h-50V8.8Z"/></g><path class="cls-1" d="M4080.31,21.11h28.3"/><path class="cls-59" d="M4080.07,28.52h28.77"/><path class="cls-46" d="M4080.07,36.13h18.6"/><path class="cls-41" d="M4181.45,9.19h-33.89c-4.68,0-8.47,3.79-8.47,8.47v40.31c0,.75.91,1.13,1.44.6l8.72-8.72h32.2c4.68,0,8.47-3.79,8.47-8.47v-23.72c0-4.68-3.79-8.47-8.47-8.47h0Z"/><g class="cls-94"><path class="cls-79" d="M4139.01,8.8s8.5-14.9,25-5.2,25-3.3,25-3.3v58.1h-50V8.8Z"/></g><path class="cls-1" d="M4150.31,21.11h28.3"/><path class="cls-68" d="M4150.07,28.52h28.77"/><path class="cls-31" d="M4150.07,36.13h18.6"/><path class="cls-41" d="M4251.45,9.19h-33.89c-4.68,0-8.47,3.79-8.47,8.47v40.31c0,.75.91,1.13,1.44.6l8.72-8.72h32.2c4.68,0,8.47-3.79,8.47-8.47v-23.72c0-4.68-3.79-8.47-8.47-8.47h0Z"/><g class="cls-93"><path class="cls-79" d="M4209.01,8.8s8.5-14.9,25-5.2,25-3.3,25-3.3v58.1h-50V8.8Z"/></g><path class="cls-1" d="M4220.31,21.11h28.3"/><path class="cls-11" d="M4220.07,28.52h28.77"/><path class="cls-20" d="M4220.07,36.13h18.6"/><path class="cls-41" d="M4321.45,9.19h-33.89c-4.68,0-8.47,3.79-8.47,8.47v40.31c0,.75.91,1.13,1.44.6l8.72-8.72h32.2c4.68,0,8.47-3.79,8.47-8.47v-23.72c0-4.68-3.79-8.47-8.47-8.47h0Z"/><g class="cls-92"><path class="cls-79" d="M4279.01,8.8s8.5-14.9,25-5.2,25-3.3,25-3.3v58.1h-50V8.8Z"/></g><path class="cls-1" d="M4290.31,21.11h28.3M4290.07,28.52h28.77"/><path class="cls-18" d="M4290.07,36.13h18.6"/><path class="cls-41" d="M4391.45,9.19h-33.89c-4.68,0-8.47,3.79-8.47,8.47v40.31c0,.75.91,1.13,1.44.6l8.72-8.72h32.2c4.68,0,8.47-3.79,8.47-8.47v-23.72c0-4.68-3.79-8.47-8.47-8.47h0Z"/><g class="cls-95"><path class="cls-79" d="M4349.01,8.8s8.5-14.9,25-5.2,25-3.3,25-3.3v58.1h-50V8.8Z"/></g><path class="cls-1" d="M4360.31,21.11h28.3M4360.07,28.52h28.77"/><path class="cls-35" d="M4360.07,36.13h18.6"/><path class="cls-41" d="M4461.45,9.19h-33.89c-4.68,0-8.47,3.79-8.47,8.47v40.31c0,.75.91,1.13,1.44.6l8.72-8.72h32.2c4.68,0,8.47-3.79,8.47-8.47v-23.72c0-4.68-3.79-8.47-8.47-8.47h0Z"/><g class="cls-108"><path class="cls-79" d="M4419.01,8.8s8.5-14.9,25-5.2,25-3.3,25-3.3v58.1h-50V8.8Z"/></g><path class="cls-1" d="M4430.31,21.11h28.3M4430.07,28.52h28.77"/><path class="cls-39" d="M4430.07,36.13h18.6"/><path class="cls-41" d="M4531.45,9.19h-33.89c-4.68,0-8.47,3.79-8.47,8.47v40.31c0,.75.91,1.13,1.44.6l8.72-8.72h32.2c4.68,0,8.47-3.79,8.47-8.47v-23.72c0-4.68-3.79-8.47-8.47-8.47h0Z"/><g class="cls-106"><path class="cls-79" d="M4489.01,8.8s8.5-14.9,25-5.2,25-3.3,25-3.3v58.1h-50V8.8Z"/></g><path class="cls-1" d="M4500.31,21.11h28.3M4500.07,28.52h28.77"/><path class="cls-51" d="M4500.07,36.13h18.6"/><path class="cls-41" d="M4601.45,9.19h-33.89c-4.68,0-8.47,3.79-8.47,8.47v40.31c0,.75.91,1.13,1.44.6l8.72-8.72h32.2c4.68,0,8.47-3.79,8.47-8.47v-23.72c0-4.68-3.79-8.47-8.47-8.47h0Z"/><g class="cls-107"><path class="cls-79" d="M4559.01,8.8s8.5-14.9,25-5.2,25-3.3,25-3.3v58.1h-50V8.8Z"/></g><path class="cls-1" d="M4570.31,21.11h28.3M4570.07,28.52h28.77"/><path class="cls-66" d="M4570.07,36.13h18.6"/><path class="cls-41" d="M4671.45,9.19h-33.89c-4.68,0-8.47,3.79-8.47,8.47v40.31c0,.75.91,1.13,1.44.6l8.72-8.72h32.2c4.68,0,8.47-3.79,8.47-8.47v-23.72c0-4.68-3.79-8.47-8.47-8.47h0Z"/><g class="cls-109"><path class="cls-79" d="M4629.01,8.8s8.5-14.9,25-5.2,25-3.3,25-3.3v58.1h-50V8.8Z"/></g><path class="cls-1" d="M4640.31,21.11h28.3M4640.07,28.52h28.77M4640.07,36.13h18.6"/><path class="cls-71" d="M51.45,9.19H17.56c-4.68,0-8.47,3.79-8.47,8.47v40.31c0,.75.91,1.13,1.44.6l8.72-8.72h32.2c4.68,0,8.47-3.79,8.47-8.47v-23.72c0-4.68-3.79-8.47-8.47-8.47h0Z"/><g class="cls-117"><path class="cls-79" d="M9.08,59.02s8.64-.31,25.42,0c16.78.2,25.42,0,25.42,0v1.02H9.08v-1.02Z"/></g><path class="cls-69" d="M20.3,21.11h28.3"/><path class="cls-50" d="M20.06,28.52h28.77"/><path class="cls-55" d="M20.07,36.13h18.6"/><path class="cls-19" d="M121.45,9.19h-33.89c-4.68,0-8.47,3.79-8.47,8.47v40.31c0,.75.91,1.13,1.44.6l8.72-8.72h32.2c4.68,0,8.47-3.79,8.47-8.47v-23.72c0-4.68-3.79-8.47-8.47-8.47h0Z"/><g class="cls-119"><path class="cls-79" d="M79.08,59.02s8.64-.31,25.42,0c16.78.2,25.42,0,25.42,0v1.02h-50.83v-1.02Z"/></g><path class="cls-69" d="M90.3,21.11h28.3"/><path class="cls-50" d="M90.06,28.52h28.77"/><path class="cls-55" d="M90.07,36.13h18.6"/><path class="cls-17" d="M191.45,9.19h-33.89c-4.68,0-8.47,3.79-8.47,8.47v40.31c0,.75.91,1.13,1.44.6l8.72-8.72h32.2c4.68,0,8.47-3.79,8.47-8.47v-23.72c0-4.68-3.79-8.47-8.47-8.47h0Z"/><g class="cls-116"><path class="cls-79" d="M149.08,59.02s8.64-.31,25.42,0c16.78.2,25.42,0,25.42,0v1.02h-50.83v-1.02Z"/></g><path class="cls-69" d="M160.3,21.11h28.3"/><path class="cls-50" d="M160.06,28.52h28.77"/><path class="cls-55" d="M160.07,36.13h18.6"/><path class="cls-49" d="M261.45,9.19h-33.89c-4.68,0-8.47,3.79-8.47,8.47v40.31c0,.75.91,1.13,1.44.6l8.72-8.72h32.2c4.68,0,8.47-3.79,8.47-8.47v-23.72c0-4.68-3.79-8.47-8.47-8.47h0Z"/><g class="cls-115"><path class="cls-79" d="M219.08,59.02s8.64-.31,25.42,0c16.78.2,25.42,0,25.42,0v1.02h-50.83v-1.02Z"/></g><path class="cls-69" d="M230.3,21.11h28.3"/><path class="cls-50" d="M230.06,28.52h28.77"/><path class="cls-55" d="M230.07,36.13h18.6"/><path class="cls-21" d="M331.45,9.19h-33.89c-4.68,0-8.47,3.79-8.47,8.47v40.31c0,.75.91,1.13,1.44.6l8.72-8.72h32.2c4.68,0,8.47-3.79,8.47-8.47v-23.72c0-4.68-3.79-8.47-8.47-8.47h0Z"/><g class="cls-110"><path class="cls-79" d="M289.08,59.02s8.64-.31,25.42,0c16.78.2,25.42,0,25.42,0v1.02h-50.83v-1.02Z"/></g><path class="cls-69" d="M300.3,21.11h28.3"/><path class="cls-50" d="M300.06,28.52h28.77"/><path class="cls-55" d="M300.07,36.13h18.6"/><path class="cls-12" d="M401.45,9.19h-33.89c-4.68,0-8.47,3.79-8.47,8.47v40.31c0,.75.91,1.13,1.44.6l8.72-8.72h32.2c4.68,0,8.47-3.79,8.47-8.47v-23.72c0-4.68-3.79-8.47-8.47-8.47h0Z"/><g class="cls-111"><path class="cls-79" d="M359.08,59.02s8.64-.31,25.42,0c16.78.2,25.42,0,25.42,0v1.02h-50.83v-1.02Z"/></g><path class="cls-69" d="M370.3,21.11h28.3"/><path class="cls-50" d="M370.06,28.52h28.77"/><path class="cls-55" d="M370.07,36.13h18.6"/><path class="cls-15" d="M471.45,9.19h-33.89c-4.68,0-8.47,3.79-8.47,8.47v40.31c0,.75.91,1.13,1.44.6l8.72-8.72h32.2c4.68,0,8.47-3.79,8.47-8.47v-23.72c0-4.68-3.79-8.47-8.47-8.47h0Z"/><g class="cls-112"><path class="cls-79" d="M429.08,59.02s8.64-.31,25.42,0c16.78.2,25.42,0,25.42,0v1.02h-50.83v-1.02Z"/></g><path class="cls-69" d="M440.3,21.11h28.3"/><path class="cls-50" d="M440.06,28.52h28.77"/><path class="cls-55" d="M440.07,36.13h18.6"/><path class="cls-24" d="M541.45,9.19h-33.89c-4.68,0-8.47,3.79-8.47,8.47v40.31c0,.75.91,1.13,1.44.6l8.72-8.72h32.2c4.68,0,8.47-3.79,8.47-8.47v-23.72c0-4.68-3.79-8.47-8.47-8.47h0Z"/><g class="cls-113"><path class="cls-79" d="M499.08,59.02s8.64-.31,25.42,0c16.78.2,25.42,0,25.42,0v1.02h-50.83v-1.02Z"/></g><path class="cls-69" d="M510.3,21.11h28.3"/><path class="cls-50" d="M510.06,28.52h28.77"/><path class="cls-55" d="M510.07,36.13h18.6"/><path class="cls-54" d="M611.45,9.19h-33.89c-4.68,0-8.47,3.79-8.47,8.47v40.31c0,.75.91,1.13,1.44.6l8.72-8.72h32.2c4.68,0,8.47-3.79,8.47-8.47v-23.72c0-4.68-3.79-8.47-8.47-8.47h0Z"/><g class="cls-118"><path class="cls-79" d="M569.08,59.02s8.64-.31,25.42,0c16.78.2,25.42,0,25.42,0v1.02h-50.83v-1.02Z"/></g><path class="cls-69" d="M580.3,21.11h28.3"/><path class="cls-50" d="M580.06,28.52h28.77"/><path class="cls-55" d="M580.07,36.13h18.6"/><path class="cls-13" d="M681.45,9.19h-33.89c-4.68,0-8.47,3.79-8.47,8.47v40.31c0,.75.91,1.13,1.44.6l8.72-8.72h32.2c4.68,0,8.47-3.79,8.47-8.47v-23.72c0-4.68-3.79-8.47-8.47-8.47h0Z"/><g class="cls-114"><path class="cls-79" d="M639.08,59.02s8.64-.31,25.42,0c16.78.2,25.42,0,25.42,0v1.02h-50.83v-1.02Z"/></g><path class="cls-69" d="M650.3,21.11h28.3"/><path class="cls-50" d="M650.06,28.52h28.77"/><path class="cls-55" d="M650.07,36.13h18.6"/><path class="cls-2" d="M751.45,9.19h-33.89c-4.68,0-8.47,3.79-8.47,8.47v40.31c0,.75.91,1.13,1.44.6l8.72-8.72h32.2c4.68,0,8.47-3.79,8.47-8.47v-23.72c0-4.68-3.79-8.47-8.47-8.47h0Z"/><g class="cls-98"><path class="cls-79" d="M709.08,59.02s8.64-.31,25.42,0c16.78.2,25.42,0,25.42,0v1.02h-50.83v-1.02Z"/></g><path class="cls-69" d="M720.3,21.11h28.3"/><path class="cls-50" d="M720.06,28.52h28.77"/><path class="cls-55" d="M720.07,36.13h18.6"/><path class="cls-76" d="M821.45,9.19h-33.89c-4.68,0-8.47,3.79-8.47,8.47v40.31c0,.75.91,1.13,1.44.6l8.72-8.72h32.2c4.68,0,8.47-3.79,8.47-8.47v-23.72c0-4.68-3.79-8.47-8.47-8.47h0Z"/><g class="cls-100"><path class="cls-79" d="M779.08,59.02s8.64-.31,25.42,0c16.78.2,25.42,0,25.42,0v1.02h-50.83v-1.02Z"/></g><path class="cls-69" d="M790.3,21.11h28.3"/><path class="cls-50" d="M790.06,28.52h28.77"/><path class="cls-55" d="M790.07,36.13h18.6"/><path class="cls-5" d="M891.45,9.19h-33.89c-4.68,0-8.47,3.79-8.47,8.47v40.31c0,.75.91,1.13,1.44.6l8.72-8.72h32.2c4.68,0,8.47-3.79,8.47-8.47v-23.72c0-4.68-3.79-8.47-8.47-8.47h0Z"/><g class="cls-99"><path class="cls-79" d="M849.08,59.02s8.64-.31,25.42,0c16.78.2,25.42,0,25.42,0v1.02h-50.83v-1.02Z"/></g><path class="cls-69" d="M860.3,21.11h28.3"/><path class="cls-50" d="M860.06,28.52h28.77"/><path class="cls-55" d="M860.07,36.13h18.6"/><path class="cls-47" d="M961.45,9.19h-33.89c-4.68,0-8.47,3.79-8.47,8.47v40.31c0,.75.91,1.13,1.44.6l8.72-8.72h32.2c4.68,0,8.47-3.79,8.47-8.47v-23.72c0-4.68-3.79-8.47-8.47-8.47h0Z"/><g class="cls-102"><path class="cls-79" d="M919.08,59.02s8.64-.31,25.42,0c16.78.2,25.42,0,25.42,0v1.02h-50.83v-1.02Z"/></g><path class="cls-69" d="M930.3,21.11h28.3"/><path class="cls-50" d="M930.06,28.52h28.77"/><path class="cls-55" d="M930.07,36.13h18.6"/><path class="cls-45" d="M1031.45,9.19h-33.89c-4.68,0-8.47,3.79-8.47,8.47v40.31c0,.75.91,1.13,1.44.6l8.72-8.72h32.2c4.68,0,8.47-3.79,8.47-8.47v-23.72c0-4.68-3.79-8.47-8.47-8.47h0Z"/><g class="cls-96"><path class="cls-79" d="M989.08,59.02s8.64-.31,25.42,0c16.78.2,25.42,0,25.42,0v1.02h-50.83v-1.02Z"/></g><path class="cls-69" d="M1000.3,21.11h28.3"/><path class="cls-50" d="M1000.06,28.52h28.77"/><path class="cls-55" d="M1000.07,36.13h18.6"/><path class="cls-77" d="M1101.45,9.19h-33.89c-4.68,0-8.47,3.79-8.47,8.47v40.31c0,.75.91,1.13,1.44.6l8.72-8.72h32.2c4.68,0,8.47-3.79,8.47-8.47v-23.72c0-4.68-3.79-8.47-8.47-8.47h0Z"/><g class="cls-97"><path class="cls-79" d="M1059.08,59.02s8.64-.31,25.42,0c16.78.2,25.42,0,25.42,0v1.02h-50.83v-1.02Z"/></g><path class="cls-69" d="M1070.3,21.11h28.3"/><path class="cls-50" d="M1070.06,28.52h28.77"/><path class="cls-55" d="M1070.07,36.13h18.6"/><path class="cls-57" d="M1171.45,9.19h-33.89c-4.68,0-8.47,3.79-8.47,8.47v40.31c0,.75.91,1.13,1.44.6l8.72-8.72h32.2c4.68,0,8.47-3.79,8.47-8.47v-23.72c0-4.68-3.79-8.47-8.47-8.47h0Z"/><g class="cls-103"><path class="cls-79" d="M1129.08,59.02s8.64-.31,25.42,0c16.78.2,25.42,0,25.42,0v1.02h-50.83v-1.02Z"/></g><path class="cls-69" d="M1140.3,21.11h28.3"/><path class="cls-50" d="M1140.06,28.52h28.77"/><path class="cls-55" d="M1140.07,36.13h18.6"/><path class="cls-3" d="M1241.45,9.19h-33.89c-4.68,0-8.47,3.79-8.47,8.47v40.31c0,.75.91,1.13,1.44.6l8.72-8.72h32.2c4.68,0,8.47-3.79,8.47-8.47v-23.72c0-4.68-3.79-8.47-8.47-8.47h0Z"/><g class="cls-101"><path class="cls-79" d="M1199.08,59.02s8.64-.31,25.42,0c16.78.2,25.42,0,25.42,0v1.02h-50.83v-1.02Z"/></g><path class="cls-69" d="M1210.3,21.11h28.3"/><path class="cls-50" d="M1210.06,28.52h28.77"/><path class="cls-55" d="M1210.07,36.13h18.6"/><path class="cls-16" d="M1311.45,9.19h-33.89c-4.68,0-8.47,3.79-8.47,8.47v40.31c0,.75.91,1.13,1.44.6l8.72-8.72h32.2c4.68,0,8.47-3.79,8.47-8.47v-23.72c0-4.68-3.79-8.47-8.47-8.47h0Z"/><g class="cls-104"><path class="cls-79" d="M1269.08,59.02s8.64-.31,25.42,0c16.78.2,25.42,0,25.42,0v1.02h-50.83v-1.02Z"/></g><path class="cls-69" d="M1280.3,21.11h28.3"/><path class="cls-50" d="M1280.06,28.52h28.77"/><path class="cls-55" d="M1280.07,36.13h18.6"/><path class="cls-34" d="M1381.45,9.19h-33.89c-4.68,0-8.47,3.79-8.47,8.47v40.31c0,.75.91,1.13,1.44.6l8.72-8.72h32.2c4.68,0,8.47-3.79,8.47-8.47v-23.72c0-4.68-3.79-8.47-8.47-8.47h0Z"/><g class="cls-105"><path class="cls-79" d="M1339.08,59.02s8.64-.31,25.42,0c16.78.2,25.42,0,25.42,0v1.02h-50.83v-1.02Z"/></g><path class="cls-69" d="M1350.3,21.11h28.3"/><path class="cls-50" d="M1350.06,28.52h28.77"/><path class="cls-55" d="M1350.07,36.13h18.6"/><path class="cls-37" d="M1451.45,9.19h-33.89c-4.68,0-8.47,3.79-8.47,8.47v40.31c0,.75.91,1.13,1.44.6l8.72-8.72h32.2c4.68,0,8.47-3.79,8.47-8.47v-23.72c0-4.68-3.79-8.47-8.47-8.47h0Z"/><g class="cls-122"><path class="cls-79" d="M1409.08,59.02s8.64-.31,25.42,0c16.78.2,25.42,0,25.42,0v1.02h-50.83v-1.02Z"/></g><path class="cls-69" d="M1420.3,21.11h28.3"/><path class="cls-50" d="M1420.06,28.52h28.77"/><path class="cls-55" d="M1420.07,36.13h18.6"/><path class="cls-63" d="M1521.45,9.19h-33.89c-4.68,0-8.47,3.79-8.47,8.47v40.31c0,.75.91,1.13,1.44.6l8.72-8.72h32.2c4.68,0,8.47-3.79,8.47-8.47v-23.72c0-4.68-3.79-8.47-8.47-8.47h0Z"/><g class="cls-123"><path class="cls-79" d="M1479.08,59.02s8.64-.31,25.42,0c16.78.2,25.42,0,25.42,0v1.02h-50.83v-1.02Z"/></g><path class="cls-69" d="M1490.3,21.11h28.3"/><path class="cls-50" d="M1490.06,28.52h28.77"/><path class="cls-55" d="M1490.07,36.13h18.6"/><path class="cls-9" d="M1591.45,9.19h-33.89c-4.68,0-8.47,3.79-8.47,8.47v40.31c0,.75.91,1.13,1.44.6l8.72-8.72h32.2c4.68,0,8.47-3.79,8.47-8.47v-23.72c0-4.68-3.79-8.47-8.47-8.47h0Z"/><g class="cls-124"><path class="cls-79" d="M1549.08,59.02s8.64-.31,25.42,0c16.78.2,25.42,0,25.42,0v1.02h-50.83v-1.02Z"/></g><path class="cls-69" d="M1560.3,21.11h28.3"/><path class="cls-50" d="M1560.06,28.52h28.77"/><path class="cls-55" d="M1560.07,36.13h18.6"/><path class="cls-64" d="M1661.45,9.19h-33.89c-4.68,0-8.47,3.79-8.47,8.47v40.31c0,.75.91,1.13,1.44.6l8.72-8.72h32.2c4.68,0,8.47-3.79,8.47-8.47v-23.72c0-4.68-3.79-8.47-8.47-8.47h0Z"/><g class="cls-120"><path class="cls-79" d="M1619.08,59.02s8.64-.31,25.42,0c16.78.2,25.42,0,25.42,0v1.02h-50.83v-1.02Z"/></g><path class="cls-69" d="M1630.3,21.11h28.3"/><path class="cls-50" d="M1630.06,28.52h28.77"/><path class="cls-55" d="M1630.07,36.13h18.6"/><path class="cls-28" d="M1731.45,9.19h-33.89c-4.68,0-8.47,3.79-8.47,8.47v40.31c0,.75.91,1.13,1.44.6l8.72-8.72h32.2c4.68,0,8.47-3.79,8.47-8.47v-23.72c0-4.68-3.79-8.47-8.47-8.47h0Z"/><g class="cls-121"><path class="cls-79" d="M1689,57.6s8.5-.3,25,0c16.5.2,25,0,25,0v1h-50v-1Z"/></g><path class="cls-69" d="M1700.3,21.11h28.3"/><path class="cls-50" d="M1700.06,28.52h28.77"/><path class="cls-55" d="M1700.07,36.13h18.6"/><path class="cls-53" d="M1801.45,9.19h-33.89c-4.68,0-8.47,3.79-8.47,8.47v40.31c0,.75.91,1.13,1.44.6l8.72-8.72h32.2c4.68,0,8.47-3.79,8.47-8.47v-23.72c0-4.68-3.79-8.47-8.47-8.47h0Z"/><g class="cls-125"><path class="cls-79" d="M1759,57.45s8.5-.35,25-.02c16.5.23,25,0,25,0v1.17h-50v-1.15Z"/></g><path class="cls-69" d="M1770.3,21.11h28.3"/><path class="cls-50" d="M1770.06,28.52h28.77"/><path class="cls-55" d="M1770.07,36.13h18.6"/><path class="cls-30" d="M1871.45,9.19h-33.89c-4.68,0-8.47,3.79-8.47,8.47v40.31c0,.75.91,1.13,1.44.6l8.72-8.72h32.2c4.68,0,8.47-3.79,8.47-8.47v-23.72c0-4.68-3.79-8.47-8.47-8.47h0Z"/><g class="cls-126"><path class="cls-79" d="M1829,56.95s8.5-.49,25-.07c16.5.33,25-.04,25-.04v1.76h-50v-1.65Z"/></g><path class="cls-69" d="M1840.3,21.11h28.3"/><path class="cls-50" d="M1840.06,28.52h28.77"/><path class="cls-55" d="M1840.07,36.13h18.6"/><path class="cls-29" d="M1941.45,9.19h-33.89c-4.68,0-8.47,3.79-8.47,8.47v40.31c0,.75.91,1.13,1.44.6l8.72-8.72h32.2c4.68,0,8.47-3.79,8.47-8.47v-23.72c0-4.68-3.79-8.47-8.47-8.47h0Z"/><g class="cls-127"><path class="cls-79" d="M1899,56s8.5-.78,25-.17c16.5.51,25-.11,25-.11v2.87h-50v-2.59Z"/></g><path class="cls-69" d="M1910.3,21.11h28.3"/><path class="cls-50" d="M1910.06,28.52h28.77"/><path class="cls-55" d="M1910.07,36.13h18.6"/><path class="cls-22" d="M2011.45,9.19h-33.89c-4.68,0-8.47,3.79-8.47,8.47v40.31c0,.75.91,1.13,1.44.6l8.72-8.72h32.2c4.68,0,8.47-3.79,8.47-8.47v-23.72c0-4.68-3.79-8.47-8.47-8.47h0Z"/><g class="cls-128"><path class="cls-79" d="M1969,54.47s8.5-1.24,25-.33c16.5.81,25-.21,25-.21v4.66h-50v-4.11Z"/></g><path class="cls-69" d="M1980.3,21.11h28.3"/><path class="cls-50" d="M1980.06,28.52h28.77"/><path class="cls-55" d="M1980.07,36.13h18.6"/><path class="cls-61" d="M2081.45,9.19h-33.89c-4.68,0-8.47,3.79-8.47,8.47v40.31c0,.75.91,1.13,1.44.6l8.72-8.72h32.2c4.68,0,8.47-3.79,8.47-8.47v-23.72c0-4.68-3.79-8.47-8.47-8.47h0Z"/><g class="cls-133"><path class="cls-79" d="M2039,52.21s8.5-1.91,25-.57c16.5,1.25,25-.37,25-.37v7.3h-50v-6.36Z"/></g><path class="cls-69" d="M2050.3,21.11h28.3"/><path class="cls-50" d="M2050.06,28.52h28.77"/><path class="cls-55" d="M2050.07,36.13h18.6"/><path class="cls-41" d="M2151.45,9.19h-33.89c-4.68,0-8.47,3.79-8.47,8.47v40.31c0,.75.91,1.13,1.44.6l8.72-8.72h32.2c4.68,0,8.47-3.79,8.47-8.47v-23.72c0-4.68-3.79-8.47-8.47-8.47h0Z"/><g class="cls-89"><path class="cls-79" d="M2109,49.05s8.5-2.86,25-.91c16.5,1.86,25-.58,25-.58v11h-50v-9.51Z"/></g><path class="cls-69" d="M2120.3,21.11h28.3"/><path class="cls-50" d="M2120.06,28.52h28.77"/><path class="cls-55" d="M2120.07,36.13h18.6"/><path class="cls-41" d="M4461.45,9.19h-33.89c-4.68,0-8.47,3.79-8.47,8.47v40.31c0,.75.91,1.13,1.44.6l8.72-8.72h32.2c4.68,0,8.47-3.79,8.47-8.47v-23.72c0-4.68-3.79-8.47-8.47-8.47h0Z"/><g class="cls-129"><path class="cls-79" d="M4419,8.8s8.5-14.9,25-5.2c16.5,9.7,25-3.3,25-3.3v58.1h-50V8.8Z"/></g><path class="cls-1" d="M4430.3,21.11h28.3M4430.06,28.52h28.77"/><path class="cls-75" d="M4430.07,36.13h18.6"/><path class="cls-41" d="M2221.45,9.19h-33.89c-4.68,0-8.47,3.79-8.47,8.47v40.31c0,.75.91,1.13,1.44.6l8.72-8.72h32.2c4.68,0,8.47-3.79,8.47-8.47v-23.72c0-4.68-3.79-8.47-8.47-8.47h0Z"/><g class="cls-131"><path class="cls-79" d="M2179.01,44.95s8.5-4.08,25-1.35c16.5,2.66,25-.86,25-.86v15.8h-50v-13.6h0Z"/></g><path class="cls-41" d="M2291.45,9.19h-33.89c-4.68,0-8.47,3.79-8.47,8.47v40.31c0,.75.91,1.13,1.44.6l8.72-8.72h32.2c4.68,0,8.47-3.79,8.47-8.47v-23.72c0-4.68-3.79-8.47-8.47-8.47h0Z"/><g class="cls-135"><path class="cls-79" d="M2249.01,40.17s8.5-5.51,25-1.86c16.5,3.59,25-1.18,25-1.18v21.4h-50s0-18.36,0-18.36Z"/></g><path class="cls-41" d="M2361.45,9.19h-33.89c-4.68,0-8.47,3.79-8.47,8.47v40.31c0,.75.91,1.13,1.44.6l8.72-8.72h32.2c4.68,0,8.47-3.79,8.47-8.47v-23.72c0-4.68-3.79-8.47-8.47-8.47h0Z"/><g class="cls-130"><path class="cls-79" d="M2319.01,35.29s8.5-6.98,25-2.38c16.5,4.54,25-1.51,25-1.51v27.11h-50v-23.22h0Z"/></g><path class="cls-41" d="M2431.45,9.19h-33.89c-4.68,0-8.47,3.79-8.47,8.47v40.31c0,.75.91,1.13,1.44.6l8.72-8.72h32.2c4.68,0,8.47-3.79,8.47-8.47v-23.72c0-4.68-3.79-8.47-8.47-8.47h0Z"/><g class="cls-134"><path class="cls-79" d="M2389.01,30.8s8.5-8.32,25-2.86c16.5,5.42,25-1.81,25-1.81v32.35h-50v-27.69h0Z"/></g><path class="cls-41" d="M2501.45,9.19h-33.89c-4.68,0-8.47,3.79-8.47,8.47v40.31c0,.75.91,1.13,1.44.6l8.72-8.72h32.2c4.68,0,8.47-3.79,8.47-8.47v-23.72c0-4.68-3.79-8.47-8.47-8.47h0Z"/><g class="cls-136"><path class="cls-79" d="M2459.01,26.93s8.5-9.48,25-3.27c16.5,6.17,25-2.07,25-2.07v36.88h-50s0-31.54,0-31.54Z"/></g><path class="cls-41" d="M2571.45,9.19h-33.89c-4.68,0-8.47,3.79-8.47,8.47v40.31c0,.75.91,1.13,1.44.6l8.72-8.72h32.2c4.68,0,8.47-3.79,8.47-8.47v-23.72c0-4.68-3.79-8.47-8.47-8.47h0Z"/><g class="cls-132"><path class="cls-79" d="M2529.01,23.67s8.5-10.45,25-3.62c16.5,6.81,25-2.29,25-2.29v40.7h-50V23.67Z"/></g></svg>