<?xml version="1.0" encoding="UTF-8"?><svg id="Layer_1" xmlns="http://www.w3.org/2000/svg" width="35.99" height="39.79" viewBox="0 0 35.99 39.79"><defs><style>.cls-1{fill:none;stroke:#fff;stroke-linecap:round;stroke-miterlimit:10;stroke-width:1.5px;}.cls-2{fill:#fff;fill-rule:evenodd;}</style></defs><path class="cls-2" d="m30.79,34.79c-1.31,1.42-3.08,2.32-5,2.55l.78-.71c4.56-4.57,5.46-9.46,2.67-14.57l-1.74-3.07-1.52-3.2c-.49-1.06-.36-1.87.4-2.45.3-.23.68-.32,1.04-.25.54.08,1.04.44,1.39.95l4.51,7.94c1.87,3.12,2.18,8.1-2.53,12.82m-21.01-.82l-7.94-7.94c-.61-.62-.6-1.63.02-2.24.29-.28.68-.45,1.09-.45s.84.17,1.14.47l4.11,4.11c.27.28.71.28.99,0,.28-.27.28-.71,0-.99l-4.16-4.15-2.77-2.77c-.66-.57-.74-1.57-.17-2.23s1.57-.74,2.23-.17c.06.05.12.11.17.17l6.57,6.57c.27.28.71.28.98.01h.01c.27-.28.27-.72,0-.99l-6.55-6.57-1.87-1.87c-.6-.62-.6-1.6,0-2.22.62-.6,1.61-.6,2.23,0l1.87,1.84,6.57,6.58c.27.27.71.27.98,0,.28-.27.28-.71.01-.98h-.01s-6.57-6.58-6.57-6.58c-.3-.29-.47-.69-.47-1.11s.18-.82.47-1.11c.62-.61,1.61-.61,2.23,0l11.08,11.04c.28.26.72.24.98-.05.18-.2.23-.49.12-.74l-2.14-4.51c-.49-1.08-.36-1.88.4-2.47.3-.23.68-.32,1.04-.25.54.09,1.04.44,1.39.95l4.19,7.39c2.48,4.56,1.69,8.77-2.45,12.91-2.06,2.16-5.07,3.14-8.01,2.61-2.98-.6-5.7-2.1-7.8-4.3l.02.02.02.02Zm6.17-23.92l4.05,4.05c-.79.95-.89,2.23-.24,3.61l.41.89-6.72-6.72c-.12-.22-.18-.46-.19-.71,0-.42.17-.81.46-1.11.62-.6,1.61-.6,2.23,0h0Zm14.07,3.26c-.6-.89-1.42-1.46-2.36-1.6-.75-.13-1.52.06-2.12.52s-.97,1.03-1.12,1.68c-.48-.46-1.08-.77-1.74-.89-.53-.08-1.07-.01-1.57.21l-4.18-4.18c-1.16-1.15-3.03-1.15-4.19,0-.37.37-.63.84-.76,1.34-1.16-1.17-3.05-1.18-4.22-.02-.39.39-.67.88-.79,1.42-1.2-1.19-3.16-1.19-4.27-.06-1.16,1.16-1.16,3.04,0,4.21h0c-.47.19-.97.46-1.38.87-1.16,1.16-1.16,3.04,0,4.21h0l.98.98c-1.6.37-2.59,1.98-2.22,3.58.13.54.4,1.03.79,1.42l7.93,7.94c2.53,2.53,5.57,4.18,8.54,4.68.62.1,1.24.16,1.87.16,1.63,0,3.16-.4,4.59-1.11,2.97.36,5.94-.72,7.97-2.91,5.28-5.28,4.87-10.97,2.75-14.51l-4.54-7.97.03.02h.01Z"/><line class="cls-1" x1="18.38" y1=".75" x2="18.38" y2="5.07"/><line class="cls-1" x1="12.98" y1="2.48" x2="15.14" y2="6.22"/><line class="cls-1" x1="23.78" y1="2.48" x2="21.62" y2="6.22"/></svg>