<?xml version="1.0" encoding="UTF-8"?><svg id="Layer_1" xmlns="http://www.w3.org/2000/svg" width="199.99" height="58.15" viewBox="0 0 199.99 58.15"><path id="Path_4060" d="m54.1,31.3c-1.23-1.23-1.23-3.23,0-4.46l2.71-2.26c.54-.45.77-1.17.62-1.85C53.93,7.06,38.39-2.8,22.73.71,7.06,4.21-2.8,19.75.71,35.42c3.5,15.67,19.04,25.53,34.71,22.02,10.99-2.46,19.56-11.04,22.02-22.02.16-.68-.08-1.39-.62-1.83l-2.72-2.28h0Zm-24.73,19.81c-12.17,0-22.03-9.87-22.03-22.03S17.21,7.05,29.37,7.05c8.71,0,16.6,5.13,20.13,13.09.23.5.1,1.1-.32,1.45l-2.84,2.38c-.23.19-.55.19-.78,0l-6.85-5.65c-5.94-5.31-15.05-4.8-20.36,1.14-5.31,5.94-4.8,15.05,1.14,20.36,2.64,2.36,6.07,3.67,9.61,3.67,4.04,0,7.45-1.78,10.32-4.36l4.65-3.94c.26-.22.29-.61.07-.86-.02-.03-.05-.05-.08-.08l-4.51-3.76c-.23-.19-.55-.19-.78,0l-5.84,4.85h0c-1.44.89-3.14,1.26-4.82,1.04-4.04-.53-6.89-4.24-6.36-8.29s4.24-6.89,8.29-6.36h0c.98.13,1.93.46,2.78.96h0c.11.08.49.37.6.45h0l15.89,13.1c.42.34.56.91.36,1.4-3.46,8.15-11.44,13.44-20.29,13.44v.03Z"/><path d="m84.6,16.38c3.86,0,6.99,1.32,9.55,4.02l.1.11,3.39-3.29-.09-.1c-3.14-3.53-7.68-5.39-13.15-5.39-5.1,0-9.75,1.78-13.11,5.01-3.37,3.24-5.22,7.74-5.22,12.68s1.85,9.44,5.22,12.68c3.35,3.23,7.99,5.01,13.07,5.01,5.39,0,10.08-1.93,13.2-5.44l.09-.1-3.39-3.29-.1.11c-2.56,2.7-5.77,4.07-9.55,4.07-7.73,0-13.34-5.49-13.34-13.04s5.61-13.04,13.34-13.04h0Z"/><path d="m113.18,41.02l-8.97-20.57h-5.22l11.53,26.08-.81,1.76c-1.21,2.83-2.56,3.93-4.82,3.93-1.72,0-3.33-.67-4.56-1.87l-.13-.13-2.16,3.79.08.08c1.58,1.53,4.11,2.44,6.77,2.44,4.44,0,7.25-2.18,9.4-7.29l12.69-28.78h-4.92l-8.88,20.57h0Z"/><path d="m186.37,20.21c-7.92,0-13.67,5.63-13.67,13.38s5.75,13.43,13.67,13.43h0c7.89,0,13.62-5.65,13.62-13.43s-5.73-13.38-13.63-13.38h.01Zm-8.63,13.38c0-5.28,3.55-8.97,8.63-8.97s8.58,3.69,8.58,8.97-3.53,9.02-8.58,9.02h0c-5.08,0-8.63-3.71-8.63-9.02Z"/><path d="m141.57,20.21c-7.92,0-13.67,5.63-13.67,13.38s5.75,13.43,13.67,13.43,13.63-5.65,13.63-13.43-5.73-13.38-13.63-13.38Zm8.58,13.38c0,5.31-3.53,9.02-8.58,9.02s-8.63-3.71-8.63-9.02,3.55-8.97,8.63-8.97,8.58,3.69,8.58,8.97Z"/><rect x="161.43" y="10.06" width="4.99" height="36.66"/></svg>