<?xml version="1.0" encoding="UTF-8"?><svg id="Layer_1" xmlns="http://www.w3.org/2000/svg" width="151.02" height="46.01" viewBox="0 0 151.02 46.01"><path d="m103,.01c-.01,1.37-.04,2.75-.04,4.12v40.84h-9.46c-2.11,0-2.18.02-2.7-1.98-2.37-9.04-4.69-18.08-7.04-27.12-.11-.42-.28-.82-.43-1.23-.16.02-.33.04-.49.06.31,10.03.61,20.05.92,30.18h-8.72V1.51c0-.5-.03-1-.04-1.5h11.5c.66,2.27,1.36,4.54,1.98,6.82,2.13,7.73,4.23,15.47,6.36,23.21.12.45.4.86.62,1.31-.15-2.39-.36-4.67-.41-6.95-.09-4.29-.06-8.58-.11-12.87-.04-3.49-.13-6.98-.22-10.47,0-.35-.15-.71-.23-1.06h8.51Z"/><path d="m132.25,46.01c.38-.13.76-.26,1.39-.48-1.2-.2-2.17-.3-3.11-.54-4.96-1.29-7.48-4.56-7.49-9.69v-5.77c2.43,0,4.74-.02,7.06,0,2.46.03,2.36-.56,2.32,2.29-.02,1.5-.02,3,.04,4.5.05,1.43.78,2.44,2.12,2.95,1.58.61,3.18.61,4.76,0,1.11-.42,1.81-1.28,1.92-2.42.17-1.69.29-3.41.19-5.1-.13-2.32-1.73-3.67-3.58-4.78-3.07-1.84-6.09-3.76-9.19-5.54-5.38-3.08-6.16-10.08-4.71-14.3,1.33-3.85,4.5-5.59,8.3-6.37.65-.13,1.31-.19,2.16-.31-.31-.21-.49-.33-.67-.45h7.5c-.15.12-.29.24-.53.44,1.02.24,1.91.41,2.78.65,3.23.9,7.05,3.9,6.73,8.65-.07.95-.04,1.92.04,2.87.09.96-.28,1.26-1.21,1.19-.78-.06-1.58.06-2.37.06-1.86.01-3.71,0-5.65,0v-3.69c0-2.25-.79-3.3-2.81-3.81-2.14-.53-4.21.24-5.09,1.91-1.27,2.4-.35,6.09,1.95,7.57,2.69,1.73,5.39,3.47,8.15,5.1,3.56,2.1,6.75,4.48,7.77,8.8v6.5c-.09.35-.22.7-.28,1.06-.57,3.76-2.69,6.24-6.25,7.47-.98.34-2.03.44-3.14.67.54.21.98.38,1.42.55h-10.5l-.02.02Z"/><path d="m60.75.01c.6,2.89,1.2,5.77,1.8,8.66,2.02,9.77,4.05,19.53,6.07,29.3.47,2.27.93,4.54,1.43,6.99-3.07,0-5.97.02-8.87-.04-.26,0-.66-.58-.73-.93-.28-1.55-.49-3.12-.65-4.69-.1-.98-.54-1.37-1.54-1.34-1.79.05-3.58,0-5.37.02-1.5,0-1.75.26-1.93,1.8-.15,1.24-.33,2.47-.53,3.7-.17,1.02-.63,1.58-1.84,1.53-2.49-.1-4.98-.03-7.56-.03.04-.46.04-.79.11-1.11.91-4.26,1.84-8.52,2.76-12.78,2.19-10.15,4.38-20.3,6.57-30.45.04-.2.03-.41.04-.62h10.25-.01Zm-2.2,30.75c-.9-5.68-1.79-11.32-2.69-16.96-.11,0-.23,0-.34-.01-.11.38-.27.75-.33,1.13-.5,3.36-.97,6.72-1.47,10.08-.23,1.56-.51,3.11-.79,4.66-.15.83.17,1.14,1,1.12,1.45-.04,2.9,0,4.62,0v-.02Z"/><path d="m26,.01c-.01,1.07-.04,2.14-.04,3.21v34.82h12.92v6.86h-21.83V1.52c0-.5-.03-1-.04-1.5,2.99-.01,5.99-.01,8.99-.01Z"/><path d="m9,.01c-.01,1.21-.04,2.41-.04,3.62v41.38H0V.01h9Z"/><path d="m117,.01v12.89h-8V.01h8Z"/></svg>