<svg id="Layer_1" data-name="Layer 1" xmlns="http://www.w3.org/2000/svg" width="1.71in" height="0.49in" viewBox="0 0 122.98 35.41"><defs><style>.cls-1{fill:#0577b6;}.cls-2{fill:#fff;}</style></defs><path id="Path_4060" data-name="Path 4060" class="cls-1" d="M33,19.06a1.93,1.93,0,0,1,0-2.72L34.6,15A1.13,1.13,0,0,0,35,13.84a17.7,17.7,0,1,0,0,7.73,1.11,1.11,0,0,0-.37-1.12ZM17.87,31.13A13.42,13.42,0,1,1,30.14,12.26a.74.74,0,0,1-.2.88L28.21,14.6a.39.39,0,0,1-.48,0l-4.17-3.44a8.78,8.78,0,1,0-5.85,15.33A9.32,9.32,0,0,0,24,23.84l2.83-2.4a.38.38,0,0,0,.05-.53h-.05l-2.75-2.29a.35.35,0,0,0-.47,0L20,21.57h0a4.49,4.49,0,1,1-1.77-8.28h0a4.3,4.3,0,0,1,1.7.58h0l.36.28h0l9.68,8a.73.73,0,0,1,.22.86A13.42,13.42,0,0,1,17.87,31.13Z" transform="translate(0 0)"/><path id="Path_366" data-name="Path 366" class="cls-2" d="M52.62,28.6a10.33,10.33,0,0,0,8-3.28l-1.94-1.88A7.8,7.8,0,0,1,52.77,26a7.89,7.89,0,0,1-8.2-7.57h0V18a7.9,7.9,0,0,1,7.77-8h.44a7.73,7.73,0,0,1,5.88,2.48l1.94-1.88a10.31,10.31,0,0,0-7.94-3.26C46.3,7.33,41.58,11.84,41.58,18S46.29,28.6,52.62,28.6Zm23-16.06L70.18,25.2,64.66,12.54h-3l7,15.79-.51,1.11c-.78,1.82-1.64,2.45-3,2.45a4,4,0,0,1-2.83-1.17l-1.23,2.15a5.93,5.93,0,0,0,4.06,1.47c2.42,0,4.24-1.05,5.65-4.39l7.67-17.41Zm11.82,16A7.88,7.88,0,0,0,95.65,21h0v-.57a8.23,8.23,0,0,0-16.45,0,7.89,7.89,0,0,0,7.67,8.1h.57Zm0-2.5a5.24,5.24,0,0,1-5.35-5.13h0v-.46a5.33,5.33,0,0,1,10.66,0A5.22,5.22,0,0,1,87.92,26Zm12.19,2.32h2.86V6.21H99.66Zm15.11.18A7.87,7.87,0,0,0,123,21.08v-.63a8.23,8.23,0,0,0-16.45,0,7.9,7.9,0,0,0,7.68,8.1h.53Zm0-2.5a5.24,5.24,0,0,1-5.36-5.12h0v-.47a5.33,5.33,0,0,1,10.66,0A5.23,5.23,0,0,1,115.21,26Z" transform="translate(0 0)"/></svg>