<svg id="Layer_1" data-name="Layer 1" xmlns="http://www.w3.org/2000/svg" width="122.98" height="35.41" viewBox="0 0 122.98 35.41"><defs><style>.cls-1{fill:#fff;}</style></defs><path id="Path_4060" data-name="Path 4060" class="cls-1" d="M33,19.07a1.93,1.93,0,0,1,0-2.72L34.62,15A1.13,1.13,0,0,0,35,13.85a17.7,17.7,0,1,0,0,7.73,1.11,1.11,0,0,0-.37-1.12ZM17.89,31.14A13.42,13.42,0,1,1,30.16,12.27a.74.74,0,0,1-.2.88l-1.73,1.46a.39.39,0,0,1-.48,0l-4.17-3.44A8.78,8.78,0,1,0,17.73,26.5,9.32,9.32,0,0,0,24,23.85l2.83-2.4a.38.38,0,0,0,.05-.53h-.05l-2.75-2.29a.35.35,0,0,0-.47,0l-3.56,2.95h0a4.49,4.49,0,1,1-1.77-8.28h0a4.3,4.3,0,0,1,1.7.58h0l.36.28h0l9.68,8a.73.73,0,0,1,.22.86A13.42,13.42,0,0,1,17.89,31.14Z" transform="translate(-0.02 -0.01)"/><path id="Path_366" data-name="Path 366" class="cls-1" d="M52.64,28.61a10.33,10.33,0,0,0,8-3.28L58.7,23.45A7.8,7.8,0,0,1,52.79,26a7.89,7.89,0,0,1-8.2-7.58c0-.14,0-.28,0-.42a7.9,7.9,0,0,1,7.77-8h.44a7.73,7.73,0,0,1,5.88,2.48l1.94-1.88a10.31,10.31,0,0,0-7.94-3.26c-6.36,0-11.08,4.51-11.08,10.69S46.31,28.61,52.64,28.61Zm23-16.06L70.2,25.21,64.68,12.55h-3l7,15.79-.51,1.11c-.78,1.82-1.64,2.45-3,2.45a4,4,0,0,1-2.83-1.17l-1.23,2.15a5.93,5.93,0,0,0,4.06,1.47c2.42,0,4.24-1.05,5.65-4.39l7.67-17.41Zm11.82,16A7.88,7.88,0,0,0,95.67,21c0-.19,0-.38,0-.57a8.23,8.23,0,0,0-16.45,0,7.89,7.89,0,0,0,7.68,8.1h.56Zm0-2.5a5.24,5.24,0,0,1-5.35-5.13c0-.15,0-.31,0-.46a5.33,5.33,0,0,1,10.66,0A5.22,5.22,0,0,1,87.94,26Zm12.19,2.32h2.86V6.22H99.68Zm15.11.18A7.86,7.86,0,0,0,123,21.06c0-.2,0-.4,0-.6a8.23,8.23,0,0,0-16.45,0,7.9,7.9,0,0,0,7.68,8.1h.53Zm0-2.5a5.24,5.24,0,0,1-5.36-5.12c0-.15,0-.31,0-.47a5.33,5.33,0,0,1,10.66,0A5.23,5.23,0,0,1,115.23,26Z" transform="translate(-0.02 -0.01)"/></svg>